<?xml version="1.0"?><svg xmlns="http://www.w3.org/2000/svg"  viewBox="0 0 24 24" width="48px" height="48px">    <path d="M 3 4 C 1.343 4 0 5.343 0 7 L 0 14 C 0 15.657 1.343 17 3 17 L 10.285156 17 L 16.294922 19.955078 C 16.683922 20.129078 17.096516 19.768375 16.978516 19.359375 L 16 17 L 21 17 C 22.657 17 24 15.655047 24 13.998047 L 24 7 C 24 5.343 22.657 4 21 4 L 3 4 z M 10.248047 6 C 10.345219 5.9995781 10.442609 6.0188438 10.537109 6.0585938 C 10.920109 6.2175938 11.101406 6.6551094 10.941406 7.0371094 C 10.296406 8.5861094 9.9707031 11.013 9.9707031 14.25 C 9.9707031 14.569 9.7668438 14.853984 9.4648438 14.958984 C 9.3858437 14.985984 9.3027031 15 9.2207031 15 C 8.9947031 15 8.7758594 14.896891 8.6308594 14.712891 C 7.6938594 13.520891 6.9612344 11.588891 6.4902344 10.087891 L 4.6953125 14.53125 C 4.5743125 14.82925 4.2670781 15.016047 3.9550781 14.998047 C 3.6340781 14.978047 3.3603906 14.758266 3.2753906 14.447266 C 3.2293906 14.279266 2.1479531 10.28825 2.0019531 6.78125 C 1.9839531 6.36725 2.30475 6.0179531 2.71875 6.0019531 C 3.12875 5.9609531 3.4810469 6.30475 3.4980469 6.71875 C 3.5700469 8.44675 3.8954062 10.343391 4.1914062 11.775391 L 5.9296875 7.46875 C 6.0526875 7.16475 6.3465469 6.9729062 6.6855469 7.0039062 C 7.0125469 7.0299062 7.2854219 7.2659375 7.3574219 7.5859375 C 7.3644219 7.6149375 7.8165 9.5942656 8.5625 11.447266 C 8.7095 9.3522656 9.0405937 7.7088906 9.5585938 6.4628906 C 9.6778438 6.1748906 9.9565313 6.0012656 10.248047 6 z M 13.794922 7 C 13.923344 6.9990625 14.052437 7.0113594 14.179688 7.0371094 C 15.521688 7.3171094 16.278297 9.0542344 15.904297 10.990234 C 15.682297 12.139234 15.096891 13.127813 14.337891 13.632812 C 13.972891 13.875813 13.582359 14 13.193359 14 C 13.068359 14 12.944312 13.987891 12.820312 13.962891 C 11.479313 13.682891 10.721703 11.945766 11.095703 10.009766 C 11.317703 8.8607656 11.903109 7.8721875 12.662109 7.3671875 C 13.023609 7.1264375 13.409656 7.0028125 13.794922 7 z M 19.794922 7 C 19.923344 6.9990625 20.052437 7.0113594 20.179688 7.0371094 C 21.521688 7.3171094 22.278297 9.0542344 21.904297 10.990234 C 21.682297 12.139234 21.096891 13.127813 20.337891 13.632812 C 19.972891 13.875813 19.582359 14 19.193359 14 C 19.068359 14 18.944313 13.987891 18.820312 13.962891 C 17.479312 13.682891 16.721703 11.945766 17.095703 10.009766 C 17.317703 8.8607656 17.903109 7.8721875 18.662109 7.3671875 C 19.023609 7.1264375 19.409656 7.0028125 19.794922 7 z M 13.808594 8.5 C 13.714594 8.5 13.610141 8.5382344 13.494141 8.6152344 C 13.075141 8.8932344 12.712359 9.5539219 12.568359 10.294922 C 12.332359 11.516922 12.742906 12.412188 13.128906 12.492188 C 13.234906 12.516187 13.362812 12.479766 13.507812 12.384766 C 13.926813 12.106766 14.289594 11.446078 14.433594 10.705078 C 14.668594 9.4830781 14.259047 8.5878125 13.873047 8.5078125 C 13.853047 8.5028125 13.830594 8.5 13.808594 8.5 z M 19.808594 8.5 C 19.714594 8.5 19.610141 8.5382344 19.494141 8.6152344 C 19.075141 8.8932344 18.712359 9.5539219 18.568359 10.294922 C 18.332359 11.516922 18.742906 12.412188 19.128906 12.492188 C 19.234906 12.516187 19.363812 12.479766 19.507812 12.384766 C 19.926813 12.106766 20.289594 11.446078 20.433594 10.705078 C 20.668594 9.4830781 20.259047 8.5878125 19.873047 8.5078125 C 19.853047 8.5028125 19.830594 8.5 19.808594 8.5 z"/></svg>