<svg width="64" height="64" viewBox="0 0 64 64" fill="none" xmlns="http://www.w3.org/2000/svg">
<g clip-path="url(#clip0_1703_811)">
<path fill-rule="evenodd" clip-rule="evenodd" d="M63.9999 30.16C63.9313 29.1624 63.7796 28.1723 63.5466 27.2C63.4215 26.6186 63.2055 26.0607 62.9066 25.5466C62.6575 25.1186 62.286 24.775 61.8399 24.56C61.0925 24.3143 60.3049 24.2147 59.5199 24.2666C58.6132 24.2666 57.6266 24.5333 56.8532 24.6933C56.9329 23.9131 56.9329 23.1268 56.8532 22.3466C56.7749 21.9134 56.668 21.4858 56.5332 21.0666C56.3697 20.645 56.1451 20.2496 55.8666 19.8933C55.4917 19.4148 55.0413 19.0005 54.5332 18.6666C55.6095 17.9913 56.6185 17.2144 57.5466 16.3466C57.9157 16.0101 58.207 15.5972 58.4005 15.1367C58.5939 14.6762 58.6847 14.1791 58.6666 13.68C58.6139 13.3406 58.4962 13.0147 58.3199 12.72C57.9999 12.2133 57.4132 11.6266 57.1732 11.3066C56.5465 10.5507 55.8694 9.838 55.1466 9.17331C54.3936 8.52509 53.5912 7.93664 52.7466 7.41331C52.2322 7.09648 51.6756 6.85408 51.0932 6.69331C50.6342 6.54268 50.139 6.54268 49.6799 6.69331C48.9682 7.04454 48.3336 7.53407 47.8132 8.13331C47.2774 8.77071 46.7788 9.43849 46.3199 10.1333C45.5343 9.32428 44.6362 8.63272 43.6532 8.07998C43.1836 7.83235 42.6927 7.6271 42.1866 7.46664C41.6961 7.29398 41.1851 7.1864 40.6666 7.14664C39.8695 7.05055 39.0637 7.05055 38.2666 7.14664C38.49 6.17562 38.6063 5.18302 38.6132 4.18664C38.5965 3.68919 38.4736 3.20106 38.2529 2.75495C38.0321 2.30884 37.7186 1.91506 37.3332 1.59998C37.0506 1.40809 36.7338 1.2723 36.3999 1.19998C35.8273 1.09699 35.248 1.03461 34.6666 1.01331C33.6904 0.933389 32.7094 0.933389 31.7332 1.01331C30.748 1.06976 29.7679 1.1945 28.7999 1.38664C28.2186 1.5117 27.6606 1.72769 27.1466 2.02664C26.712 2.26738 26.3661 2.64128 26.1599 3.09331C25.9124 3.81264 25.8127 4.57451 25.8666 5.33331C25.8666 6.26664 26.1332 7.25331 26.2932 8.13331C25.522 8.05376 24.7445 8.05376 23.9732 8.13331C23.5137 8.20985 23.0657 8.34425 22.6399 8.53331C22.1649 8.75215 21.7246 9.03967 21.3332 9.38664C20.8162 9.76978 20.3343 10.1981 19.8932 10.6666C19.2936 9.74282 18.6438 8.85259 17.9466 7.99998C17.3892 7.41427 16.7294 6.9353 15.9999 6.58664C15.5315 6.43751 15.0283 6.43751 14.5599 6.58664C13.984 6.74177 13.4353 6.98461 12.9332 7.30664C12.0827 7.82104 11.2795 8.41002 10.5332 9.06664C9.80189 9.73107 9.11591 10.4438 8.47991 11.2C8.07931 11.6488 7.70534 12.1207 7.35991 12.6133C7.17426 12.906 7.04745 13.2321 6.98658 13.5733C6.96847 14.0725 7.05928 14.5696 7.2527 15.0301C7.44611 15.4906 7.73749 15.9034 8.10658 16.24C8.91865 17.011 9.81289 17.6907 10.7732 18.2666C10.3228 18.6504 9.90367 19.0695 9.51991 19.52C9.22997 19.8878 8.98803 20.2911 8.79991 20.72C8.59744 21.1453 8.4453 21.5927 8.34658 22.0533C8.13938 23.0435 8.06762 24.0572 8.13324 25.0666C6.92651 24.8139 5.70693 24.627 4.47991 24.5066C3.69458 24.4417 2.90435 24.5416 2.15991 24.8C1.70345 24.9995 1.32763 25.3471 1.09324 25.7866C0.794284 26.3007 0.578296 26.8586 0.453242 27.44C0.221646 28.3946 0.0700097 29.3668 -9.14963e-05 30.3466C-0.0800476 31.3317 -0.0800476 32.3216 -9.15013e-05 33.3066C0.0199465 33.9059 0.0823243 34.5029 0.186575 35.0933C0.258897 35.4272 0.394692 35.744 0.586575 36.0266C0.923104 36.3957 1.33597 36.6871 1.79648 36.8805C2.25699 37.0739 2.75409 37.1647 3.25324 37.1466C4.41115 37.118 5.56341 36.975 6.69324 36.72C6.62728 37.3672 6.62728 38.0194 6.69324 38.6666C6.77683 39.1389 6.90175 39.6029 7.06658 40.0533C7.34781 40.501 7.65966 40.9287 7.99991 41.3333C8.49642 42.1121 9.03964 42.8602 9.62658 43.5733C8.77324 44.1866 7.59991 44.9333 6.63991 45.7333C6.04597 46.2522 5.56492 46.8876 5.22658 47.6C5.06187 48.0659 5.06187 48.5741 5.22658 49.04C5.3817 49.6159 5.62454 50.1646 5.94658 50.6666C6.4699 51.5112 7.05836 52.3137 7.70658 53.0666C8.37357 53.8048 9.09564 54.4912 9.86658 55.12C10.3056 55.5211 10.7687 55.8952 11.2532 56.24C11.5459 56.4256 11.872 56.5524 12.2132 56.6133C12.7117 56.6262 13.2072 56.5329 13.6669 56.3399C14.1266 56.1468 14.5401 55.8582 14.8799 55.4933C15.6373 54.6631 16.3241 53.7711 16.9332 52.8266C17.3852 53.3852 17.8947 53.8947 18.4532 54.3466C18.8211 54.6366 19.2243 54.8785 19.6532 55.0666C20.0923 55.2575 20.5474 55.4092 21.0132 55.52C22.0994 55.7501 23.2132 55.8219 24.3199 55.7333C24.5765 55.7567 24.8323 55.6815 25.0354 55.523C25.2385 55.3645 25.3736 55.1346 25.4132 54.88C25.4296 54.6208 25.3483 54.3648 25.1855 54.1625C25.0226 53.9602 24.79 53.8261 24.5332 53.7866C23.6593 53.452 22.8124 53.0509 21.9999 52.5866C21.4399 52.2933 20.9332 52 20.3466 51.76C19.7599 51.52 18.5332 51.1466 17.6799 50.72V50.5066C17.5786 50.3706 17.444 50.2629 17.2889 50.194C17.1339 50.1252 16.9637 50.0974 16.7948 50.1135C16.626 50.1296 16.4641 50.1889 16.3248 50.2858C16.1856 50.3827 16.0737 50.5139 15.9999 50.6666C15.5732 51.0933 14.7732 52.0533 13.8932 52.9066C13.571 53.285 13.1824 53.6013 12.7466 53.84C12.3701 53.5418 12.0378 53.1917 11.7599 52.8C11.1466 52.24 10.5599 51.6 9.97324 50.96C9.38658 50.32 8.87991 49.68 8.39991 48.9866C7.91991 48.2933 7.62658 48.1333 8.71991 47.12C9.81324 46.1066 10.5866 45.2266 11.1732 44.4533C11.1732 44.4533 11.1732 44.2666 11.3332 44.16C11.4942 44.0102 11.602 43.8121 11.6405 43.5956C11.679 43.3792 11.646 43.1561 11.5466 42.96C11.2266 42.0266 11.0132 41.0666 10.7199 40.0533C10.6198 39.6549 10.4951 39.263 10.3466 38.88C10.3466 38.48 10.0532 38.1066 9.89324 37.7333C9.40434 36.8796 8.9852 35.9878 8.63991 35.0666C8.62988 34.9544 8.59772 34.8453 8.54529 34.7455C8.49285 34.6458 8.42118 34.5574 8.3344 34.4855C8.24763 34.4136 8.14747 34.3596 8.03971 34.3266C7.93195 34.2936 7.81873 34.2823 7.70658 34.2933C7.60837 34.3007 7.51274 34.3282 7.4256 34.3741C7.33845 34.42 7.26163 34.4832 7.19991 34.56H4.53324C4.03688 34.5933 3.53876 34.53 3.06658 34.3733C3.03751 33.9026 3.03751 33.4306 3.06658 32.96V30.2933C3.06658 29.3066 3.19991 28.6133 3.33324 27.7866C3.46658 26.96 3.33324 26.7466 4.87991 26.6933C6.42658 26.64 7.54658 26.6933 8.45324 26.6933C8.61833 26.6958 8.77987 26.6453 8.91422 26.5494C9.04857 26.4534 9.14869 26.3169 9.19991 26.16C9.3727 26.1117 9.5266 26.0117 9.64099 25.8735C9.75538 25.7353 9.82478 25.5654 9.83991 25.3866C10.1866 24.5266 10.5874 23.6894 11.0399 22.88C11.3332 22.3466 11.6266 21.84 11.8666 21.28C12.1066 20.72 12.4799 19.6 12.8266 18.6133C12.9454 18.5604 13.0518 18.4833 13.1391 18.3868C13.2263 18.2904 13.2925 18.1768 13.3332 18.0533C13.3818 17.9033 13.3849 17.7422 13.3422 17.5904C13.2995 17.4385 13.2129 17.3027 13.0932 17.2C12.9468 17.147 12.7864 17.147 12.6399 17.2C12.1599 16.7466 11.4666 16.1333 10.8532 15.4933C10.4676 15.1678 10.1503 14.769 9.91991 14.32C10.2932 13.92 10.6666 13.3333 10.9599 13.3333C11.5199 12.72 12.1599 12.1333 12.7999 11.5466C13.4182 10.9854 14.0681 10.4601 14.7466 9.97331C15.1999 9.62664 15.6266 9.38664 16.6132 10.2933C17.3797 10.9555 18.1097 11.6587 18.7999 12.4C18.7999 12.4 18.7999 12.6666 18.7999 12.8C18.8593 12.8949 18.9374 12.9768 19.0294 13.0407C19.1214 13.1046 19.2254 13.1491 19.3351 13.1715C19.4449 13.194 19.558 13.1939 19.6677 13.1713C19.7774 13.1487 19.8813 13.104 19.9732 13.04C20.9866 12.6666 22.0266 12.5333 23.0932 12.1333C23.6579 11.9257 24.2099 11.6853 24.7466 11.4133C25.4548 11.0404 26.185 10.7109 26.9332 10.4266C26.9332 10.4266 27.1732 10.5866 27.3332 10.56C27.4464 10.5602 27.5585 10.5372 27.6624 10.4924C27.7664 10.4475 27.86 10.3818 27.9375 10.2993C28.015 10.2168 28.0747 10.1193 28.113 10.0127C28.1512 9.9062 28.1672 9.79294 28.1599 9.67998V9.22664V6.07998C28.1599 4.95998 28.7199 4.61331 29.2532 4.53331C29.7866 4.45331 30.9332 4.31998 31.7599 4.26664C32.5866 4.21331 33.4932 4.26664 34.4266 4.26664H35.8666C36.0129 4.74087 36.0672 5.23869 36.0266 5.73331V8.79998C36.0193 9.05725 36.1127 9.3072 36.2871 9.49651C36.4615 9.68582 36.7029 9.7995 36.9599 9.81331C37.0921 9.82425 37.2251 9.80603 37.3495 9.75995C37.4739 9.71388 37.5867 9.64106 37.6799 9.54664C38.5066 9.75998 39.3866 10.16 40.3466 10.5066L41.9999 11.0133C42.5866 11.1733 43.1732 11.2533 43.7332 11.4133C44.2362 11.5718 44.7264 11.7679 45.1999 12C45.1098 12.1606 45.0741 12.3462 45.0981 12.5288C45.1221 12.7115 45.2046 12.8814 45.3332 13.0133C45.4975 13.173 45.7175 13.2623 45.9466 13.2623C46.1756 13.2623 46.3957 13.173 46.5599 13.0133C47.2266 12.4266 48.1332 11.3866 49.2266 10.56C50.3199 9.73331 50.6666 9.89331 51.0932 10.24C51.5199 10.5866 52.4266 11.28 53.0666 11.8133C53.7066 12.3466 54.3466 12.9866 54.9066 13.6C55.0932 13.7866 55.7066 14.3466 55.9199 14.5866C56.1332 14.8266 55.3866 15.3066 55.0132 15.7333C54.1866 16.5866 53.2266 17.36 52.7999 17.7866C52.6305 17.788 52.4653 17.8397 52.3254 17.9352C52.1855 18.0307 52.0771 18.1657 52.0142 18.323C51.9513 18.4803 51.9366 18.6528 51.9721 18.8185C52.0075 18.9842 52.0915 19.1355 52.2132 19.2533C52.5757 19.9929 52.8531 20.7712 53.0399 21.5733C53.136 21.8913 53.2518 22.203 53.3866 22.5066C53.8399 23.52 54.3999 24.4533 54.7466 25.4666C54.6735 25.5451 54.617 25.6375 54.5803 25.7383C54.5437 25.8391 54.5277 25.9462 54.5332 26.0533C54.5367 26.1654 54.5622 26.2757 54.6083 26.3779C54.6544 26.4801 54.7202 26.5722 54.8019 26.649C54.8836 26.7258 54.9797 26.7857 55.0846 26.8253C55.1895 26.865 55.3012 26.8835 55.4132 26.88H58.9866C60.2666 26.88 60.4799 27.4666 60.5332 27.9733C60.6644 28.8038 60.7534 29.6405 60.7999 30.48V33.1466C60.8277 33.6173 60.8277 34.0893 60.7999 34.56C60.3257 34.7063 59.8279 34.7606 59.3332 34.72H57.3066H56.2666C56.1405 34.7128 56.0142 34.7305 55.8949 34.7722C55.7757 34.8139 55.6659 34.8788 55.5717 34.963C55.4776 35.0472 55.401 35.1492 55.3463 35.2631C55.2917 35.377 55.2601 35.5005 55.2532 35.6266C55.241 35.7941 55.2742 35.9618 55.3493 36.1119C55.4244 36.2621 55.5386 36.3893 55.6799 36.48C55.2532 37.36 54.7732 38.24 54.3732 39.1466C53.9732 40.0533 53.8132 40.6666 53.5199 41.4133C53.2014 42.562 52.7353 43.6645 52.1332 44.6933C51.984 44.6234 51.8169 44.6012 51.6546 44.6298C51.4923 44.6585 51.3428 44.7365 51.2266 44.8533C51.0669 45.0176 50.9776 45.2376 50.9776 45.4666C50.9776 45.6957 51.0669 45.9157 51.2266 46.08C51.8399 46.7466 52.8799 47.6533 53.7066 48.7466C54.5332 49.84 54.3199 50.24 54.0266 50.6133C53.5309 51.3007 52.9967 51.9596 52.4266 52.5866C51.8743 53.232 51.2867 53.8462 50.6666 54.4266C50.4799 54.6133 50.0266 55.12 49.6799 55.44C49.3332 55.44 48.9599 54.9066 48.5332 54.5333C47.6532 53.68 46.8532 52.72 46.4266 52.2933C46.3393 52.2005 46.2339 52.1265 46.117 52.0759C46.0001 52.0254 45.874 51.9993 45.7466 51.9993C45.6192 51.9993 45.4931 52.0254 45.3762 52.0759C45.2592 52.1265 45.1538 52.2005 45.0666 52.2933C44.9666 52.3733 44.886 52.4748 44.8306 52.5902C44.7752 52.7056 44.7465 52.832 44.7466 52.96C44.0073 53.132 43.2597 53.2655 42.5066 53.36C41.8132 53.36 41.1732 53.5466 40.5332 53.7066C39.3599 53.9466 38.2932 54.3733 37.0932 54.6133H36.7732C36.55 54.6627 36.3508 54.7881 36.2097 54.968C36.0687 55.148 35.9945 55.3714 35.9999 55.6V58.6666C36.0533 59.1614 35.9987 59.6617 35.8399 60.1333C35.3691 60.1083 34.8974 60.1083 34.4266 60.1333H31.7599C30.7999 60.1333 30.0532 60 29.2532 59.8667C28.4532 59.7333 28.2666 59.6267 28.1599 58.32C28.0532 57.0133 28.1599 55.6533 28.1599 54.7466C28.1671 54.6359 28.152 54.5248 28.1153 54.4201C28.0787 54.3153 28.0213 54.219 27.9467 54.1369C27.872 54.0547 27.7816 53.9885 27.6808 53.9421C27.58 53.8956 27.4708 53.87 27.3599 53.8666C27.2478 53.8594 27.1354 53.8744 27.0291 53.9107C26.9228 53.9471 26.8247 54.004 26.7404 54.0784C26.6562 54.1527 26.5875 54.2429 26.5382 54.3439C26.4889 54.4448 26.46 54.5545 26.4532 54.6666C26.3199 55.7333 25.8932 57.3333 25.7866 58.9333C25.7216 59.7186 25.8215 60.5089 26.0799 61.2533C26.2836 61.6985 26.6186 62.0707 27.0399 62.32C27.5579 62.6106 28.1146 62.8261 28.6932 62.96C29.6685 63.1781 30.6574 63.3295 31.6532 63.4133C32.6383 63.4933 33.6282 63.4933 34.6132 63.4133C35.2125 63.3933 35.8095 63.3309 36.3999 63.2266C36.7338 63.1543 37.0506 63.0185 37.3332 62.8266C37.6955 62.4848 37.9822 62.0709 38.1751 61.6117C38.368 61.1525 38.4627 60.658 38.4532 60.16C38.4045 58.9845 38.2528 57.8156 37.9999 56.6666C38.7596 56.8601 39.5369 56.9763 40.3199 57.0133C40.8302 57.0365 41.3414 56.9916 41.8399 56.88C42.3436 56.7818 42.8353 56.6298 43.3066 56.4266C44.1782 56.0612 44.9949 55.5766 45.7332 54.9867C46.2791 55.8267 46.9042 56.6125 47.5999 57.3333C47.9364 57.7024 48.3493 57.9938 48.8098 58.1872C49.2703 58.3806 49.7674 58.4714 50.2666 58.4533C50.6059 58.4006 50.9319 58.2829 51.2266 58.1067C51.7122 57.7537 52.1753 57.3707 52.6132 56.96C53.3813 56.347 54.095 55.6689 54.7466 54.9333C55.4033 54.1807 56.0007 53.3783 56.5332 52.5333C56.8471 52.0302 57.081 51.4815 57.2266 50.9066C57.4054 50.4433 57.4054 49.93 57.2266 49.4666C56.8882 48.7542 56.4072 48.1189 55.8132 47.6C55.122 47.0371 54.401 46.5119 53.6532 46.0266C54.7036 45.0583 55.5866 43.923 56.2666 42.6666C56.577 42.1792 56.8362 41.6608 57.0399 41.12C57.2645 40.5897 57.4256 40.0347 57.5199 39.4666C57.7035 38.5893 57.8017 37.6962 57.8132 36.8C58.6907 36.9829 59.5837 37.0811 60.4799 37.0933C60.9764 37.1095 61.4707 37.0205 61.9303 36.8321C62.3899 36.6436 62.8044 36.3601 63.1466 36C63.3385 35.7174 63.4743 35.4005 63.5466 35.0666C63.6508 34.4762 63.7132 33.8792 63.7332 33.28C63.9108 32.2495 64 31.2057 63.9999 30.16Z" fill="#000209"/>
<path fill-rule="evenodd" clip-rule="evenodd" d="M32.5067 14.0266C23.2534 12.2932 16.2134 18.4799 13.4934 26.2399C11.8925 30.171 11.7345 34.5419 13.0475 38.5783C14.3604 42.6147 17.0595 46.0562 20.6667 48.2932C23.8316 49.9925 27.3679 50.8818 30.9601 50.8818C34.5522 50.8818 38.0885 49.9925 41.2534 48.2932C43.7954 47.0498 46.0362 45.2677 47.82 43.0709C49.6039 40.8742 50.8881 38.3153 51.5834 35.5722C52.2787 32.8291 52.3684 29.9676 51.8463 27.1863C51.3242 24.405 50.2028 21.7708 48.5601 19.4666C47.262 17.8056 45.6199 16.445 43.7465 15.4784C41.873 14.5118 39.8127 13.9619 37.7067 13.8666C37.4491 13.8442 37.1929 13.9239 36.9934 14.0885C36.7939 14.253 36.667 14.4894 36.6401 14.7466C36.6253 14.8734 36.6367 15.002 36.6736 15.1242C36.7106 15.2465 36.7722 15.3598 36.8546 15.4573C36.9371 15.5548 37.0387 15.6343 37.1532 15.691C37.2677 15.7476 37.3925 15.7801 37.5201 15.7866C39.3296 15.9118 41.0901 16.43 42.679 17.305C44.2679 18.18 45.6469 19.3909 46.7201 20.8532C48.7841 23.8751 49.7961 27.4923 49.6001 31.1466C49.4173 34.2093 48.4084 37.1654 46.6806 39.7008C44.9527 42.2362 42.5705 44.2564 39.7867 45.5466C37.0893 46.9801 34.0814 47.7297 31.0267 47.7297C27.9721 47.7297 24.9641 46.9801 22.2667 45.5466C15.3334 41.6799 13.8667 33.7332 16.0001 27.0399C18.1334 20.3466 24.0001 14.5066 32.2667 15.7066C32.379 15.7306 32.4949 15.7318 32.6077 15.71C32.7204 15.6882 32.8275 15.6439 32.9227 15.5797C33.0179 15.5155 33.0992 15.4327 33.1616 15.3364C33.2241 15.24 33.2664 15.1321 33.2862 15.019C33.3059 14.9059 33.3026 14.79 33.2765 14.6781C33.2504 14.5663 33.202 14.461 33.1342 14.3683C33.0664 14.2756 32.9806 14.1976 32.882 14.1389C32.7833 14.0802 32.6738 14.042 32.5601 14.0266H32.5067Z" fill="#000209"/>
<path fill-rule="evenodd" clip-rule="evenodd" d="M32.453 37.6001C32.453 36.3201 32.613 34.9334 32.6397 33.7067V31.3867C32.6359 30.6027 32.5914 29.8194 32.5064 29.0401C32.3464 27.2001 31.973 25.4134 31.733 23.7067C31.6971 23.5029 31.5906 23.3183 31.4321 23.1853C31.2736 23.0522 31.0733 22.9793 30.8664 22.9793C30.6594 22.9793 30.4591 23.0522 30.3006 23.1853C30.1421 23.3183 30.0356 23.5029 29.9997 23.7067C29.7597 25.5467 29.493 27.3601 29.3864 29.2267C29.3464 30.0173 29.3464 30.8094 29.3864 31.6001C29.3864 32.3734 29.3864 33.1734 29.573 33.9467C29.733 35.2801 29.9464 36.6134 30.1864 37.8401L28.2664 38.0267C27.1997 38.0267 26.1597 38.3201 25.093 38.5067C25.093 37.7334 25.333 37.0134 25.413 36.2401C25.4395 35.8405 25.4395 35.4396 25.413 35.0401C25.4514 34.6499 25.4514 34.2569 25.413 33.8667C25.413 32.9067 24.9597 32.0534 24.773 31.2001C24.7802 31.0879 24.7653 30.9755 24.7289 30.8692C24.6926 30.7629 24.6356 30.6648 24.5613 30.5806C24.487 30.4963 24.3968 30.4276 24.2958 30.3783C24.1948 30.329 24.0852 30.3002 23.973 30.2934C23.8574 30.2862 23.7415 30.3018 23.632 30.3395C23.5224 30.3772 23.4214 30.4361 23.3347 30.5129C23.248 30.5897 23.1773 30.6829 23.1267 30.7871C23.076 30.8913 23.0465 31.0044 23.0397 31.1201C22.773 32.0801 22.453 32.9601 22.2664 33.9734C22.2265 34.3902 22.2265 34.8099 22.2664 35.2267C22.2802 35.6486 22.3338 36.0682 22.4264 36.4801C22.5774 37.2928 22.7823 38.0945 23.0397 38.8801C22.213 38.8801 21.3864 39.1201 20.533 39.2001C20.3067 39.2001 20.0897 39.29 19.9296 39.45C19.7696 39.61 19.6797 39.8271 19.6797 40.0534C19.6864 40.2776 19.7784 40.4908 19.937 40.6494C20.0956 40.808 20.3088 40.9 20.533 40.9067C23.0828 41.1907 25.6477 41.3154 28.213 41.2801C30.053 41.2801 31.9464 41.1201 33.8397 40.9601C35.733 40.8001 37.493 40.5601 39.333 40.5334L42.6664 40.1334C42.7924 40.1544 42.9214 40.1504 43.0459 40.1215C43.1704 40.0927 43.288 40.0396 43.392 39.9653C43.496 39.8911 43.5844 39.797 43.6521 39.6886C43.7197 39.5802 43.7653 39.4595 43.7864 39.3334C43.8074 39.2073 43.8033 39.0783 43.7745 38.9538C43.7457 38.8293 43.6926 38.7117 43.6183 38.6077C43.544 38.5037 43.45 38.4153 43.3416 38.3477C43.2331 38.28 43.1124 38.2344 42.9864 38.2134L39.6264 37.8934C39.7597 36.0801 39.9464 34.2667 40.1064 32.5601C40.2664 30.8534 40.3197 29.4934 40.3464 27.9734C40.3464 25.3067 40.1064 22.8267 39.973 20.2401C39.973 20.0137 39.8831 19.7967 39.7231 19.6367C39.5631 19.4766 39.346 19.3867 39.1197 19.3867C38.8934 19.3867 38.6763 19.4766 38.5163 19.6367C38.3563 19.7967 38.2664 20.0137 38.2664 20.2401C37.893 22.4801 37.4664 24.6667 37.1997 26.9334C37.1997 27.8934 37.013 28.8534 36.9864 29.8134C36.9597 30.7734 36.9864 31.7601 36.9864 32.7467C36.9864 34.4801 37.1997 36.1867 37.3864 37.9201C35.7493 37.7201 34.1022 37.6132 32.453 37.6001Z" fill="#000209"/>
</g>
<defs>
<clipPath id="clip0_1703_811">
<rect width="64" height="64" fill="white"/>
</clipPath>
</defs>
</svg>
