<svg width="64" height="64" viewBox="0 0 64 64" fill="none" xmlns="http://www.w3.org/2000/svg">
<g clip-path="url(#clip0_1703_804)">
<path fill-rule="evenodd" clip-rule="evenodd" d="M43.7066 10.6667C45.5202 10.2274 47.302 9.6661 49.04 8.98673C49.167 8.85998 49.2508 8.69641 49.2796 8.51928C49.3083 8.34215 49.2804 8.16047 49.2 8.00007C48.9333 7.22673 48.16 7.2534 43.4133 8.2134C43.0435 8.17525 42.6698 8.21485 42.3162 8.32966C41.9625 8.44446 41.6368 8.63195 41.36 8.88007C40.7634 10.3169 40.3079 11.8084 40 13.3334C37.9231 13.1731 35.8369 13.1731 33.76 13.3334C33.04 13.3334 24.8533 12.9867 23.0933 14.2667C21.9733 15.0934 22.32 16.5334 22.5066 17.7334C22.8199 20.133 23.3191 22.5046 24 24.8267C23.472 25.2421 23.0588 25.7853 22.7995 26.405C22.5402 27.0247 22.4433 27.7003 22.5181 28.3679C22.5928 29.0354 22.8368 29.6729 23.2267 30.2198C23.6167 30.7668 24.1399 31.2051 24.7466 31.4934C25.5155 31.7978 26.3587 31.8613 27.1645 31.6756C27.9703 31.4899 28.7007 31.0637 29.2588 30.4535C29.8169 29.8433 30.1765 29.078 30.2898 28.2589C30.4031 27.4397 30.2648 26.6055 29.8933 25.8667H34.3733C32.56 29.4134 37.04 32.1867 40.1066 30.4801C40.6792 30.1496 41.153 29.672 41.4789 29.0968C41.8048 28.5216 41.9709 27.8697 41.96 27.2087C41.9491 26.5477 41.7617 25.9016 41.417 25.3374C41.0724 24.7732 40.5831 24.3115 40 24.0001C41.7866 16.4267 42.1866 17.2001 43.7066 10.6667ZM27.8933 27.6001C27.5466 29.1467 25.2266 29.2267 25.2266 27.6001C25.44 25.1467 28.4 25.2534 27.8933 27.6001ZM26.6666 23.3334C26.6666 23.0667 26.4 22.7201 26.3733 22.5867L25.44 17.4667C25.44 16.7201 24.2933 17.1201 29.0666 16.2401C39.04 15.3067 35.28 15.3334 39.4133 15.1467C38.7456 17.8439 38.3877 20.6084 38.3466 23.3867C37.4937 23.3255 36.6458 23.561 35.9466 24.0534C33.8133 23.7601 27.1466 23.3601 26.6666 23.3334ZM38.9866 27.9201C38.4153 28.014 37.8288 27.9303 37.3066 27.6801C35.3066 26.8001 39.9733 23.0401 39.9733 26.9334C39.9224 27.1941 39.7883 27.4311 39.5912 27.6091C39.394 27.787 39.1445 27.8961 38.88 27.9201H38.9866Z" fill="#000209"/>
<path fill-rule="evenodd" clip-rule="evenodd" d="M18.4803 38.7201C18.3092 38.6039 18.0998 38.5584 17.896 38.5932C17.6922 38.628 17.5097 38.7404 17.3869 38.9068C15.7326 41.0369 14.2607 43.3027 12.9869 45.6801C12.7199 46.0881 12.6007 46.5753 12.6493 47.0605C12.6978 47.5457 12.9111 47.9997 13.2536 48.3468C15.9203 50.4268 44.2669 50.7201 52.0536 48.9601C54.7203 48.3734 51.1203 43.2534 49.2003 39.7601C48.5069 38.6668 46.9603 38.4001 47.2269 39.7601L48.4003 42.2401L38.9869 41.7334C38.7736 40.8268 38.6403 40.2134 38.5603 39.7601C38.5005 39.4719 38.3432 39.2131 38.1149 39.0273C37.8866 38.8415 37.6013 38.74 37.3069 38.74C37.0126 38.74 36.7272 38.8415 36.4989 39.0273C36.2706 39.2131 36.1134 39.4719 36.0536 39.7601C36.0137 40.3817 36.0137 41.0052 36.0536 41.6268C33.7069 41.6268 31.3603 41.4668 28.0536 41.6268C28.3469 40.8001 28.5603 40.2668 28.7203 39.8401C28.9336 38.5068 26.6936 38.2668 25.8936 39.8401C25.7069 40.1868 25.4136 40.7201 24.8803 41.7601C21.4403 41.9201 18.6403 42.1068 17.2803 42.2134C17.8403 40.6401 19.5203 39.4401 18.4803 38.7201ZM48.3469 43.8934C48.4835 43.8893 48.6173 43.8534 48.7377 43.7886C48.858 43.7238 48.9616 43.6319 49.0403 43.5201C49.6003 44.7201 50.1069 45.8668 50.4269 46.7468C47.7603 46.9868 42.4269 47.0134 39.6269 47.0134C39.6269 46.3734 39.3603 45.9201 39.3069 44.3468C42.8803 44.1601 46.1069 43.9468 48.3469 43.8934ZM26.7469 44.2134C30.5336 44.4001 32.9336 44.4268 36.5336 44.3468C37.2803 47.0134 37.0936 46.4534 37.2803 47.0134H24.8803C25.2269 46.5068 25.9469 45.5468 26.6669 44.2134H26.7469ZM23.7069 44.0534C23.4669 44.5601 22.8536 46.1068 22.5603 46.9601C21.3603 46.9601 16.5069 46.8268 15.3069 46.6934C15.9676 45.7339 16.4383 44.6567 16.6936 43.5201C16.9069 43.6268 23.4936 44.0268 23.7069 44.0534Z" fill="#000209"/>
<path fill-rule="evenodd" clip-rule="evenodd" d="M64.0001 49.6001C63.7867 47.6267 56.2934 37.6801 54.8001 36.6934C56.6141 30.4781 57.8811 24.1161 58.5867 17.6801C58.9601 13.7601 60.0801 8.80005 58.8534 4.77339C57.2801 5.40156e-05 37.6801 0.933387 32.0001 0.960054C25.2976 0.818459 18.602 1.47191 12.0534 2.90672C9.38672 3.57339 5.62672 4.18672 5.01339 6.98672C3.62672 12.8267 8.96006 33.7334 10.6667 37.1467C11.1467 38.1067 12.1867 36.8267 10.6667 38.4267C8.00006 41.0934 2.24006 47.1467 0.800057 49.0934C0.362522 49.7682 0.103618 50.5431 0.0476441 51.3454C-0.00832938 52.1477 0.140463 52.951 0.480056 53.6801C0.112453 54.7981 0.0389829 55.992 0.266723 57.1467C0.14714 58.3637 0.417989 59.5872 1.04006 60.6401C4.05339 63.8667 55.6267 63.3067 60.0001 62.4267C62.8267 61.7867 62.6667 59.7601 63.0934 57.0934C63.1238 56.8638 63.0625 56.6314 62.9227 56.4467C62.783 56.262 62.576 56.1398 62.3467 56.1067C60.8267 55.8934 61.5467 58.3734 60.7467 59.7334C59.9467 61.0934 60.2667 60.5067 36.5067 60.1867C26.7201 60.0534 3.30672 60.1867 2.37339 59.2534C2.02002 57.8294 1.81449 56.3728 1.76006 54.9067C8.10672 57.5734 51.1201 56.0534 58.0001 55.7867C58.2359 55.7798 58.4597 55.6812 58.624 55.5119C58.7883 55.3426 58.8802 55.116 58.8801 54.8801C58.8801 53.4934 59.6801 54.2134 18.5067 53.4134C11.7867 53.4134 6.13339 53.1467 3.49339 52.7467C2.72006 52.7467 2.48006 53.0667 2.42672 51.5734C2.38917 51.1842 2.473 50.793 2.66672 50.4534C4.80006 47.1201 12.9334 38.3734 13.0401 38.1601C13.1467 37.9467 12.6934 37.0401 12.0534 37.1734C12.1193 37.0649 12.1542 36.9404 12.1542 36.8134C12.1542 36.6864 12.1193 36.5619 12.0534 36.4534C10.3734 32.9067 5.84006 12.6667 7.12006 7.49339C7.25339 6.90672 7.86672 6.61339 8.50672 6.34672C12.3024 5.20554 16.2089 4.47251 20.1601 4.16005C26.0267 3.65339 42.1334 3.81339 43.5201 3.84005C58.4534 4.29339 54.9334 6.32005 56.0001 5.78672C56.3449 7.19006 56.4708 8.63826 56.3734 10.0801C55.7347 18.4377 54.5229 26.7417 52.7467 34.9334C52.2401 34.9334 51.1201 35.3067 50.0801 35.3601C41.0667 35.7867 17.5467 35.7867 14.7201 35.8667C14.4398 35.8558 14.164 35.9393 13.9368 36.1036C13.7096 36.268 13.5441 36.5038 13.4667 36.7734C13.4667 37.9201 14.8267 37.6267 16.2934 37.6267C57.0934 37.9201 53.4667 37.6267 53.6267 37.9734C53.7867 38.3201 53.7867 38.2134 53.9467 38.4801C56.1399 42.6521 58.7487 46.5921 61.7334 50.2401L62.4534 53.3334C62.4534 53.5385 62.5349 53.7352 62.6799 53.8802C62.8249 54.0252 63.0216 54.1067 63.2267 54.1067C63.4318 54.1067 63.6285 54.0252 63.7736 53.8802C63.9186 53.7352 64.0001 53.5385 64.0001 53.3334V49.6001Z" fill="#000209"/>
</g>
<defs>
<clipPath id="clip0_1703_804">
<rect width="64" height="64" fill="white"/>
</clipPath>
</defs>
</svg>
