<svg width="64" height="64" viewBox="0 0 64 64" fill="none" xmlns="http://www.w3.org/2000/svg">
<g clip-path="url(#clip0_1703_794)">
<path fill-rule="evenodd" clip-rule="evenodd" d="M33.0665 24.5601C33.9464 25.2005 34.9712 25.613 36.0493 25.7606C37.1275 25.9082 38.2255 25.7864 39.2451 25.4061C40.2647 25.0257 41.1741 24.3986 41.8922 23.5809C42.6102 22.7632 43.1145 21.7803 43.3599 20.7201C44.5965 22.1453 46.297 23.0875 48.161 23.3803C50.0251 23.673 51.9326 23.2975 53.5465 22.3201C52.7764 25.1448 52.8693 28.1353 53.8132 30.9068C53.8344 31.1189 53.9391 31.314 54.1041 31.449C54.2691 31.584 54.481 31.648 54.6932 31.6268C54.9054 31.6055 55.1004 31.5009 55.2355 31.3359C55.3705 31.1708 55.4344 30.9589 55.4132 30.7468C56.2484 27.4209 56.3395 23.9518 55.6799 20.5868C58.6399 17.0401 57.1999 12.4268 55.6799 8.40009C54.6408 5.44305 52.6653 2.90577 50.0532 1.17343C47.7332 -0.639906 16.3199 9.42543e-05 9.97321 0.933428C9.84773 0.941098 9.72521 0.974778 9.61345 1.03233C9.50168 1.08988 9.4031 1.17005 9.32398 1.26774C9.24485 1.36543 9.18691 1.47851 9.15382 1.59979C9.12074 1.72107 9.11323 1.84791 9.13179 1.97225C9.15035 2.09658 9.19456 2.2157 9.26162 2.32204C9.32868 2.42837 9.41712 2.5196 9.52132 2.58993C9.62552 2.66026 9.74321 2.70814 9.86691 2.73055C9.99061 2.75296 10.1176 2.7494 10.2399 2.72009C11.9465 2.50676 14.4799 2.34676 17.3599 2.26676C16.1478 5.51966 15.3678 8.91756 15.0399 12.3734C12.1004 13.1368 9.05158 13.3894 6.02654 13.1201C5.31105 13.137 4.59788 13.2083 3.89321 13.3334C4.93756 10.0153 6.2485 6.78696 7.81321 3.68009C7.84196 3.49176 7.80477 3.29927 7.70793 3.13519C7.6111 2.97111 7.46056 2.84552 7.28179 2.77966C7.10302 2.71379 6.90698 2.7117 6.72684 2.77374C6.5467 2.83577 6.39352 2.95812 6.29321 3.12009C5.24211 4.86793 4.34966 6.70638 3.62654 8.61343C-3.49346 23.4668 9.49321 27.4934 14.7732 20.3468C16.4532 23.0134 17.1999 24.8801 20.5599 25.3334C22.7084 25.5799 24.8742 25.0502 26.6665 23.8401C27.879 23.0685 28.8785 22.0049 29.5732 20.7468C30.379 22.3051 31.5846 23.6212 33.0665 24.5601ZM48.5865 3.22676C50.7145 4.66402 52.3082 6.7639 53.1199 9.20009C54.4461 11.804 54.7505 14.8098 53.9732 17.6268C53.6041 18.2934 53.0923 18.8703 52.4743 19.3162C51.8564 19.7621 51.1476 20.066 50.3985 20.2061C49.6495 20.3462 48.8788 20.3191 48.1414 20.1268C47.4041 19.9344 46.7183 19.5816 46.1332 19.0934C43.0399 15.4134 43.4665 15.4401 43.5999 14.6134C45.3599 14.6134 47.1465 14.4001 48.9332 14.3734C49.1737 14.3734 49.4043 14.2779 49.5743 14.1079C49.7444 13.9378 49.8399 13.7072 49.8399 13.4668C49.8399 13.2263 49.7444 12.9957 49.5743 12.8257C49.4043 12.6556 49.1737 12.5601 48.9332 12.5601L43.5999 12.4001C43.3983 9.10784 42.8531 5.84567 41.9732 2.66676C44.1332 2.66676 45.9199 2.93343 47.3065 3.09343C47.8399 3.17343 48.4532 3.54676 48.5865 3.36009V3.22676ZM39.9999 2.66676C39.9444 5.9853 40.1585 9.30286 40.6399 12.5868L30.9599 12.3201C31.2265 9.001 31.2265 5.66586 30.9599 2.34676C34.1865 2.32009 37.3332 2.42676 39.9999 2.66676ZM19.3332 2.21343H29.0932C28.453 5.45572 28.1049 8.74893 28.0532 12.0534C24.7551 11.6297 21.4226 11.5404 18.1065 11.7868C18.6665 9.57343 19.3332 2.21343 19.3332 2.21343ZM12.8799 18.9601C12.2185 20.0489 11.2042 20.8782 10.0057 21.3101C8.80725 21.7419 7.49701 21.7502 6.29321 21.3334C3.62654 20.3201 3.27988 17.8401 3.62654 15.0934C4.42452 15.013 5.22856 15.013 6.02654 15.0934C8.98343 15.5922 12.003 15.5922 14.9599 15.0934C14.9065 16.5868 13.6265 17.6801 12.8799 18.9601ZM25.0399 21.3334C22.9865 22.7734 19.7065 23.1468 18.4265 21.0401C17.4725 19.0416 17.1292 16.8061 17.4399 14.6134C21.0529 14.4458 24.6736 14.5707 28.2665 14.9868C28.2209 16.2153 27.9087 17.4192 27.3515 18.5151C26.7944 19.611 26.0056 20.5727 25.0399 21.3334ZM30.5599 15.0401C34.0265 15.0401 36.6665 15.0401 41.2265 14.7468C41.7065 16.9601 40.2399 22.2134 37.7865 22.5868C36.6842 22.6044 35.5992 22.3111 34.6559 21.7404C33.7126 21.1697 32.9492 20.3447 32.4532 19.3601C31.6571 18.0358 31.0215 16.6214 30.5599 15.1468V15.0401Z" fill="#000209"/>
<path fill-rule="evenodd" clip-rule="evenodd" d="M62.5597 47.6267C62.3614 47.249 62.0617 46.9341 61.6943 46.7174C61.3268 46.5007 60.9062 46.3908 60.4797 46.4C59.7597 40.72 59.1197 36.0267 53.9197 36.9333C53.9197 34.4267 52.2664 34.1067 49.7864 34C42.0264 34 40.2397 34.1333 38.9064 36.4C37.4245 36.2656 35.9466 36.6967 34.7694 37.6068C33.5921 38.5169 32.8028 39.8386 32.5597 41.3067C32.1281 43.0494 31.9929 44.8524 32.1597 46.64C31.9334 46.6901 31.7348 46.825 31.6049 47.0169C31.4749 47.2089 31.4234 47.4434 31.4609 47.6721C31.4985 47.9009 31.6223 48.1066 31.8068 48.2469C31.9913 48.3873 32.2226 48.4516 32.4531 48.4267H37.6264C37.7597 49.44 37.9731 50.88 38.1597 52.8C36.2017 52.7558 34.2427 52.8271 32.2931 53.0133C31.9458 51.705 31.5092 50.422 30.9864 49.1733C30.8422 49.0712 30.6698 49.0163 30.4931 49.0163C30.3163 49.0163 30.144 49.0712 29.9997 49.1733C29.3331 49.6267 29.5464 49.5467 32.3197 59.84C32.4508 60.9806 32.8432 62.0757 33.4664 63.04C34.6664 64.2933 37.9731 63.9467 39.3597 63.9733C43.9203 64.1441 48.4867 64.0729 53.0397 63.76C54.6664 63.6267 58.5331 64.5067 59.5997 62.3733C60.837 59.4093 61.7317 56.3137 62.2664 53.1467C62.5064 51.5733 63.5464 49.52 62.5597 47.6267ZM41.5464 36.32C44.7301 36.7313 47.9363 36.945 51.1464 36.96C51.0968 37.5416 51.0167 38.1201 50.9064 38.6933C50.9064 38.6933 41.4131 38.96 40.8797 38.6933C40.3464 38.4267 40.3197 38.4533 40.2931 38.2133C40.2692 37.8047 40.3785 37.3993 40.6044 37.0579C40.8304 36.7166 41.1609 36.4577 41.5464 36.32ZM33.8664 46.4533C34.2586 45.1631 34.7307 43.8984 35.2797 42.6667C36.7464 38.9333 35.9464 39.6267 38.3464 38.4267C38.3698 38.9242 38.5321 39.4053 38.8149 39.8153C39.0977 40.2253 39.4897 40.548 39.9464 40.7467C41.3682 41.2829 42.8809 41.5365 44.3997 41.4933C49.7331 41.8667 53.2797 42.8 53.7597 38.8267C54.0564 38.8449 54.3509 38.8896 54.6397 38.96C54.8531 38.96 56.5864 38.8 58.3997 45.9733C50.2204 45.5889 42.0245 45.7493 33.8664 46.4533ZM48.3731 48.24C48.1324 49.7482 48.0076 51.2727 47.9997 52.8C44.7997 52.56 43.9997 52.8 41.1997 52.6667L40.7197 51.0133C39.4131 48.08 39.5731 48.5867 39.5197 48.3467C43.1197 48.2133 45.1464 48.16 48.3731 48.24ZM59.2264 52.3733C58.7464 54.16 58.4531 56 57.9997 57.7067C56.7197 62.56 57.9997 60.1333 52.6664 60.64C46.7725 61.1978 40.8528 61.4382 34.9331 61.36L32.7731 54.6933C34.6869 54.7695 36.5934 54.9744 38.4797 55.3067C38.8778 56.9588 39.4407 58.5669 40.1597 60.1067C41.7064 61.52 41.5731 55.84 41.5464 55.6267C43.7047 55.7473 45.8681 55.7473 48.0264 55.6267C48.1864 57.0933 48.2397 60.24 49.6531 59.7867C51.0664 59.3333 50.3731 59.0933 50.7731 55.6C52.6283 55.7269 54.4919 55.5559 56.2931 55.0933C56.5335 55.0933 56.7642 54.9978 56.9342 54.8278C57.1042 54.6577 57.1997 54.4271 57.1997 54.1867C57.1997 53.9462 57.1042 53.7156 56.9342 53.5456C56.7642 53.3755 56.5335 53.28 56.2931 53.28C54.5245 53.6109 52.7053 53.5564 50.9597 53.12C50.9597 51.6 50.7731 52.7467 50.5864 48.32C53.733 48.4973 56.8669 48.8534 59.9731 49.3867C59.8022 50.4001 59.5526 51.3987 59.2264 52.3733Z" fill="#000209"/>
<path fill-rule="evenodd" clip-rule="evenodd" d="M15.2797 42.4801C17.0664 42.4801 16.8531 37.8401 15.4397 37.8401C13.0131 37.8668 13.9197 42.4801 15.2797 42.4801Z" fill="#000209"/>
<path fill-rule="evenodd" clip-rule="evenodd" d="M21.7064 32.6935C21.9731 33.2802 22.5331 38.9068 22.9064 42.9335C23.2797 46.9602 24.7197 46.4535 25.1464 42.9335C25.1464 40.5068 25.3331 37.8935 25.3331 37.7602C25.4334 35.4689 25.0612 33.1815 24.2397 31.0402C23.9758 30.6068 23.571 30.2773 23.0931 30.1068C19.1344 29.6863 15.1486 29.5793 11.1731 29.7868C10.4797 29.9735 9.99974 30.7468 10.7464 31.3868C10.9597 31.5735 20.8264 32.7468 21.7064 32.6935Z" fill="#000209"/>
<path fill-rule="evenodd" clip-rule="evenodd" d="M9.09323 42.9334C9.94657 44.9334 10.8532 44.8267 11.7599 42.9334C11.7599 41.7067 11.7599 40.5601 11.9199 40.2667V37.6001C11.1466 32.2667 11.4132 32.72 10.7999 32.4267C10.6865 32.3809 10.564 32.3616 10.442 32.3705C10.3199 32.3794 10.2015 32.4162 10.0959 32.478C9.99033 32.5398 9.90031 32.625 9.83281 32.7271C9.76531 32.8292 9.72212 32.9453 9.70657 33.0667C9.2324 35.7071 8.99147 38.3841 8.98657 41.0667C8.8799 41.4667 8.98657 42.1867 9.09323 42.9334Z" fill="#000209"/>
<path fill-rule="evenodd" clip-rule="evenodd" d="M26.0266 47.1468C24.3733 47.1468 8.31998 46.2668 5.43998 46.0002C4.95191 45.9601 4.46138 45.9601 3.97331 46.0002C3.49331 26.0802 3.41331 42.9335 3.35998 22.7202C3.35998 22.508 3.27569 22.3045 3.12566 22.1545C2.97563 22.0045 2.77215 21.9202 2.55998 21.9202C2.3478 21.9202 2.14432 22.0045 1.99429 22.1545C1.84426 22.3045 1.75998 22.508 1.75998 22.7202C1.08457 30.6305 0.942031 38.5773 1.33331 46.5068C1.49331 47.8668 1.91998 48.6135 3.22664 48.8268C10.8186 49.2847 18.4299 49.3292 26.0266 48.9602C26.2671 48.9602 26.4977 48.8646 26.6678 48.6946C26.8378 48.5246 26.9333 48.294 26.9333 48.0535C26.9333 47.813 26.8378 47.5824 26.6678 47.4124C26.4977 47.2424 26.2671 47.1468 26.0266 47.1468Z" fill="#000209"/>
</g>
<defs>
<clipPath id="clip0_1703_794">
<rect width="64" height="64" fill="white"/>
</clipPath>
</defs>
</svg>
