<svg width="64" height="64" viewBox="0 0 64 64" fill="none" xmlns="http://www.w3.org/2000/svg">
<g clip-path="url(#clip0_1701_744)">
<path d="M60.4535 41.44C59.5568 37.5842 57.8777 33.9536 55.5202 30.7734C55.4049 30.6161 55.236 30.5063 55.0455 30.4648C54.8549 30.4232 54.6557 30.4527 54.4854 30.5477C54.315 30.6427 54.1853 30.7967 54.1205 30.9806C54.0557 31.1646 54.0603 31.3659 54.1335 31.5467C55.2002 34.0534 55.6802 36.5334 57.4669 41.68C59.8935 48.64 59.8402 44.6667 54.2135 43.7334C40.0362 42.3301 25.772 42.018 11.5469 42.8C8.80669 43.2134 6.22792 44.3555 4.0802 46.1067C5.06687 43.84 9.54687 35.12 10.3735 33.5467C11.3399 31.3092 12.7559 29.2942 14.5335 27.6267C16.2669 26.5867 17.8135 26.48 17.4669 25.3334C17.1202 24.1867 15.9202 24.8267 14.8002 25.2C8.26687 27.52 3.2802 40.32 1.7602 47.0667C0.773533 51.36 -0.693133 52.6667 0.2402 57.36C0.80765 58.9687 1.87446 60.3539 3.28489 61.3134C4.69532 62.2729 6.37552 62.7564 8.0802 62.6934C8.0802 62.9867 48.2402 64.9867 56.3202 62.6934C57.7904 62.3064 59.1745 61.646 60.4002 60.7467C61.6966 59.7119 62.8216 58.479 63.7335 57.0934C64.9869 54.32 60.6135 42.0534 60.4535 41.44ZM59.9202 56.7734C58.9086 58.3123 57.3419 59.4014 55.5469 59.8134C48.5069 62.0534 15.5469 61.1734 8.18687 60.9067C6.88801 60.9499 5.60698 60.595 4.51551 59.8896C3.42404 59.1842 2.5743 58.162 2.0802 56.96C0.933533 50.32 5.46687 45.7867 11.8402 45.04C25.8151 44.7502 39.7949 45.2845 53.7069 46.64C54.8337 46.794 55.9123 47.1964 56.8647 47.8181C57.8171 48.4398 58.6196 49.2652 59.2141 50.2348C59.8086 51.2044 60.1803 52.2939 60.3024 53.4247C60.4245 54.5554 60.294 55.6992 59.9202 56.7734Z" fill="#000209"/>
<path d="M12.8 49.1733C11.2533 49.1733 11.1466 53.2533 11.7866 55.6267C11.764 55.7569 11.7702 55.8905 11.8047 56.0181C11.8392 56.1457 11.9011 56.2642 11.9862 56.3654C12.0713 56.4665 12.1775 56.5478 12.2974 56.6036C12.4172 56.6594 12.5478 56.6883 12.68 56.6883C12.8121 56.6883 12.9427 56.6594 13.0626 56.6036C13.1824 56.5478 13.2886 56.4665 13.3737 56.3654C13.4588 56.2642 13.5208 56.1457 13.5552 56.0181C13.5897 55.8905 13.5959 55.7569 13.5733 55.6267C14.6933 51.3867 13.3333 49.2 12.8 49.1733Z" fill="#000209"/>
<path d="M17.3869 48.56C17.2831 48.5564 17.1796 48.5738 17.0827 48.6111C16.9858 48.6483 16.8974 48.7047 16.8227 48.7769C16.748 48.8491 16.6887 48.9355 16.6482 49.0311C16.6076 49.1267 16.5868 49.2295 16.5868 49.3334C15.8668 51.3334 15.3335 55.7067 17.0935 55.7067C18.8535 55.7067 19.5735 48.5867 17.3869 48.56Z" fill="#000209"/>
<path d="M22.8803 49.8666C22.8803 49.6615 22.7988 49.4648 22.6538 49.3198C22.5088 49.1747 22.3121 49.0933 22.107 49.0933C20.667 49.0933 20.6136 52.7199 21.2536 54.8799C21.2311 55.0102 21.2372 55.1438 21.2717 55.2714C21.3062 55.399 21.3681 55.5175 21.4532 55.6186C21.5384 55.7198 21.6445 55.8011 21.7644 55.8568C21.8842 55.9126 22.0148 55.9415 22.147 55.9415C22.2792 55.9415 22.4097 55.9126 22.5296 55.8568C22.6494 55.8011 22.7556 55.7198 22.8407 55.6186C22.9258 55.5175 22.9878 55.399 23.0222 55.2714C23.0567 55.1438 23.0629 55.0102 23.0403 54.8799C24.0003 51.7333 23.7336 52.1599 22.8803 49.8666Z" fill="#000209"/>
<path d="M32.0003 52.3733C31.7898 52.4098 31.599 52.5195 31.4615 52.6829C31.3239 52.8463 31.2485 53.0531 31.2485 53.2667C31.2485 53.4803 31.3239 53.687 31.4615 53.8505C31.599 54.0139 31.7898 54.1235 32.0003 54.16C36.4536 54.5333 35.6269 55.4133 41.3603 54.16C41.5678 54.1531 41.7645 54.0658 41.9088 53.9165C42.0531 53.7672 42.1337 53.5676 42.1336 53.36C42.2136 51.68 35.2803 51.6267 32.0003 52.3733Z" fill="#000209"/>
<path d="M47.1735 50.2399C46.4101 50.5152 45.7562 51.0301 45.3096 51.7077C44.8629 52.3853 44.6475 53.1893 44.6956 53.9994C44.7436 54.8095 45.0524 55.5824 45.5759 56.2025C46.0994 56.8226 46.8096 57.2567 47.6002 57.4399C48.9218 57.8437 50.3414 57.7873 51.6268 57.2799C56.4802 55.1199 51.3602 48.4266 47.1735 50.2399ZM51.5202 54.6666C51.5202 54.9066 51.1202 54.9332 50.8268 55.0132C48.6135 55.5732 46.0535 53.2532 48.8535 52.1332C50.8802 51.3332 51.9202 53.7866 51.5202 54.6666Z" fill="#000209"/>
<path d="M27.3603 25.2C29.307 26.08 30.187 25.2 29.787 24.4C29.787 24.2133 26.6403 23.6266 25.6803 22.1066C23.2003 18.08 24.267 15.36 26.9603 14.1066C28.0731 13.579 29.3279 13.4292 30.5336 13.68C31.067 13.8933 31.4936 14.48 32.3203 14.1066C32.5038 14.0268 32.6611 13.8969 32.7743 13.7318C32.8875 13.5668 32.9519 13.3732 32.9603 13.1733C32.9603 12.3733 32.4803 12.48 32.4003 11.6533C32.2375 10.6582 32.3722 9.63717 32.7874 8.7183C33.2026 7.79943 33.8799 7.02362 34.7344 6.48818C35.5888 5.95274 36.5823 5.68152 37.5902 5.70852C38.5982 5.73552 39.5758 6.05955 40.4003 6.63997C40.842 7.1108 41.1704 7.67629 41.3603 8.2933C41.4742 8.56382 41.6681 8.79308 41.9159 8.95036C42.1637 9.10764 42.4537 9.18543 42.747 9.1733C43.8403 9.1733 44.027 8.3733 44.7203 6.66663C47.2536 1.3333 54.827 3.1733 56.6136 7.62663C57.7603 10.48 56.2403 12.24 54.6136 14.4266C52.9603 15.3066 54.6136 17.7333 56.0803 17.0933C56.5398 16.9903 57.0165 16.9909 57.4757 17.095C57.935 17.1991 58.3653 17.4042 58.7355 17.6952C59.1056 17.9862 59.4064 18.356 59.616 18.7777C59.8255 19.1994 59.9386 19.6625 59.947 20.1333C60.0206 20.6545 59.9384 21.1858 59.7106 21.6604C59.4828 22.1349 59.1197 22.5314 58.667 22.8C52.507 26.6666 48.0003 25.36 39.467 25.0666C37.2196 25.0883 34.9788 24.8194 32.8003 24.2666C32.5971 24.1957 32.3753 24.1994 32.1745 24.277C31.9737 24.3546 31.8071 24.5012 31.7045 24.6904C31.6019 24.8796 31.5699 25.0991 31.6144 25.3098C31.6588 25.5204 31.7767 25.7083 31.947 25.84C34.3427 26.6115 36.8434 27.0073 39.3603 27.0133C47.9203 27.5733 53.0403 29.1466 60.187 24.6933C64.6936 22.0266 62.7203 15.4933 58.507 14.0266C59.1202 13.2326 59.573 12.3269 59.8403 11.36C61.9203 1.5733 48.0003 -4.00003 42.667 4.58663C41.4977 3.59326 40.0569 2.97425 38.5315 2.80993C37.006 2.6456 35.4664 2.94355 34.1124 3.66511C32.7584 4.38666 31.6526 5.49851 30.9383 6.85638C30.2241 8.21425 29.9344 9.75544 30.107 11.28C24.4536 11.12 19.707 16.1866 24.2403 23.04C25.1281 23.9582 26.1883 24.6922 27.3603 25.2Z" fill="#000209"/>
</g>
<defs>
<clipPath id="clip0_1701_744">
<rect width="64" height="64" fill="white"/>
</clipPath>
</defs>
</svg>
