<svg width="24" height="24" viewBox="0 0 24 24" fill="none" xmlns="http://www.w3.org/2000/svg">
<g clip-path="url(#clip0_1048_7169)">
<path fill-rule="evenodd" clip-rule="evenodd" d="M23 20.23C22.931 20.1716 22.8417 20.1431 22.7517 20.1506C22.6617 20.1581 22.5783 20.201 22.52 20.27C22.4616 20.3389 22.4331 20.4283 22.4406 20.5183C22.4481 20.6083 22.491 20.6916 22.56 20.75C22.7144 20.8968 22.834 21.0762 22.9101 21.2752C22.9862 21.4742 23.0169 21.6876 23 21.9C22.92 22.48 22.11 23.38 21.44 23.1C20.44 22.67 12.74 14.95 12.69 14.85C12.551 14.2675 12.5105 13.6659 12.57 13.07C13.12 13.07 14.07 13.22 14.51 13.26C14.51 13.37 13.69 12.26 21.84 20.03C22.18 20.48 22.6 20.03 22.34 19.72C22 19.23 17.09 14.2 15.8 13C15.42 12.64 15.08 12.29 14.8 12.27C13.93 12.27 12.3 11.76 11.86 12.13C11.25 12.64 11.48 14.89 11.7 15.36C11.92 15.83 19.81 23.36 21.17 23.91C21.4141 24.0041 21.6776 24.0369 21.9374 24.0055C22.1972 23.9741 22.4453 23.8795 22.66 23.73C22.9488 23.5298 23.1942 23.2734 23.3815 22.9762C23.5688 22.6789 23.6941 22.3469 23.75 22C23.7717 21.6669 23.7152 21.3334 23.5849 21.026C23.4547 20.7187 23.2544 20.4461 23 20.23Z" fill="black"/>
<path fill-rule="evenodd" clip-rule="evenodd" d="M23.94 10.53C23.87 5.46 24.12 2.53 23.28 1.7C22.05 0.449997 20 0.429997 18.92 0.259997C14.56 -0.410003 10.18 0.539997 5.92002 0.619997C5.82984 0.619997 5.74336 0.655818 5.6796 0.71958C5.61584 0.783343 5.58002 0.869823 5.58002 0.959997C5.58002 1.05017 5.61584 1.13665 5.6796 1.20041C5.74336 1.26418 5.82984 1.3 5.92002 1.3C6.80002 1.3 7.69002 1.3 8.58002 1.25C8.20502 2.22706 8.07456 3.28099 8.20002 4.32C8.20699 4.42655 8.20699 4.53344 8.20002 4.64C7.05002 4.7 2.00002 5 1.16002 5.21C1.41002 3.34 2.16002 1.14 4.05002 1.42C4.08876 1.42722 4.12854 1.42674 4.16709 1.41859C4.20565 1.41044 4.24222 1.39477 4.27472 1.37248C4.30722 1.3502 4.33501 1.32173 4.35651 1.2887C4.37801 1.25567 4.39279 1.21874 4.40002 1.18C4.40724 1.14126 4.40676 1.10147 4.39861 1.06292C4.39046 1.02436 4.37479 0.987792 4.3525 0.955291C4.33022 0.922791 4.30175 0.894998 4.26872 0.8735C4.23569 0.852002 4.19876 0.837219 4.16002 0.829997C1.48002 0.319997 0.320016 3.69 0.150016 6.61C0.140016 6.72 1.57373e-05 12.85 1.57373e-05 13C-0.00515347 13.7384 0.0349216 14.4765 0.120016 15.21C0.380016 17.27 -0.429984 19.81 3.69002 20.44C6.92922 20.6449 10.1767 20.6849 13.42 20.56C14.14 20.56 14.79 20.64 14.83 20.22C14.8385 20.1695 14.8348 20.1178 14.8191 20.069C14.8034 20.0203 14.7763 19.9761 14.74 19.94C14.6 19.8 14.59 19.85 13.42 19.85C-0.459984 19.69 1.74002 19 1.26002 15C1.12429 13.2435 1.08423 11.4809 1.14002 9.72C1.14002 8.25 1.00002 7.19 1.14002 5.8C1.40002 5.8 0.620016 5.8 2.82002 5.71C7.04002 5.61 20.7 5.85 22.82 5.43C22.91 12.24 23.72 15.92 22.67 17.78C22.6289 17.849 22.6169 17.9314 22.6366 18.0092C22.6563 18.0871 22.7061 18.1539 22.775 18.195C22.844 18.2361 22.9264 18.2481 23.0043 18.2284C23.0821 18.2088 23.1489 18.159 23.19 18.09C23.6383 17.1185 23.893 16.0689 23.94 15C24.044 13.5118 24.044 12.0182 23.94 10.53ZM9.13002 4.6C9.13002 4.1 9.51002 1.6 9.13002 1.23C11.6114 1.02989 14.1028 0.983136 16.59 1.09C16.2804 2.244 16.2191 3.45054 16.41 4.63C14 4.49 11.52 4.51 9.13002 4.6ZM22.78 4.77C20.9337 4.87186 19.0826 4.84513 17.24 4.69C17.49 3.52323 17.49 2.31676 17.24 1.15C17.7267 1.20333 18.2167 1.27333 18.71 1.36C20.37 1.65 21.08 1.51 22.31 2.36C22.38 2.41 22.46 2.45 22.48 2.52C22.6573 3.25764 22.7579 4.01166 22.78 4.77Z" fill="black"/>
<path fill-rule="evenodd" clip-rule="evenodd" d="M3.59999 9.42C3.85999 8.63 6.09999 9 6.99999 8.88C10.31 8.55 13.49 9 16.85 8.57C17.7816 8.47198 18.7228 8.51921 19.64 8.71C19.8973 8.73495 20.148 8.80608 20.38 8.92C20.72 9.25 20.77 10.43 20.77 10.92C20.8518 12.4865 20.8284 14.0567 20.7 15.62C20.69 15.6651 20.6893 15.7118 20.698 15.7572C20.7067 15.8026 20.7245 15.8458 20.7504 15.8841C20.7763 15.9224 20.8098 15.9549 20.8487 15.9799C20.8877 16.0048 20.9313 16.0215 20.9769 16.029C21.0225 16.0365 21.0692 16.0346 21.114 16.0234C21.1589 16.0123 21.201 15.9921 21.2378 15.9641C21.2746 15.9361 21.3053 15.9009 21.328 15.8607C21.3507 15.8204 21.365 15.776 21.37 15.73C21.5449 14.133 21.6151 12.5262 21.58 10.92C21.58 8.16 20.86 8.06 19.82 7.83C18.812 7.59094 17.7729 7.50997 16.74 7.59C13.67 7.9 10.13 7.47 6.88999 7.74C5.73999 7.85 3.13999 7.35 2.57999 9.08C2.01999 10.81 2.33999 12.93 2.37999 14.84C2.37999 16.04 2.37999 17.09 3.37999 17.75C4.09999 18.22 10.38 17.67 10.97 17.86C11.0074 17.8725 11.0469 17.8775 11.0863 17.8747C11.1256 17.8719 11.1641 17.8613 11.1993 17.8437C11.2346 17.8261 11.2661 17.8016 11.2919 17.7718C11.3178 17.742 11.3375 17.7074 11.35 17.67C11.3625 17.6326 11.3674 17.5931 11.3647 17.5537C11.3619 17.5143 11.3513 17.4759 11.3337 17.4406C11.316 17.4054 11.2916 17.3739 11.2618 17.348C11.232 17.3222 11.1974 17.3025 11.16 17.29C10.78 17.16 4.15999 17.24 3.85999 17.04C3.17999 16.57 3.29999 15.69 3.31999 14.84C3.31999 13 3.05999 11 3.59999 9.42Z" fill="black"/>
</g>
<defs>
<clipPath id="clip0_1048_7169">
<rect width="24" height="24" fill="white"/>
</clipPath>
</defs>
</svg>
