<svg width="24" height="24" viewBox="0 0 24 24" fill="none" xmlns="http://www.w3.org/2000/svg">
<g clip-path="url(#clip0_1046_5590)">
<path fill-rule="evenodd" clip-rule="evenodd" d="M24 13.19C23.9666 12.2519 23.8528 11.3185 23.66 10.4C23.611 10.0762 23.4685 9.7738 23.25 9.52995C23.0293 9.36707 22.7774 9.25133 22.51 9.18995C22 9.06995 21.45 8.99995 21 8.99995C20.7393 8.99706 20.4853 8.91703 20.27 8.76995C20.1609 8.56373 20.1058 8.33322 20.11 8.09995C20.0837 7.58729 19.993 7.07997 19.84 6.58995C19.7549 6.33504 19.5945 6.11191 19.38 5.94995C19.3052 5.89842 19.2134 5.87796 19.1238 5.89289C19.0343 5.90781 18.954 5.95696 18.9 6.02995C18.849 6.10313 18.8289 6.19341 18.8438 6.28132C18.8588 6.36924 18.9077 6.44776 18.98 6.49995C19.1675 6.70138 19.2743 6.9648 19.28 7.23995C19.3189 7.80009 19.389 8.35762 19.49 8.90995C19.5315 9.06651 19.6105 9.21064 19.72 9.32995C19.9311 9.51853 20.1851 9.65244 20.46 9.71995C21.2166 9.79957 21.9596 9.97774 22.67 10.25C22.7395 10.3726 22.7805 10.5093 22.79 10.65C22.923 11.5003 22.9932 12.3593 23 13.22C23.0157 13.9819 22.9756 14.7439 22.88 15.5C22.8653 15.7394 22.8042 15.9738 22.7 16.19C22.4746 16.3664 22.1962 16.4616 21.91 16.46C21.4614 16.5124 21.017 16.5959 20.58 16.71C20.3163 16.7882 20.069 16.9136 19.85 17.08C19.5691 17.3063 19.3864 17.6322 19.34 17.99C19.2828 18.4444 19.2528 18.9019 19.25 19.36C19.25 19.64 19.25 19.92 19.03 20.04C17.9927 20.292 16.9273 20.4097 15.86 20.39C12.74 20.55 8.55 20.55 7.86 20.58C7.78044 20.58 7.70413 20.6116 7.64787 20.6678C7.59161 20.7241 7.56 20.8004 7.56 20.88C7.56 20.9595 7.59161 21.0358 7.64787 21.0921C7.70413 21.1483 7.78044 21.18 7.86 21.18C8.6 21.18 12.79 21.39 15.93 21.37C17.1314 21.4116 18.3327 21.2871 19.5 21C19.8155 20.8312 20.055 20.5488 20.17 20.21C20.3102 19.6544 20.3774 19.0829 20.37 18.51C20.37 18.28 20.37 18.07 20.49 17.97C20.7689 17.7975 21.0836 17.6914 21.41 17.66C21.864 17.6166 22.3128 17.5296 22.75 17.4C23.0517 17.305 23.3192 17.1243 23.52 16.88C23.7054 16.6189 23.8255 16.3171 23.87 16C24.0098 15.0702 24.0533 14.1286 24 13.19Z" fill="black"/>
<path fill-rule="evenodd" clip-rule="evenodd" d="M1.47 7.05996C1.70434 6.80493 2.0059 6.62123 2.34 6.52996C2.93398 6.37582 3.54653 6.30514 4.16 6.31996L8.66 5.99996C8.7002 6.00554 8.74112 6.0029 8.78028 5.9922C8.81943 5.98151 8.85601 5.96298 8.8878 5.93774C8.91958 5.9125 8.94592 5.88107 8.9652 5.84535C8.98449 5.80964 8.99633 5.77038 9 5.72996C9.00004 5.64945 8.96876 5.57207 8.91277 5.51422C8.85678 5.45636 8.78047 5.42256 8.7 5.41996H4.21C3.50842 5.35204 2.80064 5.38911 2.11 5.52996C1.58356 5.64527 1.1012 5.90901 0.72 6.28996C0.407685 6.63495 0.199633 7.06146 0.12 7.51996C0.0194227 8.10092 -0.0207913 8.69072 -1.40164e-07 9.27996L0.0999999 14.64C-0.0300288 16.2323 0.0676202 17.8351 0.39 19.4C0.475621 19.7868 0.656868 20.146 0.917163 20.4448C1.17746 20.7435 1.5085 20.9722 1.88 21.11C1.9662 21.1365 2.0594 21.1277 2.1391 21.0855C2.2188 21.0433 2.27848 20.9712 2.305 20.885C2.33152 20.7988 2.32272 20.7056 2.28052 20.6259C2.23832 20.5462 2.1662 20.4865 2.08 20.46C1.39 20.23 1.14 19.46 1.02 18.58C0.922479 17.2666 0.955977 15.9467 1.12 14.64C1.12 13.55 1.12 12.49 1.18 11.42V9.24996C1.13081 8.75451 1.13081 8.25541 1.18 7.75996C1.20618 7.5033 1.307 7.25994 1.47 7.05996Z" fill="black"/>
<path fill-rule="evenodd" clip-rule="evenodd" d="M12.2 17.23C13.7459 16.7608 15.1308 15.871 16.2 14.66C16.8725 13.8416 17.3878 12.9058 17.72 11.9C18.0489 10.9008 18.1979 9.8512 18.16 8.79998C18.1165 7.21085 17.6051 5.66988 16.69 4.36998C16.0513 3.4666 15.0869 2.84638 14 2.63998C13.954 2.62362 13.9049 2.61738 13.8563 2.62168C13.8076 2.62598 13.7604 2.64071 13.718 2.66488C13.6755 2.68905 13.6388 2.72208 13.6102 2.76173C13.5817 2.80138 13.562 2.84672 13.5526 2.89465C13.5432 2.94259 13.5442 2.99199 13.5555 3.03951C13.5669 3.08702 13.5884 3.13152 13.6185 3.16999C13.6486 3.20845 13.6867 3.23997 13.7301 3.2624C13.7735 3.28483 13.8212 3.29765 13.87 3.29998C14.4262 3.44056 14.9442 3.70272 15.3869 4.06758C15.8295 4.43243 16.1858 4.8909 16.43 5.40998C16.9735 6.4646 17.2581 7.63352 17.26 8.81998C17.2591 9.76066 17.0967 10.6942 16.78 11.58C16.4639 12.4588 15.9894 13.2723 15.38 13.98C14.4367 15.0085 13.2297 15.759 11.89 16.15C10.5918 16.583 9.18817 16.583 7.89 16.15C7.74668 16.1098 7.60634 16.0597 7.47 16C8.1 15.47 8.75 15 9.41 14.47C10.07 13.94 10.75 13.4 11.41 12.83L11.98 12.26L12.1 12.13C12.433 12.1499 12.767 12.1499 13.1 12.13C13.43 12.13 13.75 12.02 14.1 12.01C14.1911 12.01 14.2787 11.9745 14.344 11.911C14.4094 11.8475 14.4474 11.7611 14.45 11.67C14.45 11.5815 14.4156 11.4965 14.354 11.433C14.2924 11.3695 14.2084 11.3326 14.12 11.33C13.84 11.2764 13.555 11.253 13.27 11.26C13.095 11.2794 12.9213 11.3095 12.75 11.35C13.1392 10.8753 13.5566 10.4245 14 9.99998C14.055 9.9439 14.0858 9.8685 14.0858 9.78998C14.0858 9.71145 14.055 9.63605 14 9.57998C13.9729 9.55154 13.9403 9.52889 13.9042 9.51342C13.8681 9.49795 13.8293 9.48998 13.79 9.48998C13.7507 9.48998 13.7119 9.49795 13.6758 9.51342C13.6397 9.52889 13.6071 9.55154 13.58 9.57998C12.88 10.15 12.29 10.82 11.58 11.44C11.3172 11.6893 11.0401 11.923 10.75 12.14C10.27 12.51 9.75 12.84 9.3 13.14C9.30996 13.0102 9.30996 12.8798 9.3 12.75C9.24721 12.5468 9.18379 12.3465 9.11 12.15C9.10401 12.1054 9.08899 12.0626 9.06584 12.024C9.04269 11.9855 9.01192 11.9521 8.9754 11.9259C8.93888 11.8996 8.89739 11.8812 8.85347 11.8715C8.80955 11.8619 8.76413 11.8614 8.72 11.87C8.63122 11.8847 8.55189 11.934 8.4994 12.0071C8.44691 12.0802 8.42555 12.1711 8.44 12.26C8.42042 12.5229 8.42042 12.787 8.44 13.05C8.4791 13.2472 8.54294 13.4387 8.63 13.62C8.14 13.97 7.63 14.33 7.19 14.72C6.94 14.92 6.72 15.15 6.48 15.37C6.15319 14.9754 5.93286 14.5038 5.84 14C5.73726 13.4635 5.74549 12.9117 5.86416 12.3786C5.98282 11.8454 6.20943 11.3422 6.53 10.9C6.96487 10.2843 7.48701 9.73525 8.08 9.26998C9.01003 8.57246 9.98553 7.93772 11 7.36998C11.43 7.10998 11.93 6.84998 12.38 6.54998C12.7093 6.3495 13.006 6.09996 13.26 5.80998C13.5316 5.47566 13.6985 5.06869 13.74 4.63998C13.8137 4.04152 13.7275 3.43422 13.49 2.87998C13.4758 2.84315 13.4543 2.80961 13.4266 2.78141C13.399 2.75321 13.366 2.73094 13.3295 2.71596C13.293 2.70098 13.2538 2.69361 13.2143 2.6943C13.1749 2.69499 13.136 2.70373 13.1 2.71998C13.0632 2.73417 13.0296 2.75572 13.0014 2.78333C12.9732 2.81093 12.951 2.844 12.936 2.88051C12.921 2.91702 12.9136 2.9562 12.9143 2.99566C12.915 3.03511 12.9238 3.07401 12.94 3.10998C13.0871 3.49215 13.1518 3.90106 13.13 4.30998C13.126 4.69292 12.992 5.06314 12.75 5.35998C12.5292 5.6053 12.277 5.82049 12 5.99998C11.54 6.27998 11 6.50998 10.61 6.73998C9.54682 7.2789 8.51817 7.8834 7.53 8.54998C6.84995 9.03711 6.24371 9.61977 5.73 10.28C5.30582 10.8273 4.99826 11.4557 4.82627 12.1265C4.65429 12.7972 4.62152 13.4961 4.73 14.18C4.86209 14.9296 5.20956 15.6245 5.73 16.18C5.53 16.41 5.31 16.64 5.12 16.89C4.6305 17.5252 4.25184 18.2386 4 19C3.81509 19.5438 3.77714 20.1268 3.89 20.69C3.9092 20.7771 3.96191 20.8533 4.03674 20.9019C4.11158 20.9506 4.20254 20.9678 4.29 20.95C4.33407 20.9416 4.37604 20.9246 4.41351 20.8999C4.45097 20.8752 4.48318 20.8434 4.50827 20.8062C4.53337 20.769 4.55086 20.7272 4.55974 20.6832C4.56862 20.6393 4.56871 20.594 4.56 20.55C4.50514 20.1107 4.57082 19.6648 4.75 19.26C5.03207 18.61 5.42075 18.0118 5.9 17.49C6.11 17.26 6.34 17.04 6.56 16.82C6.84315 17.0015 7.14485 17.1524 7.46 17.27C9.00118 17.7797 10.6676 17.7657 12.2 17.23Z" fill="black"/>
</g>
<defs>
<clipPath id="clip0_1046_5590">
<rect width="24" height="24" fill="white"/>
</clipPath>
</defs>
</svg>
