<svg width="64" height="64" viewBox="0 0 64 64" fill="none" xmlns="http://www.w3.org/2000/svg">
<path fill-rule="evenodd" clip-rule="evenodd" d="M35.2265 40C35.4665 39.3334 35.6798 38.64 35.8665 37.9467C36.0532 37.2534 36.2398 35.8134 36.3732 34.7467C38.5051 34.9517 40.637 34.355 42.3528 33.0731C44.0686 31.7912 45.2453 29.916 45.6532 27.8134C46.301 25.7551 46.3955 23.5626 45.9274 21.4561C45.4594 19.3497 44.4451 17.4036 42.9865 15.8134C42.1065 14.9334 40.6665 14.9067 39.3332 16.48C38.3177 17.885 37.4255 19.3749 36.6665 20.9334C35.6515 20.5548 34.6626 20.1094 33.7065 19.6C33.8981 19.2009 34.0672 18.7914 34.2132 18.3734C34.8532 16.6134 35.7332 14.6934 35.8932 14C35.9461 13.4856 35.8103 12.9693 35.5111 12.5475C35.2119 12.1256 34.7696 11.8268 34.2665 11.7067C32.3418 11.2249 30.3131 11.3744 28.4798 12.1334C27.0818 12.7521 25.8255 13.6512 24.7889 14.775C23.7523 15.8988 22.9573 17.2233 22.4532 18.6667C21.7545 20.1185 21.3609 21.6981 21.2967 23.308C21.2325 24.9179 21.499 26.5239 22.0798 28.0267C22.8603 29.6714 24.2455 30.9515 25.9465 31.6C25.0132 33.3334 24.0265 35.0134 23.2798 36.9334C22.7198 38.2134 22.2665 39.6 21.8132 40.9067C21.3598 42.2134 21.2532 42.7734 20.7465 44.2934C20.2398 45.8134 22.6132 46.0534 23.4132 44.9334C24.2132 43.8134 24.2398 43.4934 24.7998 42.2667C25.3598 41.04 25.5465 40.6134 25.8665 39.7867C26.2155 38.9172 26.5094 38.0265 26.7465 37.12C27.3332 35.12 27.7065 33.0934 28.2398 31.04C28.7732 28.9867 24.5865 31.04 23.7332 25.9467C23.4645 23.8038 23.8749 21.6307 24.9065 19.7334C25.4437 18.2831 26.4106 17.0312 27.6781 16.1449C28.9456 15.2587 30.4533 14.7802 31.9998 14.7734C31.3951 16.0339 30.8784 17.3348 30.4532 18.6667C30.2304 19.4693 30.2304 20.3174 30.4532 21.12C30.6173 21.5963 30.9621 21.989 31.4132 22.2134C31.9243 22.4974 32.4494 22.7555 32.9865 22.9867C34.4561 23.7391 36.0433 24.2351 37.6798 24.4534C38.0805 24.3725 38.4573 24.2006 38.781 23.9509C39.1046 23.7012 39.3666 23.3804 39.5465 23.0134C39.9465 22.2667 40.5865 20.88 41.2532 19.7067C41.4031 19.4482 41.592 19.2143 41.8132 19.0134C42.6181 20.163 43.1597 21.4759 43.3994 22.8586C43.639 24.2414 43.5709 25.66 43.1998 27.0134C41.0132 35.76 35.5465 30.4534 34.9865 32.3467C34.4265 34.24 33.4398 35.2534 32.7465 36.8C32.4532 37.44 32.2132 38.1067 31.9732 38.7734C31.7332 39.44 31.5465 40.1067 31.3598 40.8C30.9598 42.2934 30.8798 42.8 30.5065 44.2667C30.3198 45.2267 32.7465 45.44 33.1732 44.4C33.5998 43.36 33.9732 42.96 34.4532 41.92C34.6665 41.3067 34.9865 40.64 35.2265 40Z" fill="#000209"/>
<path fill-rule="evenodd" clip-rule="evenodd" d="M59.6799 14.8267C55.5109 9.0715 49.6026 4.80857 42.8266 2.66668C36.1239 0.326512 28.8806 0.0111832 21.9999 1.76001C15.5809 3.68417 9.91047 7.53896 5.75991 12.8C3.58963 15.3808 1.9804 18.3852 1.03464 21.6219C0.0888844 24.8586 -0.172689 28.2567 0.266571 31.6C0.945135 35.1116 2.5338 38.3834 4.87368 41.0883C7.21355 43.7932 10.2226 45.8363 13.5999 47.0133C19.4597 49.3484 25.924 49.695 31.9999 48C32.3898 49.7335 32.8795 51.443 33.4666 53.12C34.1066 54.96 34.7999 56.8267 35.4932 58.6133C35.9732 59.8133 36.4799 60.96 36.8799 62.1067C36.957 62.3642 37.0937 62.5998 37.2791 62.7945C37.4644 62.9891 37.6931 63.1372 37.9466 63.2267C38.1566 63.3192 38.3837 63.3671 38.6132 63.3671C38.8428 63.3671 39.0698 63.3192 39.2799 63.2267C39.63 63.0914 39.9349 62.8604 40.1599 62.56C40.3732 62.2933 40.6399 61.6 40.8532 61.3067L43.0666 57.6267L48.7199 47.28C48.8342 47.434 48.991 47.5513 49.171 47.6176C49.3509 47.6839 49.5463 47.6963 49.7332 47.6534C53.0178 46.8213 56.0139 45.111 58.4004 42.7057C60.7869 40.3004 62.4737 37.291 63.2799 34C64.0709 30.7314 64.159 27.3321 63.5384 24.0268C62.9179 20.7216 61.6027 17.5858 59.6799 14.8267ZM60.8799 33.4934C60.2243 36.4044 58.7882 39.082 56.7257 41.2385C54.6632 43.3949 52.0523 44.9488 49.1732 45.7333C48.9329 45.8153 48.7265 45.9748 48.5866 46.1867C48.5866 46.1867 48.5866 45.9733 48.3732 45.92C48.2567 45.849 48.1269 45.8022 47.9918 45.7825C47.8567 45.7628 47.719 45.7707 47.587 45.8055C47.455 45.8404 47.3314 45.9016 47.2237 45.9854C47.1159 46.0692 47.0262 46.174 46.9599 46.2934L40.2666 56L38.9599 57.9467L38.6399 57.3067C37.3332 54.64 35.7599 51.9733 34.5599 49.3067C34.3199 48.7467 34.1332 48.16 33.9199 47.6C34.1446 47.5052 34.3248 47.3283 34.4238 47.1055C34.5229 46.8826 34.5334 46.6304 34.4532 46.4C34.3638 46.171 34.1876 45.9865 33.9629 45.8866C33.7382 45.7867 33.4832 45.7796 33.2532 45.8667H33.1199C32.2117 45.9282 31.3153 46.1075 30.4532 46.4L28.9866 46.8C26.7741 47.094 24.5324 47.094 22.3199 46.8C19.6758 46.3933 17.0771 45.7324 14.5599 44.8267C11.6331 43.7506 9.04183 41.9218 7.04737 39.5247C5.05292 37.1276 3.72581 34.247 3.1999 31.1733C2.9212 28.245 3.25112 25.2906 4.16894 22.4958C5.08676 19.7011 6.57264 17.1263 8.53324 14.9333C12.243 10.2944 17.2737 6.89096 22.9599 5.17335C29.168 3.57158 35.7073 3.80314 41.7866 5.84001C47.9415 7.66824 53.3571 11.4032 57.2532 16.5067C59.0209 18.907 60.2584 21.6556 60.8836 24.5702C61.5088 27.4849 61.5076 30.4992 60.8799 33.4133V33.4934Z" fill="#000209"/>
</svg>
