<svg width="64" height="64" viewBox="0 0 64 64" fill="none" xmlns="http://www.w3.org/2000/svg">
<path fill-rule="evenodd" clip-rule="evenodd" d="M11.2001 30.6932C11.2873 30.7917 11.3967 30.868 11.5192 30.9157C11.6418 30.9634 11.7739 30.9812 11.9048 30.9676C12.0356 30.954 12.1612 30.9093 12.2713 30.8374C12.3814 30.7655 12.4728 30.6683 12.5378 30.554C12.6028 30.4397 12.6396 30.3115 12.6451 30.1801C12.6506 30.0487 12.6247 29.9179 12.5695 29.7985C12.5144 29.6791 12.4315 29.5746 12.3278 29.4937C12.2241 29.4128 12.1027 29.3578 11.9735 29.3332C10.3445 28.2396 8.98581 26.7896 8.00012 25.0932C5.33345 21.4399 4.29345 18.1065 6.93345 14.4265C7.8596 13.2477 9.03085 12.2843 10.3661 11.6028C11.7014 10.9214 13.1688 10.5382 14.6668 10.4799C19.7601 9.89321 23.3868 10.8799 38.1601 12.9599C38.374 12.9821 38.5902 12.9596 38.7949 12.8935C38.9996 12.8275 39.1883 12.7196 39.3489 12.5765C39.5095 12.4335 39.6385 12.2585 39.7277 12.0628C39.8169 11.8671 39.8642 11.6549 39.8668 11.4399C39.8668 9.67988 40.4268 4.31988 41.9735 3.43988C42.8268 2.95988 43.1468 4.02655 44.6401 5.25321C46.1335 6.47988 48.2135 8.61321 50.2401 10.6665C55.5735 15.9999 54.9868 15.5199 54.7468 15.8399C51.3817 20.1842 47.2957 23.9185 42.6668 26.8799C42.2897 27.0921 41.8862 27.2535 41.4668 27.3599C41.4668 27.0932 41.2801 26.6932 41.2801 26.3999C41.4206 24.896 41.1145 23.384 40.4001 22.0532C39.9201 21.0932 38.2668 20.9865 36.4268 20.6132C32.5425 19.8759 28.5932 19.5363 24.6401 19.5999C21.6009 19.4003 18.5504 19.4538 15.5201 19.7599C11.6801 20.3999 10.8535 23.3065 12.3735 26.6665C12.4225 26.7804 12.4934 26.8834 12.5823 26.9698C12.6711 27.0562 12.7761 27.1242 12.8913 27.17C13.0064 27.2158 13.1295 27.2385 13.2534 27.2368C13.3773 27.235 13.4996 27.2089 13.6135 27.1599C13.7273 27.1109 13.8303 27.0399 13.9167 26.951C14.0031 26.8622 14.0711 26.7572 14.1169 26.6421C14.1627 26.5269 14.1854 26.4039 14.1837 26.28C14.1819 26.156 14.1558 26.0337 14.1068 25.9199C11.9468 20.8799 16.3201 21.3332 24.5068 21.8399C28.3337 21.8688 32.1482 22.2797 35.8935 23.0665C36.1068 23.0665 37.7868 24.0799 38.3468 23.8399C38.9068 25.3599 38.2135 27.8932 39.0135 29.1732C41.9201 33.5732 52.5068 23.1199 56.1068 19.0932C57.3601 17.6532 58.7735 16.4265 58.2401 15.0132C57.4668 13.0399 48.4268 4.47988 46.5335 2.82655C45.1201 1.57321 43.4935 -1.20012 40.2935 0.586549C37.6268 2.02655 36.9868 6.61321 36.7735 9.59988L29.3335 8.74655C20.8801 7.57321 9.76012 5.86655 5.01345 13.1199C2.00012 17.7065 3.04012 21.8665 6.42678 26.1865C7.64213 28.0426 9.27735 29.5865 11.2001 30.6932Z" fill="#000209"/>
<path fill-rule="evenodd" clip-rule="evenodd" d="M60.6403 46.1866C59.4178 41.7927 56.629 37.9983 52.8003 35.5199C52.6086 35.4593 52.4016 35.4682 52.2159 35.5453C52.0301 35.6223 51.8775 35.7625 51.7851 35.9411C51.6926 36.1197 51.6661 36.3252 51.7104 36.5213C51.7547 36.7175 51.8668 36.8917 52.027 37.0133C53.6924 38.0608 55.097 39.4744 56.1337 41.1466C58.8003 44.8533 59.8137 48.1599 57.2003 51.8133C56.2754 52.9934 55.1044 53.9578 53.7689 54.6394C52.4333 55.321 50.9653 55.7034 49.467 55.7599C44.3737 56.3466 40.6137 55.3599 26.0003 53.2799C25.7843 53.2537 25.5652 53.2733 25.3573 53.3375C25.1494 53.4016 24.9574 53.509 24.7938 53.6524C24.6302 53.7959 24.4988 53.9722 24.408 54.17C24.3172 54.3677 24.2691 54.5824 24.267 54.7999C24.107 57.1999 24.0803 59.8666 22.6137 60.8266C17.4289 59.194 12.8083 56.1352 9.28032 51.9999C8.48032 50.7999 8.45366 50.3999 9.28032 48.9066C12.7681 44.5069 16.9254 40.6825 21.6003 37.5733C22.1603 37.1999 22.907 36.9866 23.2537 36.7733C23.2537 39.4399 22.6137 42.1066 23.627 44.1599C24.1337 45.1199 25.707 45.1999 27.6003 45.5999C31.4847 46.3362 35.4339 46.6757 39.387 46.6133C42.4262 46.8132 45.4767 46.7597 48.507 46.4533C52.2937 45.8133 53.1737 42.9599 51.627 39.4399C51.528 39.2101 51.3417 39.029 51.1092 38.9365C50.8766 38.8439 50.6168 38.8476 50.387 38.9466C50.1571 39.0456 49.976 39.2319 49.8835 39.4644C49.791 39.697 49.7946 39.9568 49.8937 40.1866C52.0537 45.3333 47.6803 44.8266 39.4937 44.3733C35.6749 44.3562 31.8681 43.9451 28.1337 43.1466C27.9203 43.1466 26.3737 42.2399 25.7337 42.3466C25.2803 39.1199 27.707 33.3599 23.067 33.7066C20.6937 33.8666 5.65366 45.3333 5.62699 50.6666C5.60032 55.9999 20.6137 65.6266 24.0003 63.7599C26.667 62.2666 27.0403 59.6266 27.2537 56.5866L34.6137 57.4666C43.2003 58.6399 54.267 60.3466 59.0137 53.0933C60.4413 51.0938 61.0256 48.6131 60.6403 46.1866Z" fill="#000209"/>
</svg>
