<svg width="512" height="512" viewBox="0 0 512 512" fill="none" xmlns="http://www.w3.org/2000/svg">
<rect width="512" height="512" fill="#0B2EA0"/>
<path d="M298.8 309C301.2 301.4 304.1 294.9 307.5 289.5C310.9 283.9 314.9 279.3 319.5 275.7C324.3 271.9 329.8 269.1 336 267.3C342.4 265.5 349.9 264.6 358.5 264.6L343.8 222.6H390.3L457.5 414H411L396.3 371.4L321.9 371.7L306.9 414H260.7L298.8 309ZM384 336.9L359.4 266.7L334.5 336.9H384Z" fill="#EBEFFF"/>
<path d="M70.3 194.4C70.3 180.8 73.5 170.6 79.9 163.8C86.5 156.8 95.9 153.3 108.1 153.3V152.1H70.3V117.6H147.7C164.5 117.6 179 119.9 191.2 124.5C203.6 128.9 213.9 135.3 222.1 143.7C230.3 152.1 236.4 162.3 240.4 174.3C244.4 186.1 246.4 199.4 246.4 214.2C246.4 245.2 238.2 268.8 221.8 285C205.6 301 180.9 309 147.7 309H70.3V194.4ZM113.2 274.5H148C167.6 274.5 181.7 269.1 190.3 258.3C198.9 247.3 203.2 232.7 203.2 214.5C203.2 205.3 202.2 196.9 200.2 189.3C198.2 181.7 195 175.2 190.6 169.8C186.4 164.2 180.8 159.9 173.8 156.9C166.8 153.7 158.2 152.1 148 152.1H113.2V274.5Z" fill="#EBEFFF"/>
</svg>
