<svg width="512" height="512" viewBox="0 0 512 512" fill="none" xmlns="http://www.w3.org/2000/svg">
<rect width="512" height="512" fill="#0B2EA0"/>
<path d="M30.3 372.4C30.3 358.8 33.5 348.6 39.9 341.8C46.5 334.8 55.9 331.3 68.1 331.3V330.1H30.3V295.6H107.7C124.5 295.6 139 297.9 151.2 302.5C163.6 306.9 173.9 313.3 182.1 321.7C190.3 330.1 196.4 340.3 200.4 352.3C204.4 364.1 206.4 377.4 206.4 392.2C206.4 423.2 198.2 446.8 181.8 463C165.6 479 140.9 487 107.7 487H30.3V372.4ZM73.2 452.5H108C127.6 452.5 141.7 447.1 150.3 436.3C158.9 425.3 163.2 410.7 163.2 392.5C163.2 383.3 162.2 374.9 160.2 367.3C158.2 359.7 155 353.2 150.6 347.8C146.4 342.2 140.8 337.9 133.8 334.9C126.8 331.7 118.2 330.1 108 330.1H73.2V452.5ZM257.878 382C260.278 374.4 263.178 367.9 266.578 362.5C269.978 356.9 273.978 352.3 278.578 348.7C283.378 344.9 288.878 342.1 295.078 340.3C301.478 338.5 308.978 337.6 317.578 337.6L302.878 295.6H349.378L416.578 487H370.078L355.378 444.4L280.978 444.7L265.978 487H219.778L257.878 382ZM343.078 409.9L318.478 339.7L293.578 409.9H343.078ZM432.127 462.7C432.127 454.7 434.427 448.3 439.027 443.5C443.827 438.5 450.327 436 458.527 436C466.927 436 473.527 438.5 478.327 443.5C483.327 448.3 485.827 454.7 485.827 462.7C485.827 471.1 483.327 477.8 478.327 482.8C473.527 487.6 466.927 490 458.527 490C450.327 490 443.827 487.6 439.027 482.8C434.427 477.8 432.127 471.1 432.127 462.7Z" fill="#EBEFFF"/>
</svg>
