<svg width="75" height="75" viewBox="0 0 75 75" fill="none" xmlns="http://www.w3.org/2000/svg">
<path d="M2.51504 10.3182C3.19371 6.23952 6.40232 3.04539 10.4843 2.38698C30.637 -0.86359 44.3531 -0.737004 64.4907 2.4177C68.6077 3.06265 71.8554 6.27191 72.5327 10.3837C75.8798 30.7033 75.768 44.5264 72.5219 64.8056C71.8499 69.0041 68.5154 72.271 64.305 72.8642C44.3315 75.6782 30.6762 75.7409 10.6846 72.8777C6.50189 72.2787 3.1912 69.0326 2.51171 64.8622C-0.799216 44.5414 -0.876313 30.6995 2.51504 10.3182Z" fill="#002187"/>
<path fill-rule="evenodd" clip-rule="evenodd" d="M60.3539 64.0695C58.3016 65.2544 55.6773 64.5512 54.4924 62.4989L30.3563 20.6939C29.1714 18.6416 29.8745 16.0173 31.9268 14.8324C33.9791 13.6475 36.6034 14.3507 37.7883 16.403L61.9244 58.208C63.1093 60.2603 62.4061 62.8846 60.3539 64.0695Z" fill="#D5DFFF"/>
<path fill-rule="evenodd" clip-rule="evenodd" d="M14.4891 49.3471C12.4893 48.0756 11.899 45.4237 13.1705 43.4239L30.4513 16.2461C31.7229 14.2463 34.3748 13.656 36.3745 14.9275C38.3743 16.1991 38.9647 18.851 37.6931 20.8507L20.4123 48.0285C19.1408 50.0283 16.4889 50.6186 14.4891 49.3471Z" fill="#D5DFFF"/>
<path d="M39.4615 19.3188H28.4946L34.1872 10.355L39.4615 19.3188Z" fill="#D5DFFF"/>
<path d="M37.9392 33.8306H29.4092L33.8887 26.749L37.9392 33.8306Z" fill="#D5DFFF"/>
</svg>
