<svg width="64" height="64" viewBox="0 0 64 64" fill="none" xmlns="http://www.w3.org/2000/svg">
<g clip-path="url(#clip0_1705_841)">
<path fill-rule="evenodd" clip-rule="evenodd" d="M6.6935 7.22652C14.5369 7.75265 22.4092 7.67241 30.2402 6.98652C30.3556 7.00786 30.4743 7.00354 30.5879 6.97386C30.7014 6.94419 30.8071 6.88989 30.8973 6.81481C30.9875 6.73974 31.0601 6.64573 31.11 6.53945C31.1598 6.43317 31.1856 6.31723 31.1856 6.19985C31.1856 6.08247 31.1598 5.96653 31.11 5.86025C31.0601 5.75397 30.9875 5.65996 30.8973 5.58489C30.8071 5.50981 30.7014 5.45551 30.5879 5.42584C30.4743 5.39616 30.3556 5.39184 30.2402 5.41318C16.3202 3.97318 20.3202 4.39985 6.58684 5.41318C6.34637 5.42733 6.12138 5.53642 5.96135 5.71645C5.80131 5.89649 5.71936 6.13272 5.7335 6.37318C5.74765 6.61365 5.85674 6.83864 6.03677 6.99867C6.21681 7.1587 6.45304 7.24066 6.6935 7.22652Z" fill="#000209"/>
<path fill-rule="evenodd" clip-rule="evenodd" d="M17.6267 24.9599C12.9339 24.212 8.14382 24.3295 3.49334 25.3066C2.93334 19.4932 3.06667 20.3732 3.73334 7.78656C3.89247 7.64511 3.98889 7.44625 4.00139 7.2337C4.0139 7.02116 3.94146 6.81236 3.80001 6.65323C3.65856 6.4941 3.45969 6.39768 3.24715 6.38518C3.03461 6.37267 2.8258 6.44511 2.66667 6.58656C1.81334 7.2799 1.92001 9.25323 1.73334 9.9999C0.503632 15.2926 0.0899682 20.7422 0.506673 26.1599C0.630607 28.2412 1.07123 30.2914 1.81334 32.2399C3.33334 34.3732 9.81334 34.3199 12.48 34.2932C11.8758 35.0548 11.4398 35.9357 11.2008 36.8779C10.9618 37.8202 10.9251 38.8024 11.0933 39.7599C10.128 39.8677 9.18419 40.1194 8.29334 40.5066C8.10951 40.5406 7.94339 40.6378 7.82383 40.7815C7.70426 40.9252 7.63879 41.1063 7.63879 41.2932C7.63879 41.4802 7.70426 41.6612 7.82383 41.8049C7.94339 41.9486 8.10951 42.0459 8.29334 42.0799C9.28782 42.5233 10.3645 42.7524 11.4533 42.7524C12.5422 42.7524 13.6189 42.5233 14.6133 42.0799C14.8538 42.0799 15.0844 41.9844 15.2544 41.8143C15.4245 41.6443 15.52 41.4137 15.52 41.1732C15.52 40.9328 15.4245 40.7022 15.2544 40.5321C15.0844 40.3621 14.8538 40.2666 14.6133 40.2666L13.3333 39.9999C14.2548 38.2682 14.6004 36.288 14.32 34.3466C14.32 34.3466 14.0267 34.3466 16.2933 34.2132C16.5338 34.2132 16.7644 34.1177 16.9345 33.9477C17.1045 33.7776 17.2 33.547 17.2 33.3066C17.2 33.0661 17.1045 32.8355 16.9345 32.6655C16.7644 32.4954 16.5338 32.3999 16.2933 32.3999C12.4263 32.396 8.57462 31.9123 4.82667 30.9599C4.02667 30.6666 4.24001 30.7999 4.05334 29.8132C3.86667 28.8266 3.78667 28.1866 3.68001 27.1466C9.49334 27.8399 9.33334 27.6799 17.68 26.7732C17.7991 26.7697 17.9163 26.7428 18.0249 26.694C18.1336 26.6452 18.2316 26.5755 18.3133 26.4888C18.395 26.4021 18.4589 26.3002 18.5012 26.1889C18.5435 26.0776 18.5635 25.959 18.56 25.8399C18.5565 25.7208 18.5296 25.6036 18.4808 25.495C18.432 25.3863 18.3623 25.2883 18.2756 25.2066C18.1889 25.1249 18.087 25.061 17.9757 25.0187C17.8643 24.9764 17.7457 24.9564 17.6267 24.9599Z" fill="#000209"/>
<path fill-rule="evenodd" clip-rule="evenodd" d="M52.9869 27.3332C50.4479 27.8905 47.8526 28.15 45.2535 28.1066C43.2045 28.1225 41.1589 27.9349 39.1469 27.5466C38.1336 27.3066 37.7069 27.3599 37.7069 27.0132C37.7069 26.6666 36.7735 6.39991 37.9469 3.17325C38.7069 2.74103 39.5546 2.48581 40.4269 2.42658C40.3563 3.80006 40.641 5.16854 41.2535 6.39991C42.3497 7.60042 43.81 8.40735 45.4098 8.69645C47.0095 8.98556 48.6599 8.74082 50.1069 7.99991C51.4812 6.55387 52.2863 4.65962 52.3735 2.66658C52.743 2.73352 53.1081 2.82257 53.4669 2.93325C53.6859 2.98532 53.9165 2.95403 54.1138 2.84546C54.311 2.7369 54.4608 2.55882 54.534 2.3459C54.6072 2.13298 54.5985 1.90044 54.5097 1.69354C54.4209 1.48665 54.2583 1.32019 54.0535 1.22658C50.5069 0.186579 37.3335 -1.30675 35.7869 2.05325C34.3735 4.98658 34.0002 25.5466 34.9602 28.2932C36.3202 32.0266 48.7469 31.3066 52.6402 30.1066C53.6896 29.8868 54.6312 29.3124 55.3069 28.4799C56.1869 27.0132 55.3069 6.39991 55.3069 5.11991C55.3069 4.90774 55.2226 4.70426 55.0726 4.55423C54.9225 4.4042 54.7191 4.31991 54.5069 4.31991C54.2947 4.31991 54.0912 4.4042 53.9412 4.55423C53.7912 4.70426 53.7069 4.90774 53.7069 5.11991C53.7069 13.0666 53.3336 27.4132 52.9869 27.3332ZM50.6669 2.66658C50.3487 3.88551 49.7139 4.99866 48.8269 5.89325C47.8849 6.08006 46.9155 6.08006 45.9735 5.89325C42.6669 5.33325 42.8535 4.69325 42.2135 2.66658V2.26658C45.0376 2.11641 47.8696 2.25042 50.6669 2.66658Z" fill="#000209"/>
<path fill-rule="evenodd" clip-rule="evenodd" d="M62.7467 51.1998C60.4267 46.9332 54.9601 46.5065 50.5334 48.5332C48.1334 29.5198 39.1734 31.0665 38.8534 39.5465C38.73 43.4193 38.98 47.295 39.6001 51.1198C36.1601 48.9865 30.9067 50.1598 31.1201 54.4798C31.2534 57.3332 36.0267 63.0398 40.9867 63.9732C41.0785 64.0137 41.1776 64.0347 41.2779 64.0347C41.3782 64.0346 41.4774 64.0137 41.5691 63.9731C41.6608 63.9326 41.743 63.8733 41.8105 63.7991C41.878 63.7249 41.9292 63.6375 41.961 63.5423C41.9927 63.4472 42.0042 63.3465 41.9947 63.2467C41.9852 63.1468 41.955 63.0501 41.9059 62.9626C41.8569 62.8751 41.7901 62.7988 41.7099 62.7387C41.6297 62.6785 41.5378 62.6357 41.4401 62.6132C40.5334 62.1332 33.8934 56.9332 33.7867 54.3465C33.7867 52.4798 36.4534 52.4265 38.1867 53.3598C39.0929 53.9929 40.0469 54.5546 41.0401 55.0398C41.2374 55.0987 41.4458 55.1101 41.6483 55.0731C41.8509 55.0362 42.0418 54.9519 42.2056 54.8271C42.3694 54.7023 42.5013 54.5406 42.5907 54.3551C42.6802 54.1696 42.7245 53.9657 42.7201 53.7598C42.5372 52.2898 42.279 50.8301 41.9467 49.3865C41.7067 47.2798 40.5867 36.6398 42.6401 36.2665C43.4667 36.0798 44.1334 37.0132 44.5601 37.7598C47.0667 42.2398 47.0934 50.2665 47.7067 51.7332C47.7978 51.9687 47.9416 52.1802 48.1271 52.3516C48.3126 52.5229 48.5349 52.6494 48.7769 52.7215C49.0189 52.7936 49.2742 52.8093 49.5232 52.7674C49.7722 52.7255 50.0083 52.6271 50.2134 52.4798C51.4037 51.5661 52.7922 50.9449 54.2667 50.6665C55.5403 50.4378 56.8533 50.6947 57.9467 51.3865C60.6134 53.4398 59.7867 57.1465 59.2267 61.0398C59.2023 61.5303 59.3667 62.0114 59.6861 62.3844C60.0055 62.7573 60.4557 62.9937 60.9441 63.0449C61.4324 63.0962 61.9218 62.9583 62.3117 62.6598C62.7016 62.3612 62.9622 61.9247 63.0401 61.4398C63.7067 58.5065 64.2401 53.8665 62.7467 51.1998Z" fill="#000209"/>
<path fill-rule="evenodd" clip-rule="evenodd" d="M33.0398 46.3998C33.0398 45.0398 31.2531 46.0531 26.3998 45.3598C25.9731 45.3598 24.0531 44.9331 23.9198 44.5598C23.0993 38.5304 23.0098 32.424 23.6531 26.3731C23.6531 25.8665 24.1598 25.3865 23.9998 25.2265C25.6084 24.7591 27.2621 24.4641 28.9331 24.3465C28.7198 25.7065 28.7465 28.2665 28.1331 32.3465C27.8704 36.2583 27.9686 40.186 28.4265 44.0798C28.4265 45.1198 30.2131 45.1198 30.2131 44.0798C30.4265 41.7331 30.7998 39.4131 30.9598 37.0665C31.1515 32.7425 31.0178 28.4103 30.5598 24.1065H32.3465C32.5869 24.1065 32.8175 24.0109 32.9876 23.8409C33.1576 23.6709 33.2531 23.4403 33.2531 23.1998C33.2531 22.9593 33.1576 22.7287 32.9876 22.5587C32.8175 22.3886 32.5869 22.2931 32.3465 22.2931C29.134 22.1325 25.9144 22.4016 22.7731 23.0931C19.4931 24.4265 19.7331 41.3331 21.6531 45.5465C22.9331 48.2131 29.1998 47.4665 32.3198 47.2531C32.5274 47.2328 32.7188 47.1322 32.8533 46.9728C32.9878 46.8134 33.0547 46.6078 33.0398 46.3998Z" fill="#000209"/>
<path fill-rule="evenodd" clip-rule="evenodd" d="M52.6133 33.4931C51.9342 35.9538 51.9342 38.5525 52.6133 41.0131C52.6133 41.2536 52.7089 41.4842 52.8789 41.6543C53.0489 41.8243 53.2795 41.9198 53.52 41.9198C53.7605 41.9198 53.9911 41.8243 54.1611 41.6543C54.3311 41.4842 54.4267 41.2536 54.4267 41.0131C55.4667 36.6131 55.44 36.8798 54.1333 33.2531C54.0602 33.0953 53.9376 32.9656 53.7841 32.8837C53.6306 32.8018 53.4546 32.7722 53.2827 32.7993C53.1109 32.8265 52.9526 32.9089 52.8318 33.0341C52.711 33.1593 52.6343 33.3204 52.6133 33.4931Z" fill="#000209"/>
</g>
<defs>
<clipPath id="clip0_1705_841">
<rect width="64" height="64" fill="white"/>
</clipPath>
</defs>
</svg>
