<svg width="64" height="64" viewBox="0 0 64 64" fill="none" xmlns="http://www.w3.org/2000/svg">
<g clip-path="url(#clip0_1705_817)">
<path fill-rule="evenodd" clip-rule="evenodd" d="M49.0936 48.2399C49.2987 48.2399 49.4954 48.1584 49.6404 48.0134C49.7855 47.8684 49.867 47.6717 49.867 47.4666C49.867 47.2615 49.7855 47.0648 49.6404 46.9197C49.4954 46.7747 49.2987 46.6932 49.0936 46.6932C43.7603 46.1599 41.3336 42.6399 41.627 39.1466C41.823 37.2096 42.7705 35.4266 44.2662 34.1803C45.7618 32.9339 47.6864 32.3235 49.627 32.4799C51.3932 32.444 53.102 33.1079 54.3808 34.3268C55.6596 35.5456 56.4047 37.2206 56.4536 38.9866C56.8062 40.7899 56.4285 42.6595 55.4034 44.1845C54.3784 45.7096 52.7899 46.7653 50.987 47.1199C50.7536 47.1482 50.541 47.268 50.3959 47.4531C50.2509 47.6381 50.1853 47.8732 50.2136 48.1066C50.2419 48.34 50.3618 48.5526 50.5468 48.6976C50.7318 48.8426 50.9669 48.9082 51.2003 48.8799C52.2959 48.7913 53.3643 48.4926 54.3469 47.9999C55.0949 48.838 55.7811 49.7292 56.4003 50.6666C56.7736 51.2266 57.0936 51.7599 57.4136 52.3199C57.7651 52.8797 58.0856 53.4583 58.3736 54.0532C59.0992 55.467 59.7057 56.9388 60.187 58.4532C60.2261 58.683 60.3548 58.8878 60.5447 59.0228C60.7347 59.1577 60.9705 59.2119 61.2003 59.1732C61.4321 59.1279 61.6371 58.9938 61.7716 58.7995C61.9061 58.6053 61.9594 58.3662 61.9203 58.1332C61.78 56.3802 61.4582 54.6465 60.9603 52.9599C60.7063 52.2295 60.3849 51.5242 60.0003 50.8532C59.6364 50.1609 59.1886 49.516 58.667 48.9332C57.8652 48.1196 56.9701 47.4035 56.0003 46.7999C57.0297 45.7536 57.8202 44.4967 58.3174 43.1157C58.8146 41.7346 59.0066 40.2623 58.8803 38.7999C58.8768 37.5755 58.6317 36.3638 58.1591 35.2342C57.6865 34.1047 56.9957 33.0795 56.1262 32.2174C55.2567 31.3553 54.2256 30.6733 53.092 30.2104C51.9585 29.7475 50.7447 29.5129 49.5203 29.5199C46.8845 29.4253 44.3171 30.3703 42.3717 32.1512C40.4262 33.932 39.2585 36.4061 39.1203 39.0399C39.0936 43.4932 42.2136 47.9999 49.0936 48.2399Z" fill="#000209"/>
<path fill-rule="evenodd" clip-rule="evenodd" d="M2.80026 30.9866C2.91436 31.0138 3.03284 31.0171 3.1483 30.9965C3.26375 30.9758 3.37371 30.9316 3.47131 30.8665C3.5689 30.8014 3.65203 30.717 3.71551 30.6183C3.77899 30.5197 3.82146 30.409 3.84026 30.2933C4.32159 28.7702 4.92811 27.2896 5.65359 25.8666C5.94693 25.2799 6.26693 24.7199 6.58693 24.1599C6.90693 23.5999 7.25359 23.0666 7.60026 22.5066C8.22878 21.569 8.92391 20.6778 9.68026 19.8399C10.6446 20.3353 11.6944 20.643 12.7736 20.7466C12.8892 20.7606 13.0063 20.7517 13.1185 20.7204C13.2306 20.6892 13.3355 20.6361 13.4271 20.5643C13.5187 20.4925 13.5953 20.4033 13.6525 20.3019C13.7096 20.2005 13.7463 20.0888 13.7603 19.9733C13.7743 19.8577 13.7654 19.7405 13.7341 19.6284C13.7028 19.5163 13.6498 19.4114 13.5779 19.3198C13.5061 19.2281 13.417 19.1516 13.3156 19.0944C13.2142 19.0372 13.1025 19.0006 12.9869 18.9866C12.0915 18.8112 11.2394 18.4608 10.4797 17.9554C9.71992 17.45 9.0674 16.7996 8.55953 16.0415C8.05166 15.2834 7.69842 14.4325 7.52008 13.5376C7.34174 12.6428 7.3418 11.7215 7.52026 10.8266C7.56916 9.05828 8.31336 7.38057 9.59138 6.15746C10.8694 4.93435 12.5782 4.26451 14.3469 4.29327C16.2887 4.15105 18.2095 4.77015 19.7027 6.01948C21.1959 7.2688 22.1443 9.05025 22.3469 10.9866C22.6136 14.4799 20.2669 17.9999 14.8803 18.5333C14.6728 18.547 14.4788 18.641 14.3394 18.7953C14.2 18.9496 14.1262 19.1521 14.1336 19.3599C14.1404 19.4616 14.1671 19.5609 14.2124 19.6521C14.2577 19.7434 14.3205 19.8248 14.3973 19.8917C14.4741 19.9586 14.5634 20.0097 14.66 20.042C14.7566 20.0743 14.8587 20.0872 14.9603 20.0799C21.8669 19.9199 24.9869 15.3333 24.8803 10.8533C24.7353 8.2075 23.5544 5.7252 21.5931 3.94354C19.6317 2.16188 17.0478 1.22415 14.4003 1.33327C13.1723 1.32976 11.9558 1.56858 10.8204 2.03606C9.68491 2.50353 8.65286 3.19046 7.78335 4.05749C6.91384 4.92452 6.22397 5.9546 5.75326 7.08872C5.28255 8.22283 5.04026 9.43868 5.04026 10.6666C4.91881 12.1354 5.12091 13.6129 5.63233 14.9951C6.14374 16.3773 6.95204 17.6306 8.00026 18.6666C7.02543 19.2631 6.12951 19.9798 5.33359 20.7999C4.81202 21.3888 4.35601 22.0325 3.97359 22.7199C3.5927 23.3891 3.28002 24.0949 3.04026 24.8266C2.51692 26.507 2.19467 28.2436 2.08026 29.9999C2.06132 30.1122 2.06502 30.227 2.09114 30.3378C2.11727 30.4486 2.16529 30.553 2.23238 30.645C2.29947 30.7369 2.38427 30.8145 2.4818 30.8732C2.57933 30.9318 2.6876 30.9704 2.80026 30.9866Z" fill="#000209"/>
<path fill-rule="evenodd" clip-rule="evenodd" d="M63.1471 60.3199C58.6671 60.0266 54.3204 59.7866 49.9737 59.6799H47.3071V58.8532C46.9178 56.1469 46.3295 53.473 45.5471 50.8532C45.3377 50.2546 45.0603 49.682 44.7204 49.1466C44.4672 48.7848 44.1282 48.4916 43.7337 48.2932C42.2826 47.8364 40.7746 47.5851 39.2537 47.5466C36.0374 47.2986 32.8047 47.3611 29.6004 47.7332C28.4821 47.839 27.3997 48.1846 26.4271 48.7466C26.1297 48.9375 25.8936 49.2101 25.747 49.5316C25.6004 49.8532 25.5495 50.2102 25.6004 50.5599C26.0537 53.2266 27.0937 55.6266 27.7071 58.1066C27.9246 58.9287 28.0761 59.767 28.1604 60.6132L25.4937 60.7999C25.3934 60.7998 25.2941 60.82 25.2017 60.8592C25.1093 60.8984 25.0258 60.9557 24.9561 61.0279C24.8864 61.1001 24.832 61.1856 24.7961 61.2793C24.7601 61.373 24.7435 61.473 24.7471 61.5732C24.7471 61.7783 24.8285 61.975 24.9736 62.1201C25.1186 62.2651 25.3153 62.3466 25.5204 62.3466C30.6137 62.4799 35.5737 62.7199 40.5337 62.7199C43.5471 62.7199 46.5337 62.7199 49.5204 62.5599C53.9471 62.4266 58.4271 62.1866 62.9871 62.1332C63.1068 62.152 63.2292 62.1458 63.3464 62.115C63.4636 62.0843 63.5733 62.0296 63.6684 61.9545C63.7636 61.8794 63.8422 61.7854 63.8993 61.6785C63.9564 61.5716 63.9908 61.4541 64.0004 61.3332C64.0194 61.2092 64.0117 61.0826 63.9778 60.9618C63.9439 60.841 63.8845 60.7289 63.8037 60.6329C63.7229 60.5369 63.6225 60.4594 63.5092 60.4054C63.396 60.3514 63.2725 60.3222 63.1471 60.3199ZM27.9204 50.8532H28.0804C28.2404 50.8532 28.0004 50.9866 27.9204 50.8532ZM38.5871 59.8132C35.6537 59.9732 32.7471 60.1866 29.7871 60.4266C29.7643 59.4881 29.6752 58.5524 29.5204 57.6266C29.0937 55.3599 28.3737 53.1199 28.0537 50.7466H28.3204C31.1719 50.3351 34.0583 50.219 36.9337 50.3999C38.8489 50.331 40.7665 50.4202 42.6671 50.6666L43.3871 51.8666C44.4111 54.3901 45.2228 56.9947 45.8137 59.6532H44.4537C42.4804 59.6799 40.5871 59.7332 38.7204 59.8132H38.5871Z" fill="#000209"/>
<path fill-rule="evenodd" clip-rule="evenodd" d="M39.1469 33.36C39.1504 33.2584 39.1339 33.1571 39.0983 33.062C39.0627 32.9668 39.0087 32.8795 38.9394 32.8052C38.87 32.7309 38.7867 32.671 38.6942 32.6289C38.6017 32.5869 38.5018 32.5634 38.4002 32.56L35.8935 32.4C35.9637 31.5011 36.1064 30.6093 36.3202 29.7333C36.9602 27.28 38.0002 24.8267 38.4535 22.2133C38.5053 21.8607 38.4519 21.5006 38.3001 21.1781C38.1484 20.8556 37.9049 20.5849 37.6002 20.4C36.6409 19.8297 35.5653 19.4833 34.4535 19.3867C31.2449 19.0592 28.0122 19.0414 24.8002 19.3333C23.2824 19.3828 21.777 19.6248 20.3202 20.0533C19.9258 20.2637 19.5875 20.5654 19.3335 20.9333C18.9963 21.4743 18.7106 22.0457 18.4802 22.64C17.7116 25.2634 17.1236 27.9363 16.7202 30.64V31.4667H14.0535C9.70686 31.4667 5.36019 31.8133 0.88019 32.08C0.649089 32.0936 0.431951 32.1951 0.273287 32.3637C0.114624 32.5323 0.026456 32.7552 0.0268568 32.9867C0.0337954 33.2225 0.132373 33.4463 0.30166 33.6106C0.470947 33.7749 0.69761 33.8668 0.933524 33.8667C5.49352 33.8667 9.97352 34.1333 14.4002 34.2667C17.3869 34.2667 20.3735 34.4533 23.3869 34.4533C28.3469 34.4533 33.3069 34.2133 38.4002 34.08C38.5917 34.0738 38.7742 33.9968 38.9121 33.8637C39.0501 33.7307 39.1337 33.5512 39.1469 33.36ZM36.1069 22.6933C36.1069 22.8267 36.1069 22.6933 35.9202 22.6933C35.7335 22.6933 36.1335 22.64 36.1069 22.6933ZM19.6535 31.4933H18.3202C18.9157 28.8273 19.7272 26.2143 20.7469 23.68L21.4669 22.48C23.2362 22.2646 25.0179 22.1666 26.8002 22.1867C29.6843 21.9915 32.581 22.1078 35.4402 22.5333H35.6802C35.3869 24.9067 34.6669 27.1733 34.2402 29.4133C34.0709 30.3462 33.9817 31.2919 33.9735 32.24C31.0135 32 28.0802 31.7867 25.1469 31.6267C23.4135 31.5733 21.5202 31.52 19.6535 31.4933Z" fill="#000209"/>
</g>
<defs>
<clipPath id="clip0_1705_817">
<rect width="64" height="64" fill="white"/>
</clipPath>
</defs>
</svg>
