<svg width="64" height="65" viewBox="0 0 64 65" fill="none" xmlns="http://www.w3.org/2000/svg">
<g clip-path="url(#clip0_1495_948)">
<path fill-rule="evenodd" clip-rule="evenodd" d="M58.1333 27.5664C57.3866 28.3664 53.3866 32.8997 52.8 33.6997C52.2133 34.4997 51.4133 35.4064 50.7466 36.3664C49.2 38.4197 47.76 40.5531 46.32 42.7131C46.2429 42.8097 46.1864 42.9211 46.1539 43.0404C46.1214 43.1597 46.1137 43.2843 46.1312 43.4067C46.1487 43.5291 46.191 43.6466 46.2556 43.752C46.3201 43.8574 46.4056 43.9485 46.5066 44.0197C46.7014 44.1712 46.9481 44.2393 47.193 44.2093C47.4378 44.1794 47.6609 44.0537 47.8133 43.8597C49.5466 41.8864 51.4133 40.0464 53.1466 38.0997C54.32 36.7931 58.48 31.8064 59.6 30.4731C60.72 29.1397 59.8933 25.6731 58.1333 27.5664Z" fill="black"/>
<path fill-rule="evenodd" clip-rule="evenodd" d="M63.1998 19.9932C63.1735 19.7646 63.0637 19.5537 62.8914 19.4011C62.7192 19.2486 62.4966 19.165 62.2665 19.1665C62.1429 19.1628 62.0199 19.1844 61.905 19.23C61.7901 19.2756 61.6857 19.3442 61.5983 19.4317C61.5109 19.5191 61.4423 19.6234 61.3967 19.7383C61.3511 19.8533 61.3295 19.9763 61.3332 20.0998C61.3332 21.8065 61.5198 28.6865 61.4665 29.5665C61.4133 30.8004 61.189 32.021 60.7998 33.1932C60.5981 33.7176 60.3096 34.2044 59.9465 34.6332C59.3065 35.4332 58.5332 36.1798 57.8665 36.8732L52.1598 43.1665C49.4932 46.1265 47.2532 49.4598 44.6398 52.4465C44.0265 53.1132 43.3332 53.6998 42.6665 54.3398C42.8167 52.9048 42.8879 51.4627 42.8798 50.0198V47.9665C42.8798 47.2998 42.6932 46.6065 42.5598 45.9665C42.2932 44.6598 41.8932 43.4332 41.5465 42.1532C44.0798 39.0332 46.7465 36.0465 49.3065 32.9532C50.9332 31.0332 52.4532 29.0598 54.0265 27.1132C56.3732 24.1798 58.6665 21.1932 61.0665 18.2865C62.4265 16.7665 61.8932 16.3132 61.5998 16.0998C60.4807 15.1686 59.2321 14.405 57.8932 13.8332C56.0022 13.0207 54.0494 12.3608 52.0532 11.8598L38.1598 8.49984C36.1395 8.00485 34.0771 7.70129 31.9998 7.59317C30.4329 7.5039 28.864 7.73062 27.3865 8.25984C26.4272 8.69934 25.5304 9.26427 24.7198 9.93984C23.4665 10.8465 22.4265 11.9132 21.3332 12.7665C19.7065 14.2332 18.1332 15.7798 16.6665 17.3798C14.4532 19.7532 12.3732 22.2332 10.2665 24.7398C8.55984 26.7398 6.6665 28.5532 5.09317 30.6065C4.38239 31.5305 3.74912 32.5116 3.19984 33.5398C3.16054 33.6703 3.16054 33.8094 3.19984 33.9398C2.77421 34.2898 2.40539 34.7036 2.1065 35.1665C1.42986 36.2077 0.9256 37.3513 0.613171 38.5532C-0.274703 41.1459 -0.274703 43.9604 0.613171 46.5532C1.56474 49.0527 3.2349 51.2146 5.41317 52.7665C7.33327 54.0992 9.51488 55.0082 11.8132 55.4332C15.0142 55.9396 18.2526 56.1716 21.4932 56.1265C24.3198 56.1265 27.9198 56.3932 31.5732 56.6598C35.2265 56.9265 38.7732 57.2465 41.5998 57.5932C41.5998 57.5932 45.3065 54.6065 46.0265 53.9132C48.8532 51.2465 51.3598 48.0732 54.2132 45.3798C55.0665 44.5798 55.8932 43.7532 56.6665 42.8998C57.8398 41.6465 58.9332 40.2332 60.0798 39.0598C60.8669 38.2203 61.5974 37.3295 62.2665 36.3932C62.7574 35.6649 63.1518 34.8762 63.4398 34.0465C63.8427 32.5791 64.0313 31.0612 63.9998 29.5398C63.9998 26.3132 63.3065 22.8198 63.1998 19.9932ZM7.33317 30.9532C8.8265 29.3532 10.5332 27.8598 12.0532 26.2332C14.2932 23.8865 16.5065 21.5932 18.7998 19.3532C20.2932 17.8865 21.8398 16.4998 23.4932 15.1132C24.4532 14.2865 25.4398 13.2732 26.5332 12.4465C27.1365 11.9412 27.7991 11.5114 28.5065 11.1665C29.57 10.8071 30.6922 10.6533 31.8132 10.7132C33.7309 10.7721 35.6401 10.9951 37.5198 11.3798L51.5198 14.0465C53.4149 14.4401 55.2779 14.9749 57.0932 15.6465C57.938 16.0221 58.7498 16.4681 59.5198 16.9798C56.8532 19.6465 54.3198 22.1265 51.8398 24.8465C50.7998 26.0198 49.7598 27.2198 48.7465 28.4465C47.7332 29.6732 46.7465 30.9265 45.8398 32.2065C38.3732 42.5798 43.1732 41.1665 34.4265 39.2998C27.3865 37.8332 20.5065 35.1665 13.3332 34.0732C11.5998 33.8332 9.51984 33.1665 7.5465 33.0065C6.88496 32.9913 6.22363 33.0449 5.57317 33.1665C6.12103 32.3987 6.70849 31.6599 7.33317 30.9532ZM31.8132 54.3132C28.1865 53.9132 24.5332 53.5932 21.7065 53.4065C18.619 53.3349 15.5423 53.0139 12.5065 52.4465C10.6441 52.0671 8.88733 51.2843 7.35984 50.1532C5.67028 48.9617 4.37865 47.2891 3.65317 45.3532C3.01061 43.423 3.01061 41.3367 3.65317 39.4065C3.8605 38.6584 4.14655 37.9343 4.50651 37.2465C4.7062 36.7788 5.07877 36.4062 5.5465 36.2065C6.42647 36.0284 7.33321 36.0284 8.21317 36.2065C9.91984 36.3932 11.6532 36.8198 13.0932 36.9798C20.2132 37.6998 27.1198 39.9932 34.1598 41.1932C35.9231 41.5193 37.7039 41.7419 39.4932 41.8598C39.3866 43.5737 39.3866 45.2926 39.4932 47.0065C39.6121 48.0187 39.7812 49.0244 39.9998 50.0198C41.1198 57.1932 43.0665 55.5132 31.8132 54.3132Z" fill="black"/>
<path fill-rule="evenodd" clip-rule="evenodd" d="M35.3066 44.1C32.3545 43.043 29.3453 42.1527 26.2933 41.4334C24.9719 41.1442 23.6369 40.9217 22.2933 40.7667C20.9563 40.6106 19.6124 40.5216 18.2666 40.5C15.1239 40.383 11.9768 40.5078 8.85325 40.8734C8.73069 40.8734 8.60932 40.8975 8.49608 40.9444C8.38285 40.9913 8.27996 41.0601 8.19329 41.1467C8.10662 41.2334 8.03787 41.3363 7.99097 41.4495C7.94406 41.5628 7.91992 41.6841 7.91992 41.8067C7.91992 41.9293 7.94406 42.0506 7.99097 42.1639C8.03787 42.2771 8.10662 42.38 8.19329 42.4667C8.27996 42.5533 8.38285 42.6221 8.49608 42.669C8.60932 42.7159 8.73069 42.74 8.85325 42.74C11.465 42.7868 14.0727 42.9648 16.6666 43.2734C19.0666 43.5134 21.4933 43.9134 23.8933 44.2067C27.5999 44.6867 31.2533 45.06 34.7999 45.7534C34.9033 45.7853 35.0122 45.7952 35.1196 45.7825C35.2271 45.7697 35.3306 45.7345 35.4236 45.6793C35.5166 45.624 35.5969 45.5498 35.6595 45.4615C35.722 45.3732 35.7653 45.2728 35.7866 45.1667C35.8252 45.0651 35.8434 44.957 35.8401 44.8484C35.8369 44.7398 35.8122 44.6329 35.7677 44.5339C35.7231 44.4348 35.6594 44.3455 35.5803 44.2711C35.5012 44.1966 35.4082 44.1385 35.3066 44.1Z" fill="black"/>
<path fill-rule="evenodd" clip-rule="evenodd" d="M34.7999 49.9131C32.0092 48.9767 29.1694 48.1933 26.2933 47.5664C25.0666 47.3264 23.8133 47.1397 22.5599 46.9797C21.3066 46.8197 20.0533 46.7397 18.7733 46.713C15.8308 46.5967 12.8842 46.6412 9.94661 46.8464C9.82527 46.8463 9.70515 46.8706 9.59337 46.9179C9.48159 46.9651 9.38043 47.0343 9.29588 47.1213C9.21133 47.2083 9.14512 47.3115 9.10115 47.4246C9.05719 47.5377 9.03637 47.6584 9.03994 47.7797C9.03984 48.0227 9.13451 48.2561 9.30382 48.4304C9.47312 48.6047 9.70372 48.7061 9.94661 48.713C11.5733 48.713 13.1999 48.9797 14.8799 49.1664C16.5599 49.353 18.1066 49.6197 19.7599 49.8064L24.6133 50.4197C27.9733 50.7664 31.2533 51.0064 34.4266 51.513C34.5317 51.5412 34.6413 51.5484 34.7491 51.5342C34.8569 51.5199 34.9609 51.4846 35.055 51.43C35.1492 51.3755 35.2316 51.303 35.2977 51.2166C35.3637 51.1301 35.4121 51.0315 35.4399 50.9264C35.481 50.7079 35.4378 50.4819 35.3191 50.2939C35.2004 50.1059 35.0149 49.9699 34.7999 49.9131Z" fill="black"/>
<path fill-rule="evenodd" clip-rule="evenodd" d="M24.7733 21.22C25.325 21.802 25.8414 22.4165 26.3199 23.06C26.6381 23.4726 26.9234 23.9095 27.1733 24.3667C27.22 24.4809 27.2889 24.5848 27.376 24.6722C27.4632 24.7596 27.5668 24.8289 27.6808 24.876C27.7949 24.9232 27.9172 24.9472 28.0407 24.9467C28.1641 24.9463 28.2862 24.9213 28.3999 24.8733C28.6261 24.7735 28.805 24.5902 28.8994 24.3617C28.9938 24.1331 28.9963 23.877 28.9066 23.6467C28.6867 22.9238 28.4103 22.2194 28.0799 21.54C27.7599 20.8733 27.4133 20.26 27.0666 19.5933L29.1733 18.9533C29.6811 18.7918 30.1975 18.6583 30.7199 18.5533C31.2387 18.4503 31.7648 18.3878 32.2933 18.3667C32.4018 18.3754 32.511 18.3627 32.6147 18.3293C32.7183 18.2958 32.8144 18.2423 32.8973 18.1717C32.9803 18.1011 33.0485 18.0149 33.0982 17.9179C33.1478 17.821 33.1778 17.7152 33.1866 17.6067C33.1953 17.4981 33.1826 17.3889 33.1492 17.2852C33.1157 17.1816 33.0622 17.0856 32.9916 17.0026C32.921 16.9196 32.8348 16.8514 32.7379 16.8018C32.6409 16.7521 32.5352 16.7221 32.4266 16.7133C31.8189 16.6002 31.2041 16.5289 30.5866 16.5H28.7466L25.7866 16.7933L24.9066 16.9267H24.4799C23.1199 17.1133 23.0933 18.66 23.0933 18.6867C23.1531 19.1445 23.3173 19.5824 23.5733 19.9667C23.9999 20.3667 24.4533 20.82 24.7733 21.22Z" fill="black"/>
<path fill-rule="evenodd" clip-rule="evenodd" d="M40.5867 20.2067C40.5101 20.2812 40.4492 20.3704 40.4076 20.4688C40.366 20.5673 40.3446 20.6731 40.3446 20.78C40.3446 20.8869 40.366 20.9927 40.4076 21.0912C40.4492 21.1897 40.5101 21.2788 40.5867 21.3533C41.171 21.9681 41.706 22.6279 42.1867 23.3267C42.535 23.8513 42.8383 24.4043 43.0934 24.98H42.9334C42.2931 25.0783 41.6605 25.2208 41.04 25.4067C39.7334 25.8067 38.3734 26.3667 37.1734 26.66C36.93 26.6932 36.7095 26.821 36.5598 27.0157C36.41 27.2104 36.343 27.4563 36.3734 27.7C36.4067 27.9453 36.5335 28.1683 36.7273 28.3223C36.9211 28.4763 37.1669 28.5496 37.4134 28.5267L43.1467 28.02C43.7985 28.0494 44.4516 28.0047 45.0934 27.8867C45.6621 27.7695 46.1771 27.4699 46.56 27.0333C46.719 26.8329 46.8323 26.6003 46.8922 26.3516C46.9521 26.1029 46.957 25.8441 46.9067 25.5933C46.6862 25.0248 46.4093 24.4799 46.08 23.9667C45.6052 23.313 45.0695 22.7058 44.48 22.1533C43.6545 21.3824 42.7621 20.6863 41.8134 20.0733C41.7269 19.9953 41.6249 19.9364 41.514 19.9005C41.4032 19.8646 41.286 19.8526 41.1701 19.8652C41.0543 19.8778 40.9425 19.9147 40.8419 19.9736C40.7414 20.0324 40.6544 20.1119 40.5867 20.2067Z" fill="black"/>
<path fill-rule="evenodd" clip-rule="evenodd" d="M28.0266 27.5664C27.8538 27.7454 27.7573 27.9844 27.7573 28.2331C27.7573 28.4818 27.8538 28.7208 28.0266 28.8998C28.1112 28.9877 28.2126 29.0576 28.3249 29.1054C28.4371 29.1532 28.5579 29.1778 28.6799 29.1778C28.8019 29.1778 28.9226 29.1532 29.0349 29.1054C29.1472 29.0576 29.2486 28.9877 29.3332 28.8998L34.6666 25.0598C35.5732 24.2331 36.5066 23.4331 37.3332 22.5531C38.5866 21.2464 39.6799 19.8864 40.9599 18.4731C41.0855 18.4312 41.1991 18.3597 41.2914 18.2647C41.3836 18.1697 41.4516 18.0539 41.4897 17.9272C41.5279 17.8004 41.535 17.6663 41.5106 17.5362C41.4861 17.4061 41.4307 17.2837 41.3491 17.1795C41.2675 17.0752 41.1621 16.9921 41.0417 16.9371C40.9213 16.8821 40.7894 16.8568 40.6572 16.8633C40.5249 16.8699 40.3962 16.9081 40.2818 16.9748C40.1675 17.0414 40.0708 17.1346 39.9999 17.2464C38.4139 18.1999 36.8826 19.2416 35.4132 20.3664C34.4532 21.1131 33.5999 21.9664 32.7466 22.7398L28.0266 27.5664Z" fill="black"/>
</g>
<defs>
<clipPath id="clip0_1495_948">
<rect width="64" height="64" fill="white" transform="translate(0 0.5)"/>
</clipPath>
</defs>
</svg>
