<svg width="65" height="65" viewBox="0 0 65 65" fill="none" xmlns="http://www.w3.org/2000/svg">
<path d="M38.1601 52.82C36.2591 53.9769 34.0192 54.4475 31.8134 54.1533C30.9074 54.0601 30.0137 53.8724 29.1467 53.5933C28.2854 53.324 27.4612 52.9477 26.6934 52.4733C25.744 51.9688 24.913 51.2679 24.2555 50.4173C23.598 49.5667 23.1291 48.5859 22.8801 47.54C22.8801 46.7667 22.6667 46.0467 22.6667 45.2467C22.796 43.2252 22.7066 41.1956 22.4001 39.1933C22.1763 38.0683 21.6188 37.0368 20.8001 36.2333C20.4213 35.9049 19.9411 35.7166 19.4401 35.7C18.8933 35.7307 18.3496 35.802 17.8134 35.9133H12.6401H10.4534C9.99554 35.1713 9.59439 34.3958 9.2534 33.5933C8.95206 32.823 8.75476 32.0159 8.66674 31.1933C8.58697 30.5647 8.58697 29.9286 8.66674 29.3C8.7573 28.6764 8.92758 28.0669 9.1734 27.4867C9.7464 25.7149 10.9395 24.2094 12.5334 23.2467C13.7401 22.6352 15.0739 22.3165 16.4267 22.3165C17.7796 22.3165 19.1133 22.6352 20.3201 23.2467C21.6801 23.86 29.5201 28.02 24.2934 35.4067C24.1627 35.6083 24.1174 35.8535 24.1674 36.0885C24.2174 36.3235 24.3586 36.5291 24.5601 36.66C25.4564 37.4493 26.2534 38.3448 26.9334 39.3267C27.6028 40.2995 28.1576 41.3465 28.5867 42.4467C29.0087 43.5486 29.3474 44.6807 29.6001 45.8333C29.8721 46.8036 30.3344 47.7101 30.9601 48.5C31.5575 49.2039 32.3492 49.7159 33.2362 49.9721C34.1232 50.2282 35.0661 50.2171 35.9467 49.94C36.3539 49.84 36.7547 49.7153 37.1467 49.5667L38.2134 49.06C38.336 49.004 38.4463 48.9244 38.5381 48.8257C38.6299 48.727 38.7014 48.6112 38.7484 48.4849C38.7954 48.3587 38.8172 48.2243 38.8123 48.0897C38.8074 47.955 38.7761 47.8226 38.7201 47.7C38.664 47.5774 38.5844 47.4671 38.4857 47.3753C38.3871 47.2835 38.2713 47.2121 38.145 47.165C38.0187 47.118 37.8844 47.0962 37.7497 47.1011C37.615 47.106 37.4826 47.1373 37.3601 47.1933L35.6267 47.54C35.2176 47.6126 34.7963 47.5657 34.4132 47.4049C34.03 47.2441 33.7014 46.9762 33.4667 46.6333C33.0916 45.9254 32.8392 45.159 32.7201 44.3667C32.476 43.2969 32.1091 42.2589 31.6267 41.2733C30.8873 40.0425 29.9909 38.913 28.9601 37.9133C28.2075 37.233 27.3852 36.6341 26.5067 36.1267C26.5067 36.1267 26.7201 36.1267 26.8001 35.94C31.1201 29.8067 27.3601 23.3 21.7867 20.5C20.3884 19.7484 18.8524 19.2877 17.2713 19.1456C15.6902 19.0035 14.0966 19.183 12.5867 19.6733C11.1024 20.2441 9.77616 21.1615 8.71851 22.349C7.66086 23.5366 6.90252 24.9598 6.50674 26.5C6.28959 27.301 6.16434 28.124 6.1334 28.9533C6.07499 29.7935 6.13786 30.6377 6.32007 31.46C6.54205 32.4606 6.89157 33.4285 7.36007 34.34C7.65753 34.8835 7.987 35.4089 8.34674 35.9133C7.45465 35.9363 6.56446 36.0075 5.68007 36.1267C4.91484 36.2147 4.16286 36.3937 3.44007 36.66C2.92433 36.8534 2.4721 37.1856 2.1334 37.62C1.63824 38.3052 1.2681 39.0726 1.04007 39.8867C0.680006 41.4104 0.456895 42.9632 0.373405 44.5267C-0.0478448 48.4104 0.0868441 52.3343 0.773405 56.18C1.23467 58.8139 2.26284 61.3161 3.78674 63.5133C3.93075 63.708 4.14477 63.839 4.3836 63.8789C4.62243 63.9187 4.86738 63.8641 5.06674 63.7267C5.25956 63.5875 5.38998 63.3781 5.42989 63.1437C5.46979 62.9092 5.41599 62.6685 5.28007 62.4733C4.04244 60.4474 3.27684 58.1689 3.04007 55.8067C2.62835 52.1912 2.74513 48.5351 3.38674 44.9533C3.54674 43.9667 3.7334 42.6067 4.0534 41.38C4.18132 40.8247 4.39739 40.2936 4.6934 39.8067C4.4534 39.38 5.76007 39.5933 6.16007 39.54C6.9819 39.4248 7.81026 39.3625 8.64007 39.3533H12.6667C19.9201 39.0867 19.2534 38.5267 19.6001 40.5267C19.8004 42.0744 19.9073 43.6328 19.9201 45.1933C20.0248 47.8486 20.4092 50.4854 21.0667 53.06C21.6828 55.6107 22.5032 58.1077 23.5201 60.5267C23.6155 60.7813 23.8083 60.9875 24.0558 61.1001C24.3034 61.2126 24.5855 61.2221 24.8401 61.1267C25.0947 61.0312 25.3009 60.8385 25.4135 60.5909C25.526 60.3434 25.5355 60.0613 25.4401 59.8067C24.8049 57.9367 24.2795 56.0313 23.8667 54.1C24.1866 54.4643 24.5343 54.8031 24.9067 55.1133C25.9003 55.8655 27.0201 56.4344 28.2134 56.7933C29.3751 57.1715 30.592 57.3518 31.8134 57.3267C34.6706 57.3152 37.4235 56.252 39.5467 54.34C39.655 54.2588 39.746 54.1568 39.8142 54.0399C39.8824 53.923 39.9265 53.7936 39.9439 53.6594C39.9613 53.5252 39.9517 53.3888 39.9155 53.2584C39.8794 53.128 39.8174 53.0061 39.7334 52.9C39.6416 52.7819 39.5255 52.6851 39.3929 52.616C39.2603 52.5468 39.1144 52.5071 38.9651 52.4996C38.8157 52.492 38.6665 52.5167 38.5276 52.572C38.3887 52.6273 38.2633 52.7119 38.1601 52.82Z" fill="black"/>
<path d="M37.8399 11.9134C38.061 11.753 38.2101 11.512 38.2551 11.2426C38.3 10.9731 38.2371 10.6968 38.0799 10.4734C37.9107 10.2559 37.6656 10.1104 37.3937 10.0659C37.1217 10.0214 36.843 10.0812 36.6133 10.2334L29.8133 13.4867C28.8789 13.9609 27.9868 14.514 27.1466 15.14C26.7547 15.4884 26.5153 15.9768 26.4799 16.5C26.4428 16.7731 26.4665 17.0511 26.5495 17.3139C26.6325 17.5767 26.7727 17.8178 26.9599 18.02C27.3066 18.42 28.3733 19.3 28.4533 19.38L34.4266 24.2867C34.5965 24.4561 34.8267 24.5512 35.0666 24.5512C35.3065 24.5512 35.5367 24.4561 35.7066 24.2867C35.876 24.1168 35.9711 23.8866 35.9711 23.6467C35.9711 23.4068 35.876 23.1767 35.7066 23.0067L30.8266 16.9L30.5599 16.74L31.5466 16.3134L37.8399 11.9134Z" fill="black"/>
<path d="M45.6801 22.7132C45.5715 22.7902 45.4791 22.8879 45.4083 23.0006C45.3375 23.1133 45.2895 23.2389 45.2672 23.3701C45.2449 23.5014 45.2487 23.6357 45.2784 23.7655C45.3081 23.8953 45.363 24.018 45.4401 24.1265C45.6046 24.3421 45.8451 24.4869 46.1126 24.5315C46.3801 24.576 46.6545 24.5171 46.8801 24.3665L53.6801 21.1132C54.6199 20.6592 55.513 20.1144 56.3468 19.4865C56.7165 19.1546 56.9534 18.6998 57.0134 18.2065C57.0503 17.9376 57.0263 17.6637 56.9432 17.4053C56.8602 17.1468 56.7201 16.9103 56.5334 16.7132C56.0626 16.2311 55.564 15.777 55.0401 15.3532L49.0668 10.4199C48.9847 10.3275 48.8846 10.2529 48.7726 10.2006C48.6607 10.1483 48.5392 10.1195 48.4157 10.1159C48.2922 10.1122 48.1693 10.1339 48.0544 10.1795C47.9396 10.2251 47.8353 10.2937 47.7479 10.381C47.6606 10.4684 47.592 10.5727 47.5464 10.6875C47.5008 10.8024 47.4791 10.9253 47.4828 11.0488C47.4864 11.1723 47.5152 11.2938 47.5675 11.4057C47.6198 11.5177 47.6944 11.6178 47.7868 11.6999L52.6668 17.6999L52.9334 17.8865C52.5942 18.0037 52.2644 18.1463 51.9468 18.3132L45.6801 22.7132Z" fill="black"/>
<path d="M46.1066 6.79339C45.9967 6.74625 45.8783 6.72202 45.7587 6.72217C45.6391 6.72232 45.5208 6.74685 45.411 6.79427C45.3012 6.84169 45.2022 6.911 45.12 6.99796C45.0379 7.08492 44.9744 7.18772 44.9333 7.30006C43.92 9.03339 42.9066 10.7134 42.0533 12.6334C41.68 13.4067 41.3866 14.2067 41.0933 15.0067C40.8 15.8067 40.56 16.6067 40.3466 17.4334C39.84 19.3801 39.4933 21.3001 39.12 23.2734C39.0792 23.4029 39.0649 23.5393 39.0779 23.6745C39.0909 23.8097 39.1309 23.9408 39.1956 24.0602C39.2602 24.1796 39.3482 24.2848 39.4544 24.3695C39.5605 24.4543 39.6826 24.5168 39.8133 24.5534C40.075 24.6283 40.3555 24.5976 40.5948 24.468C40.8341 24.3384 41.0131 24.1201 41.0933 23.8601C41.84 22.0467 42.6666 20.2867 43.4133 18.5267C43.7333 17.7534 44.0533 16.9801 44.3466 16.2067C44.6444 15.4292 44.9025 14.6371 45.12 13.8334C45.68 11.9401 46.08 10.0467 46.6133 8.15339C46.6841 8.03364 46.7273 7.89957 46.7396 7.761C46.7519 7.62242 46.7331 7.48284 46.6846 7.35247C46.636 7.2221 46.5589 7.10424 46.4589 7.00751C46.3589 6.91078 46.2386 6.83762 46.1066 6.79339Z" fill="black"/>
<path d="M63.7332 13.8333C62.1599 -0.513386 65.8932 4.09995 52.6399 2.20661C48.4518 1.59276 44.2311 1.22767 39.9999 1.11328C37.8665 1.11328 35.7599 1.11328 33.6532 1.29995C31.5465 1.48661 29.3332 1.75328 27.2799 2.07328C25.2265 2.39328 23.3865 2.52661 21.3332 2.84661C16.1865 3.72661 15.9999 1.99328 15.8132 8.49995C15.7732 9.07703 15.7732 9.6562 15.8132 10.2333C15.8394 10.7614 15.9018 11.287 15.9999 11.8066C16.2665 13.1399 16.7465 14.4733 17.0132 15.6733C17.0228 15.7976 17.0579 15.9186 17.1164 16.0287C17.1749 16.1388 17.2554 16.2357 17.353 16.3133C17.4506 16.3909 17.5632 16.4475 17.6837 16.4796C17.8041 16.5117 17.9299 16.5187 18.0532 16.4999C18.1711 16.4966 18.2872 16.4696 18.3945 16.4205C18.5017 16.3713 18.598 16.3012 18.6776 16.2141C18.7572 16.127 18.8185 16.0248 18.8579 15.9136C18.8972 15.8024 18.9137 15.6844 18.9065 15.5666C19.1895 14.0351 19.35 12.4836 19.3865 10.9266C19.368 10.0308 19.2698 9.13839 19.0932 8.25995C18.9599 7.29995 18.6665 6.36661 18.6665 5.40661C19.6879 5.20635 20.7212 5.07273 21.7599 5.00661C23.7332 4.87328 25.7065 4.87328 27.6265 4.79328C29.5465 4.71328 31.7599 4.65995 33.8399 4.63328C35.9199 4.60661 37.9732 4.63328 40.0265 4.63328C44.1599 4.63328 48.2665 4.63328 52.4265 4.95328C54.6932 5.11328 57.0932 4.95328 59.4132 4.95328H59.7865C59.9465 6.20661 60.1332 7.45995 60.2132 8.73995C60.2932 10.0199 60.2132 11.4066 60.3732 12.8999C60.5332 14.3933 60.5065 15.5666 60.5865 17.0599C60.8799 21.3266 61.1999 25.5666 61.3065 29.6999C61.3271 29.8779 61.4016 30.0454 61.5199 30.1799C57.6436 30.7367 53.7184 30.8709 49.8132 30.5799L44.9599 30.4199H41.6799C38.6972 30.4812 35.7218 30.7396 32.7732 31.1933C32.6427 31.1828 32.5115 31.2006 32.3886 31.2456C32.2657 31.2907 32.154 31.3617 32.0612 31.454C31.9684 31.5463 31.8966 31.6576 31.8509 31.7802C31.8052 31.9029 31.7865 32.034 31.7963 32.1645C31.806 32.295 31.8439 32.4219 31.9073 32.5364C31.9708 32.6509 32.0582 32.7503 32.1637 32.8278C32.2692 32.9052 32.3902 32.959 32.5185 32.9852C32.6467 33.0115 32.7791 33.0097 32.9065 32.9799C34.9065 32.9799 36.8799 32.9799 38.8265 33.2999C38.6318 33.9831 38.4804 34.6778 38.3732 35.3799C38.3335 35.868 38.3335 36.3585 38.3732 36.8466V38.3133C38.3732 39.4866 38.6665 40.5799 38.7732 41.7266C38.7509 41.9984 38.8362 42.2681 39.0108 42.4775C39.1853 42.687 39.4352 42.8196 39.7065 42.8466C39.8404 42.8613 39.9759 42.8485 40.1046 42.8089C40.2333 42.7693 40.3525 42.7037 40.4549 42.6163C40.5574 42.5288 40.6408 42.4214 40.7001 42.3005C40.7595 42.1796 40.7934 42.0478 40.7999 41.9133C41.1199 40.7399 41.4132 39.6199 41.6265 38.4199C41.6672 37.923 41.6672 37.4236 41.6265 36.9266C41.6797 36.4303 41.6797 35.9296 41.6265 35.4333C41.5343 34.7854 41.4007 34.1441 41.2265 33.5133L43.2799 33.6999C45.6209 33.8997 47.9706 33.9798 50.3199 33.9399C54.3414 33.901 58.3369 33.2904 62.1865 32.1266C62.3187 32.0983 62.4438 32.0439 62.5546 31.9665C62.6653 31.8892 62.7595 31.7904 62.8316 31.6762C62.9036 31.5619 62.9521 31.4343 62.9741 31.301C62.9962 31.1677 62.9913 31.0313 62.9599 30.8999C62.9599 30.7399 62.7999 30.6599 62.7199 30.5533C62.896 30.4891 63.0487 30.3733 63.1581 30.2211C63.2674 30.0689 63.3285 29.8873 63.3332 29.6999C63.6265 26.5799 63.9732 23.3533 64.0265 20.0999C64.0671 18.0069 63.9691 15.9134 63.7332 13.8333Z" fill="black"/>
<path d="M60.1332 48.1C59.9442 47.1879 59.4211 46.3794 58.6665 45.8333C58.0573 45.4529 57.3578 45.2412 56.6399 45.22C55.5595 45.2361 54.4815 45.3252 53.4132 45.4866L43.8932 46.82C43.7747 46.8329 43.6601 46.8698 43.5563 46.9284C43.4525 46.987 43.3616 47.0661 43.2893 47.1609C43.217 47.2556 43.1647 47.3641 43.1356 47.4797C43.1064 47.5953 43.1011 47.7156 43.1199 47.8333C43.1328 47.9518 43.1697 48.0664 43.2283 48.1702C43.2869 48.274 43.366 48.3649 43.4608 48.4372C43.5555 48.5095 43.664 48.5618 43.7796 48.5909C43.8952 48.6201 44.0155 48.6254 44.1332 48.6066L53.7865 48.5H55.7599C58.0799 48.5 56.7465 48.18 57.0132 51.94C57.2532 54.6066 59.3599 54.6066 54.5065 54.7666L44.2665 55.54C43.9954 55.5538 43.7404 55.6731 43.556 55.8724C43.3717 56.0717 43.2725 56.3352 43.2799 56.6066C43.2832 56.7421 43.3137 56.8754 43.3695 56.9989C43.4254 57.1223 43.5053 57.2333 43.6048 57.3253C43.7042 57.4173 43.8211 57.4884 43.9485 57.5344C44.0759 57.5805 44.2113 57.6005 44.3465 57.5933L54.4532 57.7533C55.6495 57.8874 56.8569 57.8874 58.0532 57.7533C58.8412 57.6177 59.573 57.2564 60.1599 56.7133C60.5691 56.1679 60.7849 55.5017 60.7732 54.82C60.7239 53.7749 60.617 52.7333 60.4532 51.7C60.4515 50.4929 60.3444 49.2884 60.1332 48.1Z" fill="black"/>
</svg>
