<svg width="64" height="65" viewBox="0 0 64 65" fill="none" xmlns="http://www.w3.org/2000/svg">
<g clip-path="url(#clip0_1495_864)">
<path fill-rule="evenodd" clip-rule="evenodd" d="M35.7334 29.6733C35.7369 29.5625 35.7182 29.4521 35.6783 29.3487C35.6383 29.2453 35.578 29.151 35.5009 29.0714C35.4238 28.9918 35.3314 28.9285 35.2293 28.8853C35.1273 28.8421 35.0175 28.8199 34.9067 28.8199C33.3067 28.5533 31.8134 28.1799 30.2134 27.9933C29.5295 27.9528 28.8439 27.9528 28.16 27.9933C27.4736 27.9987 26.7881 28.0432 26.1067 28.1266C24.4839 28.3062 22.8786 28.6184 21.3067 29.0599C21.0687 29.1129 20.8598 29.2544 20.7224 29.4557C20.5849 29.657 20.5292 29.9031 20.5665 30.144C20.6038 30.3849 20.7314 30.6026 20.9233 30.7529C21.1153 30.9032 21.3572 30.9748 21.6 30.9533C23.2 30.9533 24.7467 30.9533 26.32 31.1666C27.3771 31.2202 28.4363 31.2202 29.4934 31.1666C31.3067 31.1666 33.04 30.7933 34.8267 30.5799C34.9478 30.5878 35.0692 30.5697 35.1827 30.5269C35.2963 30.4841 35.3994 30.4176 35.4852 30.3318C35.571 30.246 35.6375 30.1429 35.6803 30.0293C35.7231 29.9157 35.7412 29.7944 35.7334 29.6733Z" fill="black"/>
<path fill-rule="evenodd" clip-rule="evenodd" d="M50.0802 40.7134C49.9388 40.5012 49.7188 40.3539 49.4688 40.3039C49.2187 40.2539 48.9591 40.3053 48.7469 40.4467C48.5347 40.5882 48.3874 40.8081 48.3374 41.0581C48.2874 41.3082 48.3388 41.5679 48.4802 41.78C49.7049 43.4383 50.7423 45.2269 51.5735 47.1134C52.0505 48.2008 52.1075 49.4264 51.7335 50.5534C51.2443 51.6793 50.4019 52.6153 49.3335 53.22C47.5359 54.2622 45.62 55.0859 43.6269 55.6734L33.9202 58.9534C31.1415 60.1561 28.2051 60.9553 25.2002 61.3267C23.3648 61.4545 21.5275 61.1055 19.8669 60.3134C19.6535 60.3134 19.5469 60.02 19.4135 59.8067C19.2802 59.5934 18.9335 58.8467 18.7202 58.4467C18.1335 57.2734 17.5469 56.0734 16.9869 54.8734C16.4269 53.6734 16.0002 52.3667 15.4135 51.1667C12.9335 45.0867 10.3735 39.0867 8.40021 32.8734C7.06843 28.746 6.11341 24.5064 5.54688 20.2067C5.53687 20.098 5.50541 19.9923 5.45431 19.8957C5.40322 19.7992 5.33351 19.7138 5.24921 19.6443C5.1649 19.5749 5.06768 19.5229 4.96315 19.4913C4.85862 19.4596 4.74886 19.449 4.64021 19.46C4.52796 19.4701 4.41882 19.5022 4.31907 19.5547C4.21932 19.6071 4.13094 19.6788 4.05904 19.7655C3.98714 19.8523 3.93314 19.9525 3.90016 20.0602C3.86718 20.168 3.85586 20.2812 3.86688 20.3934C4.26333 24.8114 5.05766 29.1847 6.24021 33.46C7.94688 39.8334 10.2935 46.02 12.4802 52.26C12.9602 53.54 13.4669 54.9267 14.0269 56.1C14.5869 57.2734 15.1735 58.6067 15.7869 59.8334C16.154 60.6402 16.6006 61.4085 17.1202 62.1267C17.4773 62.5688 17.9222 62.9321 18.4269 63.1934C20.6011 64.2333 23.0104 64.6839 25.4135 64.5C28.7146 64.068 31.9378 63.1702 34.9869 61.8334L44.5335 58.2334C46.6966 57.4678 48.7566 56.4378 50.6669 55.1667C52.1263 54.2657 53.2574 52.9195 53.8935 51.3267C54.3744 49.6873 54.261 47.9308 53.5735 46.3667C52.6166 44.3617 51.4453 42.4662 50.0802 40.7134Z" fill="black"/>
<path fill-rule="evenodd" clip-rule="evenodd" d="M57.7865 34.2066C54.4531 33.7799 51.1465 33.3266 47.8131 33.1666C45.5998 33.0333 43.3865 33.1666 41.1731 33.0333C40.4804 33.0734 39.7859 33.0734 39.0931 33.0333C38.7348 33.0152 38.3783 32.9706 38.0265 32.8999L38.8531 31.3266C38.9105 31.2324 38.9485 31.1277 38.9648 31.0186C38.9812 30.9096 38.9755 30.7983 38.9482 30.6915C38.9208 30.5846 38.8724 30.4843 38.8057 30.3964C38.739 30.3086 38.6554 30.235 38.5598 30.1799C38.4636 30.1219 38.3568 30.0835 38.2457 30.0668C38.1345 30.0501 38.0212 30.0556 37.9122 30.0829C37.8032 30.1101 37.7006 30.1586 37.6104 30.2256C37.5202 30.2926 37.4441 30.3768 37.3865 30.4733C37.0398 30.9799 36.5598 31.4866 36.1598 32.0199C35.954 32.3099 35.767 32.6128 35.5998 32.9266C35.5231 33.094 35.4834 33.2759 35.4834 33.4599C35.4834 33.644 35.5231 33.8259 35.5998 33.9933C35.9683 34.4097 36.4115 34.7534 36.9065 35.0066C37.0623 35.0718 37.2227 35.1253 37.3865 35.1666C36.8972 35.5999 36.584 36.1977 36.5065 36.8466C36.435 37.3431 36.4932 37.8495 36.6755 38.3168C36.8577 38.7841 37.1578 39.1963 37.5465 39.5133C37.9133 39.8186 38.3404 40.043 38.8 40.1716C39.2596 40.3003 39.7411 40.3304 40.2131 40.2599C40.7187 40.1914 41.198 39.9933 41.6045 39.685C42.011 39.3766 42.3309 38.9684 42.5331 38.4999C42.6989 38.1122 42.7844 37.6949 42.7844 37.2733C42.7844 36.8516 42.6989 36.4343 42.5331 36.0466C44.2398 36.0466 45.9465 36.2866 47.6265 36.3133H48.5331C48.459 36.4957 48.3966 36.6828 48.3465 36.8733C48.275 37.3697 48.3332 37.8762 48.5155 38.3435C48.6977 38.8108 48.9978 39.223 49.3865 39.5399C49.7541 39.8438 50.1814 40.0673 50.6407 40.1959C51.1 40.3245 51.5811 40.3554 52.0531 40.2866C52.554 40.2138 53.0278 40.0137 53.4293 39.7056C53.8308 39.3975 54.1466 38.9916 54.3465 38.5266C54.6384 37.7716 54.6384 36.9349 54.3465 36.1799H57.5198C57.6644 36.2038 57.8125 36.1952 57.9533 36.1547C58.0941 36.1142 58.2242 36.0428 58.334 35.9458C58.4438 35.8488 58.5306 35.7285 58.5881 35.5937C58.6456 35.4589 58.6724 35.313 58.6665 35.1666C58.6673 34.9253 58.5772 34.6925 58.4141 34.5146C58.2511 34.3367 58.027 34.2267 57.7865 34.2066ZM40.2398 36.8733C40.1547 36.9619 40.0417 37.0184 39.9198 37.0333L39.2798 36.8733V36.4199C39.4194 36.2666 39.5929 36.1479 39.7865 36.0733V36.2066C39.9465 36.2066 39.9998 36.3399 40.1065 36.4199C40.2131 36.4999 40.2398 36.7666 40.3198 36.9266L40.2398 36.8733ZM51.5998 36.2066C51.7598 36.2066 51.8131 36.3399 51.9198 36.4199C52.0283 36.5705 52.1013 36.7438 52.1331 36.9266C52.0934 36.9736 52.0446 37.012 51.9896 37.0395C51.9346 37.067 51.8745 37.083 51.8131 37.0866L51.1731 36.9266V36.4733C51.2786 36.3869 51.3952 36.3152 51.5198 36.2599L51.5998 36.2066Z" fill="black"/>
<path fill-rule="evenodd" clip-rule="evenodd" d="M35.1203 21.8332C33.9065 21.3711 32.6582 21.0055 31.3869 20.7399C30.8332 20.6338 30.2707 20.5802 29.7069 20.5799C29.1476 20.5401 28.5862 20.5401 28.0269 20.5799C26.7219 20.7771 25.4369 21.0895 24.1869 21.5132C24.0625 21.5357 23.9437 21.5825 23.8374 21.651C23.7311 21.7196 23.6393 21.8084 23.5675 21.9125C23.4956 22.0166 23.445 22.1338 23.4186 22.2575C23.3922 22.3812 23.3905 22.5089 23.4136 22.6332C23.4329 22.7566 23.4767 22.8748 23.5426 22.981C23.6084 23.0871 23.6948 23.1789 23.7968 23.251C23.8987 23.3232 24.0141 23.3741 24.1361 23.4008C24.2581 23.4275 24.3842 23.4295 24.5069 23.4066C25.7869 23.4066 26.9869 23.5666 28.2136 23.6199H30.6669C32.0803 23.6199 33.3336 23.3532 34.9069 23.2999C35.0156 23.3148 35.1262 23.308 35.2322 23.2798C35.3383 23.2515 35.4376 23.2025 35.5245 23.1355C35.6113 23.0684 35.684 22.9848 35.7382 22.8894C35.7924 22.794 35.8271 22.6888 35.8403 22.5799C35.8235 22.3919 35.7429 22.2154 35.6119 22.0796C35.481 21.9437 35.3075 21.8568 35.1203 21.8332Z" fill="black"/>
<path fill-rule="evenodd" clip-rule="evenodd" d="M29.0669 34.6333C28.4898 34.5929 27.9107 34.5929 27.3336 34.6333C26.751 34.674 26.1719 34.7542 25.6002 34.8733C24.2669 35.14 22.9336 35.54 21.6802 35.9133C21.4423 35.9662 21.2334 36.1077 21.0959 36.309C20.9584 36.5104 20.9027 36.7564 20.94 36.9974C20.9774 37.2383 21.1049 37.4559 21.2969 37.6062C21.4888 37.7565 21.7308 37.8282 21.9736 37.8066H25.8936H27.5736C28.1336 37.8066 28.6669 37.8066 29.2269 37.62C30.5336 37.4066 31.7602 37.06 33.0936 36.8466C33.3199 36.8466 33.5369 36.7567 33.697 36.5967C33.857 36.4367 33.9469 36.2196 33.9469 35.9933C33.9469 35.767 33.857 35.5499 33.697 35.3899C33.5369 35.2299 33.3199 35.14 33.0936 35.14C31.7629 34.8894 30.4182 34.7202 29.0669 34.6333Z" fill="black"/>
<path fill-rule="evenodd" clip-rule="evenodd" d="M4.45335 16.1C3.86669 14.4733 4.88002 13.14 6.58669 11.9133C6.58669 12.98 6.88002 14.02 7.06669 15.06C7.60002 17.8867 8.29335 20.6867 8.85335 23.5133C9.33335 25.86 9.84002 28.2333 10.4534 30.6067C11.36 34.1267 12.4267 37.62 13.68 41.06C20.8267 61.0067 20.16 59.7267 30.1867 57.06C31.4667 56.7133 32.72 56.34 33.9467 55.8867C35.7867 55.2467 37.5734 54.4467 39.28 53.7267C41.6 52.6867 43.92 51.7 46.1867 50.6067C47.7067 49.86 49.2267 49.0867 50.72 48.2333C50.9425 48.1093 51.1083 47.904 51.1828 47.6605C51.2574 47.4169 51.2349 47.154 51.12 46.9267C51.0011 46.7061 50.8006 46.5409 50.5614 46.4661C50.3223 46.3914 50.0634 46.4131 49.84 46.5267C48.32 47.1933 46.8 47.8067 45.2534 48.3667C42.88 49.22 40.5067 49.9933 38.1334 50.7933L32 53.3267C29.9467 54.1533 27.92 55.0067 25.8134 55.6467C24.813 55.9312 23.7982 56.1627 22.7734 56.34C20.88 52.18 19.2534 47.86 17.76 43.46C16.64 40.0733 15.6267 36.6333 14.6134 33.1933C13.6 29.7533 12.4267 26.2867 11.52 22.8733C10.72 20.2067 9.73335 17.38 8.85335 14.6067C8.53335 13.4333 8.24002 12.26 8.02669 11.06C8.69335 10.6867 9.36002 10.3133 10.1334 9.96667C10.9067 9.62 12.5334 8.87333 13.7867 8.5C15.5734 7.83333 17.44 7.16667 19.3334 6.52667C35.3334 1.19333 34.16 2.28667 34.8 4.04667C35.04 4.71333 35.1734 5.43333 35.36 6.07333C35.5467 6.71333 35.9734 7.62 36.4 8.36667C36.8267 9.11333 37.8667 10.3933 38.5867 11.4867C38.6304 11.5901 38.694 11.6838 38.7739 11.7626C38.8539 11.8414 38.9486 11.9036 39.0526 11.9457C39.1567 11.9878 39.268 12.009 39.3802 12.008C39.4925 12.007 39.6034 11.9839 39.7067 11.94C39.8091 11.8991 39.9023 11.8381 39.9808 11.7606C40.0593 11.6832 40.1216 11.5908 40.1638 11.4889C40.206 11.387 40.2275 11.2777 40.2268 11.1674C40.2262 11.0571 40.2035 10.948 40.16 10.8467C39.9683 9.54307 39.6649 8.25835 39.2534 7.00667C38.9195 6.21896 38.5366 5.45301 38.1067 4.71333C37.645 3.9776 37.1466 3.26559 36.6134 2.58C35.6866 1.67933 34.5897 0.972246 33.3867 0.5C28.307 1.00018 23.2824 1.95512 18.3734 3.35333C16.4024 3.91288 14.4695 4.59874 12.5867 5.40667C11.2534 5.99333 9.92002 6.63333 8.85335 7.27333C4.02669 10.1267 1.30669 13.5133 2.88002 16.7667C2.97357 16.9709 3.14168 17.1316 3.34992 17.2159C3.55816 17.3002 3.79074 17.3017 4.00002 17.22C4.10341 17.1763 4.19718 17.1127 4.27595 17.0328C4.35472 16.9528 4.41694 16.8581 4.45905 16.7541C4.50116 16.65 4.52233 16.5387 4.52135 16.4265C4.52038 16.3142 4.49727 16.2033 4.45335 16.1Z" fill="black"/>
<path fill-rule="evenodd" clip-rule="evenodd" d="M21.3335 9.99322C20.4535 10.3132 19.6001 10.6866 18.6668 10.9532C18.1389 11.3271 17.5654 11.6318 16.9601 11.8599C16.9084 11.8416 16.8519 11.8416 16.8001 11.8599C16.6401 11.6999 16.8001 11.8599 16.8001 11.8599C16.9601 12.0199 16.8001 12.0732 17.0935 12.0466C16.704 11.5595 16.2855 11.0964 15.8401 10.6599C15.3222 10.1016 14.77 9.57618 14.1868 9.08655C14.0259 8.95001 13.8202 8.87791 13.6092 8.88417C13.3983 8.89044 13.1972 8.97463 13.0447 9.12048C12.8923 9.26633 12.7992 9.4635 12.7836 9.67393C12.768 9.88435 12.8309 10.0931 12.9601 10.2599C13.3868 10.8199 13.7601 11.3799 14.1335 11.9666C14.5068 12.5532 14.8001 13.1932 15.0935 13.8332C15.291 14.1124 15.556 14.3371 15.8637 14.4863C16.1714 14.6355 16.5119 14.7044 16.8535 14.6866C17.8477 14.6518 18.8334 14.4905 19.7868 14.2066C20.7747 13.8985 21.7375 13.5152 22.6668 13.0599C24.6935 12.0732 26.5868 10.7932 28.6668 9.96655C29.2535 9.80655 29.1468 9.69989 29.7068 7.77989C29.7474 7.55952 29.7474 7.33359 29.7068 7.11322C29.7325 6.90066 29.7325 6.68578 29.7068 6.47322C29.1468 4.01989 28.7468 3.96655 28.2934 3.96655C27.8401 3.96655 27.3601 3.96655 26.6668 6.39322C26.6432 6.61481 26.6432 6.83829 26.6668 7.05989C26.6262 7.28025 26.6262 7.50618 26.6668 7.72655C26.9868 8.92655 27.7335 8.04655 24.2401 9.21989L21.3335 9.99322Z" fill="black"/>
<path fill-rule="evenodd" clip-rule="evenodd" d="M61.3332 19.3533C60.9958 18.5614 60.3651 17.9307 59.5732 17.5933C58.4254 17.1561 57.2231 16.878 55.9999 16.7667C54.1512 16.5405 52.2883 16.4513 50.4265 16.5C47.7599 16.5 45.2265 16.7667 42.6132 17.0067C42.4351 16.5808 42.1922 16.185 41.8932 15.8333C41.226 15.0417 40.4648 14.3342 39.6265 13.7267C39.5492 13.6355 39.4536 13.5617 39.3459 13.5099C39.2381 13.4581 39.1208 13.4295 39.0013 13.4259C38.8818 13.4224 38.7629 13.444 38.6523 13.4893C38.5417 13.5346 38.4419 13.6027 38.3593 13.689C38.2767 13.7754 38.2131 13.8782 38.1728 13.9907C38.1324 14.1032 38.1161 14.2229 38.125 14.3421C38.1338 14.4613 38.1676 14.5773 38.2241 14.6826C38.2807 14.7879 38.3587 14.8801 38.4532 14.9533C38.9046 15.5315 39.3061 16.1471 39.6532 16.7933C39.953 17.3494 40.1517 17.9544 40.2399 18.58C40.3053 18.9952 40.3053 19.4181 40.2399 19.8333C40.1216 20.6454 39.9433 21.4476 39.7065 22.2333L38.6932 27.5667C38.6455 27.738 38.6478 27.9194 38.6998 28.0895C38.7518 28.2595 38.8513 28.4112 38.9865 28.5267H38.6132C38.5011 28.5194 38.3886 28.5344 38.2823 28.5708C38.176 28.6071 38.078 28.664 37.9937 28.7384C37.9095 28.8127 37.8407 28.9029 37.7915 29.0039C37.7422 29.1048 37.7133 29.2145 37.7065 29.3267C37.6992 29.5486 37.7786 29.7647 37.928 29.929C38.0773 30.0933 38.2849 30.1929 38.5065 30.2067C40.4532 30.5533 42.2932 31.0067 44.2132 31.3C45.0399 31.3 45.8665 31.5133 46.6932 31.5667C47.5199 31.62 48.3732 31.5667 49.1999 31.5667C51.1706 31.5306 53.1379 31.3882 55.0932 31.14C55.3478 31.14 55.592 31.0389 55.772 30.8588C55.952 30.6788 56.0532 30.4346 56.0532 30.18C56.0304 30.0236 55.9659 29.8762 55.8665 29.7533C56.0723 29.8854 56.3217 29.9315 56.561 29.8816C56.8004 29.8317 57.0106 29.6899 57.1465 29.4867L59.6265 25.8867C60.3843 24.6231 60.9589 23.2584 61.3332 21.8333C61.5837 21.0256 61.5837 20.161 61.3332 19.3533ZM50.8532 19.3533C50.7052 19.4432 50.5852 19.5725 50.5065 19.7267C49.874 20.5844 49.2865 21.4745 48.7465 22.3933H47.8932C46.3199 22.3933 44.7732 22.6333 43.1732 22.7133C42.9945 22.7036 42.8173 22.7502 42.6665 22.8467C43.0048 21.9853 43.255 21.0918 43.4132 20.18C43.423 19.6877 43.3783 19.1958 43.2799 18.7133C45.1999 18.7133 47.1199 18.9533 49.0399 19.14C49.5999 19.1667 50.2132 19.3 50.8265 19.3533H50.8532ZM45.3332 28.0467C43.6532 28.0467 41.9999 28.0467 40.3465 28.26C40.3465 28.26 40.5332 28.1267 40.5599 28.02L42.3999 23.8067C42.415 23.9606 42.473 24.1071 42.5673 24.2297C42.6616 24.3522 42.7883 24.4459 42.9332 24.5C44.5865 24.9 46.1865 25.3267 47.8665 25.5667C47.8665 26.4733 47.6799 27.3533 47.6532 28.2333C46.8532 28.18 46.0265 28.0733 45.3332 28.0467ZM55.5999 28.2867C55.5023 28.4376 55.4504 28.6136 55.4504 28.7933C55.4504 28.9731 55.5023 29.149 55.5999 29.3C55.448 29.1761 55.2619 29.1017 55.0665 29.0867C53.2532 28.9533 51.4932 28.66 49.7332 28.4467C50.0799 27.5667 50.5332 26.74 50.9065 25.78H51.4932C53.0091 25.8821 54.5154 26.096 55.9999 26.42C56.1484 26.4596 56.3047 26.4596 56.4532 26.42L55.5999 28.2867ZM58.5599 22.2067C58.2815 23.0391 57.9428 23.8502 57.5465 24.6333L57.3065 25.06C57.2562 24.95 57.1824 24.8524 57.0902 24.7741C56.9981 24.6958 56.8898 24.6386 56.7732 24.6067C55.2858 23.8663 53.7206 23.2939 52.1065 22.9H51.8399C51.9732 22.0467 52.0799 21.22 52.1865 20.2333C52.2382 20.0858 52.2456 19.9264 52.2077 19.7747C52.1697 19.6231 52.0882 19.4858 51.9732 19.38C53.1732 19.38 54.3732 19.62 55.5465 19.86L57.3599 20.1C57.7045 20.1606 58.0434 20.2498 58.3732 20.3667C58.3732 20.3667 58.5865 20.3667 58.6399 20.3667C58.7376 20.6708 58.7691 20.9924 58.7323 21.3098C58.6955 21.6271 58.5912 21.9329 58.4265 22.2067H58.5599Z" fill="black"/>
</g>
<defs>
<clipPath id="clip0_1495_864">
<rect width="64" height="64" fill="white" transform="translate(0 0.5)"/>
</clipPath>
</defs>
</svg>
