<svg width="64" height="65" viewBox="0 0 64 65" fill="none" xmlns="http://www.w3.org/2000/svg">
<g clip-path="url(#clip0_1495_916)">
<path fill-rule="evenodd" clip-rule="evenodd" d="M24.4803 58.1803C23.9044 57.7903 23.3841 57.3238 22.9337 56.7936L22.4537 56.5003L24.6937 54.1003L26.7203 51.8603C26.8153 51.8009 26.8972 51.7228 26.9611 51.6308C27.0249 51.5388 27.0694 51.4348 27.0919 51.3251C27.1143 51.2154 27.1142 51.1022 27.0916 50.9925C27.069 50.8828 27.0244 50.7789 26.9603 50.687C26.8984 50.5911 26.8179 50.5087 26.7235 50.4446C26.6292 50.3804 26.5229 50.3358 26.411 50.3134C26.2992 50.2911 26.1839 50.2914 26.0722 50.3143C25.9604 50.3372 25.8544 50.3823 25.7603 50.447L22.9603 52.287C22.347 52.7403 21.227 53.2736 20.2937 53.9136C19.8042 54.3008 19.3963 54.7812 19.0937 55.327C18.9591 55.6055 18.8892 55.9109 18.8892 56.2203C18.8892 56.5297 18.9591 56.8351 19.0937 57.1136C19.4987 57.9119 20.0505 58.6266 20.7203 59.2203C21.288 59.6578 21.895 60.0417 22.5337 60.367C23.8403 60.9803 25.2003 61.3803 26.5337 61.9936C26.7572 62.1212 27.0218 62.1563 27.2709 62.0915C27.52 62.0268 27.7339 61.8672 27.867 61.647C27.9376 61.5383 27.9847 61.4161 28.0055 61.2881C28.0262 61.1602 28.0201 61.0293 27.9875 60.9039C27.9548 60.7785 27.8965 60.6612 27.816 60.5596C27.7356 60.458 27.6349 60.3742 27.5203 60.3136C26.667 59.4603 25.4937 58.8736 24.4803 58.1803Z" fill="black"/>
<path fill-rule="evenodd" clip-rule="evenodd" d="M35.0671 46.9002C34.8546 46.8297 34.6232 46.8429 34.4201 46.937C34.2169 47.0312 34.0573 47.1992 33.9737 47.4069C33.0937 49.1135 32.1071 50.7135 31.3071 52.4469C30.9487 53.1765 30.6282 53.9241 30.3471 54.6869C30.0804 55.4602 29.8137 56.2335 29.6004 57.0069C29.0671 58.8735 28.6937 60.7402 28.3204 62.6335C28.2834 62.7543 28.2706 62.8813 28.2828 63.007C28.2949 63.1328 28.3318 63.2549 28.3913 63.3664C28.4507 63.4779 28.5316 63.5765 28.6293 63.6567C28.7269 63.7369 28.8395 63.797 28.9604 63.8335C29.2079 63.9091 29.4753 63.8843 29.7047 63.7646C29.9342 63.6449 30.1074 63.4398 30.1871 63.1935C30.9337 61.4069 31.8137 59.7269 32.5871 57.8602C33.0937 56.6602 33.5737 55.4869 33.9737 54.2602C34.6671 52.1802 35.0671 50.0469 35.5737 47.9402C35.6353 47.7349 35.6174 47.5139 35.5235 47.3212C35.4297 47.1285 35.2667 46.9782 35.0671 46.9002Z" fill="black"/>
<path fill-rule="evenodd" clip-rule="evenodd" d="M42.9337 52.6065C42.0761 52.0787 41.1853 51.6066 40.267 51.1932C39.4036 50.7846 38.5125 50.4371 37.6004 50.1532C37.4973 50.1043 37.3855 50.0766 37.2716 50.0716C37.1576 50.0667 37.0438 50.0846 36.9369 50.1244C36.83 50.1641 36.7322 50.225 36.6492 50.3032C36.5662 50.3814 36.4997 50.4755 36.4537 50.5799C36.4053 50.681 36.3779 50.7909 36.3732 50.9029C36.3686 51.0149 36.3868 51.1267 36.4267 51.2314C36.4666 51.3362 36.5274 51.4318 36.6054 51.5123C36.6834 51.5928 36.7769 51.6566 36.8804 51.6999C37.6166 52.1675 38.3204 52.6842 38.987 53.2465C39.6555 53.7917 40.2879 54.3796 40.8804 55.0065L41.2004 55.1665C40.8992 55.6461 40.5604 56.1008 40.187 56.5265L38.8804 58.0199L36.587 60.3399C36.3684 60.4818 36.2148 60.7046 36.1599 60.9594C36.1049 61.2142 36.153 61.4804 36.2937 61.6999C36.4441 61.9087 36.6684 62.0525 36.921 62.1021C37.1736 62.1516 37.4355 62.1031 37.6537 61.9665L40.6404 59.9932L42.4004 58.6599C42.9782 58.1232 43.505 57.534 43.9737 56.8999C44.3632 56.3362 44.6102 55.6866 44.6937 55.0065C44.7348 54.7582 44.7176 54.5036 44.6435 54.263C44.5695 54.0224 44.4406 53.8022 44.267 53.6199C43.857 53.2391 43.4104 52.8996 42.9337 52.6065Z" fill="black"/>
<path fill-rule="evenodd" clip-rule="evenodd" d="M37.8401 23.0068C37.8792 22.7539 37.8591 22.4953 37.7814 22.2515C37.7036 22.0077 37.5703 21.7852 37.3919 21.6017C37.2135 21.4181 36.9949 21.2785 36.7534 21.1938C36.5119 21.1091 36.254 21.0816 36.0001 21.1135C35.5604 21.1671 35.1556 21.3798 34.862 21.7114C34.5684 22.043 34.4062 22.4706 34.4062 22.9135C34.4062 23.3564 34.5684 23.784 34.862 24.1156C35.1556 24.4472 35.5604 24.6599 36.0001 24.7135C36.2378 24.7453 36.4796 24.7242 36.7082 24.6517C36.9368 24.5792 37.1465 24.457 37.3224 24.2939C37.4982 24.1308 37.6358 23.9308 37.7253 23.7083C37.8148 23.4858 37.854 23.2462 37.8401 23.0068Z" fill="black"/>
<path fill-rule="evenodd" clip-rule="evenodd" d="M28.1067 23.2734C28.1458 23.0205 28.1257 22.7619 28.048 22.5181C27.9702 22.2743 27.8368 22.0518 27.6585 21.8683C27.4801 21.6847 27.2616 21.5451 27.02 21.4604C26.7785 21.3757 26.5206 21.3482 26.2667 21.3801C25.827 21.4337 25.4222 21.6464 25.1286 21.978C24.835 22.3096 24.6729 22.7372 24.6729 23.1801C24.6729 23.623 24.835 24.0506 25.1286 24.3822C25.4222 24.7138 25.827 24.9265 26.2667 24.9801C26.5026 25.0027 26.7407 24.9751 26.9653 24.8992C27.1898 24.8233 27.3957 24.7007 27.5695 24.5395C27.7433 24.3783 27.881 24.1821 27.9736 23.9639C28.0662 23.7457 28.1115 23.5104 28.1067 23.2734Z" fill="black"/>
<path fill-rule="evenodd" clip-rule="evenodd" d="M28.16 31.8065C28.7316 32.1411 29.3679 32.3502 30.0266 32.4199C30.6605 32.4951 31.3029 32.4499 31.92 32.2865C33.3225 31.9349 34.5638 31.1168 35.44 29.9665C35.6224 29.7819 35.7246 29.5328 35.7246 29.2732C35.7246 29.0136 35.6224 28.7645 35.44 28.5799C35.2553 28.3975 35.0062 28.2952 34.7466 28.2952C34.4871 28.2952 34.238 28.3975 34.0533 28.5799C33.5186 28.9149 32.9213 29.1373 32.2977 29.2336C31.6741 29.3299 31.0375 29.298 30.4266 29.1399C30.0934 29.1035 29.7635 29.0411 29.44 28.9532C28.5773 28.7978 27.8055 28.3214 27.28 27.6199C27.1864 27.4091 27.0138 27.2436 26.7993 27.1588C26.5849 27.074 26.3457 27.0768 26.1333 27.1665C26.0275 27.2072 25.9312 27.2691 25.8504 27.3485C25.7696 27.4279 25.7059 27.5231 25.6634 27.6281C25.6209 27.7331 25.6004 27.8458 25.6033 27.959C25.6061 28.0723 25.6322 28.1838 25.68 28.2865C25.8112 29.0188 26.1013 29.7134 26.5297 30.3215C26.9582 30.9296 27.5146 31.4365 28.16 31.8065Z" fill="black"/>
<path fill-rule="evenodd" clip-rule="evenodd" d="M12.4804 50.1801C12.32 51.2303 12.2398 52.2911 12.2404 53.3534C12.1874 54.4106 12.1874 55.4697 12.2404 56.5268C12.4657 58.9885 12.9119 61.425 13.5737 63.8068C13.5962 63.9312 13.643 64.05 13.7116 64.1563C13.7801 64.2626 13.8689 64.3544 13.973 64.4262C14.0771 64.4981 14.1943 64.5487 14.318 64.5751C14.4417 64.6015 14.5694 64.6032 14.6937 64.5801C14.8199 64.5611 14.9408 64.5165 15.0489 64.449C15.1571 64.3814 15.2504 64.2924 15.3228 64.1875C15.3953 64.0825 15.4455 63.9639 15.4703 63.8387C15.4951 63.7136 15.494 63.5848 15.4671 63.4601C15.4671 62.1268 15.2804 60.7934 15.2537 59.4334C15.2271 58.0734 15.2537 56.7668 15.2537 55.4334V51.4335V46.6868C15.2537 44.6068 13.0137 46.5001 12.5871 48.0201C12.6937 48.9001 12.6137 49.3001 12.4804 50.1801Z" fill="black"/>
<path fill-rule="evenodd" clip-rule="evenodd" d="M40.3733 39.0601C40.1354 38.958 39.8675 38.9509 39.6245 39.0402C39.3815 39.1294 39.1819 39.3083 39.0666 39.5401C38.4344 40.5154 37.5754 41.3232 36.563 41.8944C35.5507 42.4656 34.4151 42.7832 33.2533 42.8201C31.8839 42.9872 30.4948 42.8691 29.1733 42.4734C28.3109 42.2469 27.5035 41.8478 26.8 41.3001C26.3036 40.8841 25.9033 40.3656 25.6266 39.78C25.6266 39.54 25.2533 39.3267 24.5333 39.78C24.5333 39.78 23.6266 40.7401 23.76 41.0867C23.9887 41.8837 24.3892 42.621 24.9333 43.2467C26.0092 44.5088 27.4256 45.4345 29.0133 45.9134C30.5426 46.3355 32.1486 46.3994 33.7066 46.1001C35.2847 45.8464 36.7719 45.194 38.0272 44.2047C39.2826 43.2153 40.2645 41.9218 40.88 40.4467C40.9508 40.3249 40.994 40.189 41.0064 40.0486C41.0188 39.9083 41.0002 39.7669 40.9518 39.6346C40.9035 39.5022 40.8266 39.3821 40.7266 39.2828C40.6266 39.1835 40.506 39.1075 40.3733 39.0601Z" fill="black"/>
<path fill-rule="evenodd" clip-rule="evenodd" d="M48.267 50.4735C48.267 52.0735 48.6403 53.6735 48.8537 55.2735C49.2003 57.6468 49.627 59.9935 49.9203 62.4202C49.9203 62.6748 50.0215 62.919 50.2015 63.099C50.3815 63.279 50.6257 63.3802 50.8803 63.3802C51.1349 63.3802 51.3791 63.279 51.5592 63.099C51.7392 62.919 51.8403 62.6748 51.8403 62.4202C51.8403 59.9935 52.0537 57.6202 51.8403 55.2202C51.8403 54.1802 51.8403 53.1668 51.6003 52.1535C51.5055 51.131 51.3452 50.1155 51.1203 49.1135C51.0073 48.4476 50.856 47.7887 50.667 47.1402C50.4003 46.0735 48.3737 44.1535 47.8403 45.5668C48.0003 47.6735 48.0003 48.3402 48.267 50.4735Z" fill="black"/>
<path fill-rule="evenodd" clip-rule="evenodd" d="M61.8402 58.3668C61.4302 56.7043 60.8771 55.0805 60.1869 53.5135C59.0001 50.9358 57.495 48.5169 55.7068 46.3135C53.8902 44.1204 51.8024 42.167 49.4935 40.5001C46.3458 38.2714 42.752 36.752 38.9602 36.0468C39.8767 35.2701 40.684 34.3731 41.3602 33.3801C43.4308 30.2147 44.491 26.4949 44.4002 22.7135C44.4002 22.4518 44.2962 22.2008 44.1112 22.0158C43.9262 21.8308 43.6752 21.7268 43.4135 21.7268C43.1518 21.7268 42.9009 21.8308 42.7158 22.0158C42.5308 22.2008 42.4268 22.4518 42.4268 22.7135C42.2852 25.4884 41.451 28.1837 40.0002 30.5535C38.7853 32.7661 36.7582 34.4203 34.3469 35.1668C32.238 35.7167 30.0102 35.5956 27.9735 34.8201C26.5768 34.3432 25.2764 33.6208 24.1335 32.6868C22.6755 31.4705 21.5368 29.9163 20.8164 28.1596C20.096 26.4028 19.8158 24.4966 20.0002 22.6068C20.019 22.4961 20.0151 22.3827 19.9887 22.2736C19.9623 22.1644 19.914 22.0618 19.8466 21.972C19.7792 21.8822 19.6942 21.807 19.5969 21.7511C19.4995 21.6952 19.3917 21.6597 19.2802 21.6468C19.0506 21.6163 18.8182 21.6777 18.6335 21.8174C18.4488 21.9572 18.3266 22.1642 18.2935 22.3935C17.8462 24.6352 17.9656 26.9532 18.6408 29.1372C19.316 31.3211 20.5257 33.302 22.1602 34.9001C22.7206 35.4331 23.3275 35.915 23.9735 36.3401C20.5828 37.1143 17.3703 38.5261 14.5069 40.5001C12.2012 42.1505 10.1135 44.0859 8.29352 46.2601C6.50534 48.4636 5.00028 50.8825 3.81352 53.4601C3.12331 55.0271 2.57014 56.651 2.16018 58.3135C1.70926 59.9987 1.52924 61.745 1.62685 63.4868C1.60246 63.6137 1.60722 63.7445 1.64078 63.8694C1.67433 63.9942 1.7358 64.1098 1.82056 64.2074C1.90531 64.3049 2.01112 64.382 2.13001 64.4327C2.24889 64.4834 2.37775 64.5065 2.50685 64.5001C2.61893 64.4967 2.72923 64.4712 2.83144 64.4251C2.93366 64.379 3.02579 64.3132 3.10256 64.2315C3.17934 64.1497 3.23925 64.0537 3.27888 63.9488C3.31851 63.8439 3.33707 63.7322 3.33352 63.6201C3.39014 62.0788 3.69634 60.5568 4.24018 59.1135C4.76805 57.6347 5.42851 56.2067 6.21352 54.8468C7.47218 52.6476 8.96533 50.5911 10.6668 48.7135C11.4402 47.7801 14.4802 45.1401 15.8668 43.7268C16.8592 42.8749 17.901 42.0824 18.9869 41.3535C21.6797 40.0306 24.4702 38.9162 27.3335 38.0201C29.9044 38.9438 32.697 39.0555 35.3335 38.3401C35.6002 38.3401 35.8402 38.0201 36.1068 37.9135C37.3956 38.1474 38.6691 38.4591 39.9202 38.8468C41.7877 39.4649 43.5774 40.2971 45.2535 41.3268C48.2709 43.3989 50.9896 45.8753 53.3335 48.6868C54.9573 50.5698 56.4202 52.5858 57.7068 54.7135C58.4919 56.0733 59.1523 57.5014 59.6802 58.9801C60.224 60.4235 60.5302 61.9454 60.5868 63.4868C60.5833 63.5989 60.6019 63.7106 60.6415 63.8154C60.6811 63.9203 60.741 64.0164 60.8178 64.0981C60.8946 64.1799 60.9867 64.2457 61.0889 64.2918C61.1911 64.3379 61.3014 64.3634 61.4135 64.3668C61.5256 64.3704 61.6373 64.3518 61.7422 64.3122C61.8471 64.2725 61.9431 64.2126 62.0248 64.1358C62.1066 64.0591 62.1724 63.9669 62.2185 63.8647C62.2646 63.7625 62.2901 63.6522 62.2935 63.5401C62.4172 61.8026 62.2642 60.0564 61.8402 58.3668Z" fill="black"/>
<path fill-rule="evenodd" clip-rule="evenodd" d="M12.5334 22.3401C13.8668 21.9225 15.231 21.6105 16.6134 21.4067C18.72 21.0601 20.88 20.8734 22.9867 20.6601C25.6534 20.3401 28 20.1801 30.4534 20.0201C32.9067 19.8601 35.44 19.7001 37.92 19.7267C41.296 19.7491 44.6655 20.0254 48 20.5534C48.2455 20.5874 48.4948 20.5277 48.6983 20.3863C48.9018 20.2448 49.0447 20.032 49.0984 19.7901C49.1522 19.5481 49.113 19.2948 48.9885 19.0805C48.864 18.8662 48.6635 18.7066 48.4267 18.6334C47.84 18.4734 47.28 18.4201 46.6934 18.2867C46.9418 17.4196 47.0675 16.522 47.0667 15.6201C46.9512 14.0591 46.6099 12.5231 46.0534 11.0601C45.6063 9.90399 45.0435 8.79613 44.3734 7.75339C43.6762 6.69697 42.8322 5.74519 41.8667 4.92673C40.1963 3.53877 38.1576 2.6677 36 2.42006C35.1279 1.57024 34.0544 0.955523 32.88 0.633392C30.8805 0.207761 28.7992 0.393594 26.9067 1.16673C25.9279 1.54559 25.0248 2.09649 24.24 2.79339C24.0917 2.96891 23.958 3.1562 23.84 3.35339C21.7264 4.07504 19.8156 5.29098 18.2667 6.90006C17.4847 7.70276 16.804 8.59833 16.24 9.56673C15.6613 10.5663 15.2047 11.6317 14.88 12.7401C14.3343 15.0099 14.3343 17.3768 14.88 19.6467C13.9104 19.9194 12.9577 20.2489 12.0267 20.6334C11.9039 20.6653 11.7895 20.7234 11.6913 20.8037C11.593 20.884 11.5133 20.9846 11.4576 21.0986C11.4019 21.2125 11.3714 21.3372 11.3684 21.4641C11.3654 21.5909 11.3898 21.7169 11.44 21.8334C11.4756 21.9406 11.5327 22.0393 11.6079 22.1236C11.683 22.2078 11.7747 22.2758 11.8771 22.3232C11.9795 22.3707 12.0906 22.3967 12.2035 22.3996C12.3164 22.4025 12.4286 22.3822 12.5334 22.3401ZM40.6934 8.34006C41.6315 9.53366 42.4447 10.8204 43.12 12.1801C43.6545 13.12 44.0923 14.1118 44.4267 15.1401C44.6676 16.0074 44.7311 16.9143 44.6134 17.8067C42.0369 17.2702 39.4261 16.9137 36.8 16.7401C37.04 15.8867 37.3334 15.0067 37.4934 14.0734C37.7646 12.7679 37.9782 11.4511 38.1334 10.1267C38.227 9.02649 38.227 7.92029 38.1334 6.82006C38.0665 6.27228 37.9321 5.73486 37.7334 5.22006C38.0534 5.43339 38.3734 5.64673 38.6667 5.88673C39.4168 6.63991 40.0953 7.46123 40.6934 8.34006ZM28.1334 4.20673C29.3585 3.7103 30.6993 3.57159 32 3.80673C32.6101 3.92152 33.1862 4.17312 33.685 4.54263C34.1839 4.91213 34.5924 5.38992 34.88 5.94006C35.1776 6.51213 35.3589 7.13751 35.4134 7.78006C35.4801 8.56086 35.4801 9.34593 35.4134 10.1267C35.4134 11.5134 35.28 12.7934 35.1467 13.9134C35.0124 14.8125 34.8254 15.7029 34.5867 16.5801C32.6593 16.4738 30.7275 16.4738 28.8 16.5801C27.8134 16.5801 26.8 16.8734 25.8134 17.0334C25.5734 16.0201 25.36 15.0334 25.2267 14.0467C25.1014 12.7618 25.048 11.4709 25.0667 10.1801C25.0049 9.29224 25.0049 8.40121 25.0667 7.51339C25.1406 7.02939 25.2937 6.56089 25.52 6.12673C25.737 5.71303 26.0589 5.36359 26.4534 5.11339C26.9735 4.74248 27.5378 4.4379 28.1334 4.20673ZM19.0934 11.3001C19.5364 10.4556 20.054 9.65237 20.64 8.90006C21.1342 8.24608 21.6877 7.63906 22.2934 7.08673C22.2804 8.15833 22.3607 9.22904 22.5334 10.2867C22.7065 11.7318 22.9647 13.1654 23.3067 14.5801C23.5418 15.554 23.8266 16.5153 24.16 17.4601L22.56 17.7001C20.5867 18.1801 18.6667 18.6067 16.72 19.1667C16.7849 17.3353 17.1731 15.5297 17.8667 13.8334C18.2332 12.9691 18.6426 12.1236 19.0934 11.3001Z" fill="black"/>
</g>
<defs>
<clipPath id="clip0_1495_916">
<rect width="64" height="64" fill="white" transform="translate(0 0.5)"/>
</clipPath>
</defs>
</svg>
