<svg width="64" height="65" viewBox="0 0 64 65" fill="none" xmlns="http://www.w3.org/2000/svg">
<g clip-path="url(#clip0_1495_1063)">
<path fill-rule="evenodd" clip-rule="evenodd" d="M51.4403 11.1666C51.2269 6.28658 46.4003 6.97992 44.8536 7.93992C44.102 8.46068 43.5109 9.18111 43.1469 10.0199C42.8654 10.7098 42.7936 11.4675 42.9407 12.198C43.0877 12.9285 43.447 13.5993 43.9736 14.1266C44.4299 14.657 44.9943 15.0837 45.629 15.378C46.2637 15.6724 46.954 15.8276 47.6536 15.8332C48.7535 15.6687 49.752 15.0985 50.4528 14.2349C51.1535 13.3713 51.5058 12.2768 51.4403 11.1666ZM47.4403 12.4999C47.2222 12.477 47.0109 12.411 46.8187 12.3057C46.6264 12.2004 46.457 12.058 46.3203 11.8866C46.0677 11.706 45.8731 11.4558 45.7603 11.1666C45.7603 11.1666 45.6003 11.0066 45.6269 10.9266C45.6901 10.4269 45.8935 9.95542 46.2136 9.56658C46.4054 9.35457 46.6559 9.20445 46.9333 9.13533C47.2107 9.06621 47.5024 9.08123 47.7713 9.17847C48.0401 9.27571 48.2739 9.45077 48.4429 9.68135C48.6119 9.91194 48.7085 10.1876 48.7203 10.4732C48.8536 11.4066 48.4003 12.5266 47.4403 12.4999Z" fill="black"/>
<path fill-rule="evenodd" clip-rule="evenodd" d="M29.3333 16.2866C29.5368 16.2527 29.7344 16.1899 29.92 16.0999C32.32 14.9266 32.1067 14.6333 32.1067 14.4199C32.1067 13.3266 29.6 12.9799 29.44 12.9533C29.1838 12.9124 28.9228 12.9124 28.6667 12.9533C28.4208 13.0117 28.1865 13.1109 27.9733 13.2466C25.7067 14.5266 25.76 14.9799 25.8667 15.4599C25.9467 16.4999 29.1733 16.2866 29.3333 16.2866Z" fill="black"/>
<path fill-rule="evenodd" clip-rule="evenodd" d="M19.0668 19.5131C19.2265 19.421 19.3706 19.304 19.4934 19.1665C21.2001 17.2998 20.8801 17.0065 20.8001 16.8198C20.4268 15.8865 17.9201 16.4998 17.8668 16.4998C17.628 16.5679 17.4025 16.6761 17.2001 16.8198C17.0036 16.9678 16.8247 17.1378 16.6668 17.3265C14.9601 19.5665 15.6268 19.9931 15.7868 20.2331C16.3468 20.7665 19.0134 19.5398 19.0668 19.5131Z" fill="black"/>
<path fill-rule="evenodd" clip-rule="evenodd" d="M8.95993 30.6865C9.57326 30.8999 9.86659 30.6865 11.3599 28.7665C11.4997 28.5812 11.6246 28.385 11.7333 28.1799C11.8606 27.975 11.9509 27.7494 11.9999 27.5132C12.6933 24.8465 12.1599 24.6332 11.9999 24.4999C11.2533 24.0465 9.33326 25.8065 9.33326 26.0199C9.16076 26.2212 9.01715 26.4456 8.90659 26.6865C8.78234 26.9307 8.6926 27.191 8.63993 27.4599C7.99993 30.4732 8.71993 30.6065 8.95993 30.6865Z" fill="black"/>
<path fill-rule="evenodd" clip-rule="evenodd" d="M8.93344 40.2599C8.96008 40.0206 8.96008 39.7791 8.93344 39.5399C8.90542 39.3123 8.85174 39.0887 8.77344 38.8732C7.84011 36.2065 7.36011 36.3932 7.12011 36.3932C6.26678 36.3932 5.70678 38.6332 5.62678 39.0599C5.58665 39.334 5.58665 39.6124 5.62678 39.8865C5.6785 40.1522 5.75898 40.4115 5.86678 40.6599C7.01344 43.4865 7.70678 43.1399 7.94678 43.0865C8.18678 43.0332 8.77344 42.9799 8.93344 40.2599Z" fill="black"/>
<path fill-rule="evenodd" clip-rule="evenodd" d="M11.2267 49.5666C11.1702 49.3987 11.0794 49.2443 10.9601 49.1133C9.30673 47.1399 8.82673 47.5933 8.77339 47.5933C7.92006 47.8599 8.02673 50.2599 8.02673 50.2599C8.03133 50.486 8.09573 50.7068 8.21339 50.8999C8.30619 51.1059 8.43233 51.2951 8.58673 51.4599C10.2667 53.1933 10.8534 52.9799 11.2534 52.7399C11.6534 52.4999 11.2534 49.6199 11.2267 49.5666Z" fill="black"/>
<path fill-rule="evenodd" clip-rule="evenodd" d="M17.4936 58.0999C17.1942 57.7803 16.8534 57.5023 16.4803 57.2732C16.4803 57.2732 13.6003 55.8065 13.0136 56.4999C12.427 57.1932 14.2136 59.4865 14.267 59.5132C14.4527 59.7524 14.6677 59.9674 14.907 60.1532C15.1618 60.3243 15.4292 60.4758 15.707 60.6065C18.7203 61.9399 19.067 61.0865 19.2003 60.8199C19.3336 60.5532 19.5203 60.1265 17.4936 58.0999Z" fill="black"/>
<path fill-rule="evenodd" clip-rule="evenodd" d="M52.0803 53.3798C51.9155 53.5359 51.7638 53.7053 51.627 53.8865C51.4958 54.0817 51.3799 54.2867 51.2803 54.4998C50.2403 57.0331 50.6937 57.1665 50.8803 57.4065C51.6003 58.0731 53.787 56.4198 53.8403 56.3931C54.0433 56.2194 54.2147 56.0119 54.347 55.7798C54.5028 55.5574 54.6283 55.3153 54.7203 55.0598C55.707 52.2331 54.9603 52.0198 54.7203 51.8865C54.4803 51.7531 53.8137 51.6998 52.0803 53.3798Z" fill="black"/>
<path fill-rule="evenodd" clip-rule="evenodd" d="M56.6132 38.8466C55.9732 38.8466 55.7332 38.8466 54.9599 42.0466C54.9599 42.3399 54.8265 42.6332 54.7732 42.9532C54.7199 43.2732 54.7732 43.5666 54.7732 43.8599C54.7732 47.2199 55.3332 47.1132 55.6265 47.1932C56.6132 47.4599 57.7065 44.9532 57.9199 44.3399C58.0165 43.9989 58.0878 43.6513 58.1332 43.2999C58.1728 42.9454 58.1728 42.5877 58.1332 42.2332C57.7065 38.6866 56.9332 38.8466 56.6132 38.8466Z" fill="black"/>
<path fill-rule="evenodd" clip-rule="evenodd" d="M58.16 30.9266C58.0708 30.594 57.9456 30.2721 57.7867 29.9666C56.1334 26.7933 55.3867 27.2999 55.12 27.2999C54.8534 27.2999 54.32 27.8066 54.8267 30.8733C54.8847 31.3853 55.0102 31.8875 55.2 32.3666C55.2 32.3666 56.6667 35.5933 57.6534 35.2999C57.9734 35.2999 58.6134 35.0866 58.3734 31.8333C58.3465 31.5223 58.2746 31.2169 58.16 30.9266Z" fill="black"/>
<path fill-rule="evenodd" clip-rule="evenodd" d="M38.4535 17.1933C38.8863 18.3926 39.4031 19.56 40.0002 20.6866C40.694 21.9541 41.497 23.1586 42.4002 24.2866C43.7386 25.8914 45.1629 27.4225 46.6668 28.8733C46.7444 28.9672 46.8406 29.044 46.9494 29.0988C47.0582 29.1537 47.1772 29.1853 47.2988 29.1917C47.4205 29.1982 47.5421 29.1793 47.6561 29.1363C47.7701 29.0933 47.8739 29.0271 47.9609 28.9419C48.048 28.8567 48.1164 28.7543 48.1619 28.6413C48.2073 28.5283 48.2288 28.407 48.225 28.2853C48.2211 28.1635 48.1921 28.0439 48.1396 27.9339C48.0871 27.824 48.0124 27.7262 47.9202 27.6466C46.5403 26.1854 45.2575 24.6354 44.0802 23.0066C43.3228 21.9578 42.6792 20.8315 42.1602 19.6466C41.6733 18.6298 41.2633 17.578 40.9335 16.4999C40.6233 15.3977 40.3916 14.2749 40.2402 13.1399C40.1851 12.3676 40.1851 11.5923 40.2402 10.8199C40.2448 10.1387 40.3619 9.46296 40.5868 8.81992C41.1005 7.1585 42.2087 5.74482 43.6995 4.84938C45.1902 3.95394 46.9588 3.63963 48.6668 3.96659C50.3765 4.18716 51.9352 5.05887 53.0182 6.40014C54.1011 7.74141 54.6248 9.44879 54.4802 11.1666C54.3608 13.9021 53.8119 16.6017 52.8535 19.1666C51.8788 21.7147 50.3693 24.0243 48.4268 25.9399C48.2359 26.1203 48.1244 26.3691 48.1169 26.6316C48.1094 26.8942 48.2065 27.149 48.3868 27.3399C48.5672 27.5309 48.816 27.6424 49.0785 27.6499C49.3411 27.6574 49.5959 27.5603 49.7868 27.3799C52.0634 25.3613 53.8819 22.8791 55.1202 20.0999C56.3032 17.351 57.0586 14.4373 57.3602 11.4599C57.7287 8.95524 57.0958 6.4062 55.5984 4.36482C54.1011 2.32345 51.8599 0.954073 49.3602 0.553257C46.885 0.0371147 44.3063 0.464929 42.1304 1.75269C39.9546 3.04046 38.3387 5.09513 37.6002 7.51326C37.3421 8.31491 37.2072 9.15111 37.2002 9.99326C37.1239 11.1503 37.1686 12.3122 37.3335 13.4599C37.5997 14.734 37.9744 15.983 38.4535 17.1933Z" fill="black"/>
<path fill-rule="evenodd" clip-rule="evenodd" d="M53.8399 38.26C53.9632 36.3094 53.8738 34.3512 53.5732 32.42C53.3019 31.1069 52.8628 29.8342 52.2666 28.6333C52.2149 28.5138 52.1395 28.406 52.0449 28.3165C51.9503 28.227 51.8385 28.1577 51.7163 28.1128C51.594 28.0679 51.464 28.0483 51.3339 28.0553C51.2039 28.0623 51.0766 28.0956 50.9599 28.1533C50.7234 28.2634 50.5401 28.4627 50.4502 28.7076C50.3602 28.9524 50.3709 29.223 50.4799 29.46C51.0934 30.7817 51.4809 32.1968 51.6266 33.6466C51.7192 35.014 51.7192 36.386 51.6266 37.7533C48.9599 38.0733 46.2932 38.5 43.6266 38.7933H43.0399C43.0228 37.8123 42.9516 36.8331 42.8266 35.86C42.5665 34.0437 42.1288 32.2574 41.5199 30.5266C40.0786 26.5561 38.0175 22.839 35.4132 19.5133C35.3223 19.4038 35.2081 19.3158 35.079 19.2559C34.9498 19.1959 34.8089 19.1654 34.6666 19.1666C34.8124 19.0023 34.9053 18.7979 34.9332 18.58C34.9404 18.4657 34.9246 18.3512 34.8866 18.2432C34.8486 18.1352 34.7893 18.0359 34.7122 17.9513C34.635 17.8667 34.5417 17.7985 34.4376 17.7508C34.3336 17.703 34.221 17.6767 34.1066 17.6733C30.15 17.337 26.1892 18.2711 22.7999 20.34C19.5504 22.4983 16.8185 25.3486 14.7999 28.6866C12.2736 32.8502 11.2479 37.7528 11.8932 42.58C12.1319 45.0716 12.9387 47.4754 14.2516 49.6065C15.5645 51.7377 17.3485 53.5394 19.4666 54.8733C22.8343 56.77 26.5904 57.8736 30.4489 58.1C34.3074 58.3265 38.1667 57.6698 41.7332 56.18C45.2928 54.7188 48.341 52.2381 50.4951 49.0498C52.6491 45.8615 53.8128 42.1076 53.8399 38.26ZM38.3999 31.5133C38.8416 33.1289 39.1976 34.7668 39.4666 36.42C39.4666 37.3 39.6532 38.18 39.7599 39.0866C37.0932 39.2466 34.5866 39.0866 31.9466 39.0866C30.3732 39.0866 28.7732 39.0866 27.1999 38.9C27.1999 38.34 27.1999 37.7533 27.3866 37.1933C27.6757 35.3946 28.0675 33.6139 28.5599 31.86C29.8666 27.06 33.0132 19.3 33.8932 20.58C35.8935 23.9986 37.4102 27.6781 38.3999 31.5133ZM23.9999 22.3666C26.2742 20.8638 28.8852 19.9477 31.5999 19.7C29.0067 23.1442 26.9397 26.9547 25.4666 31.0066C24.8104 32.871 24.3196 34.7895 23.9999 36.74V38.8733C20.9332 38.6333 17.9199 38.2333 14.9332 37.7533C15.0805 35.1333 15.819 32.5806 17.0932 30.2866C18.774 27.1632 21.1342 24.4567 23.9999 22.3666ZM14.9332 42.34C14.8181 41.545 14.7557 40.7432 14.7466 39.94C17.6532 40.66 20.6399 41.2466 23.6799 41.7V42.7133C23.7703 46.5423 24.3164 50.3468 25.3066 54.0466C23.8439 53.599 22.4388 52.9814 21.1199 52.2066C19.4194 51.1313 17.9843 49.6852 16.9221 47.9764C15.8599 46.2677 15.1982 44.3408 14.9866 42.34H14.9332ZM27.4666 54.58C26.7681 50.6923 26.4999 46.7396 26.6666 42.7933V42.1266C28.7999 42.34 30.9332 42.5 33.0666 42.5C35.1999 42.5 37.5999 42.3133 39.8132 42.1C40.0003 45.8419 39.7407 49.5928 39.0399 53.2733C38.9584 53.4972 38.9584 53.7427 39.0399 53.9666C35.3214 55.1846 31.3467 55.3962 27.5199 54.58H27.4666ZM41.1999 53.2466C42.3314 49.4519 42.959 45.525 43.0666 41.5666L43.9199 41.4066C46.3732 40.8733 48.7732 40.2333 51.2266 39.7C50.8937 42.6328 49.7976 45.4272 48.0476 47.8042C46.2976 50.1812 43.9549 52.0577 41.2532 53.2466H41.1999Z" fill="black"/>
<path fill-rule="evenodd" clip-rule="evenodd" d="M26.9601 61.3798L26.1067 61.1665C25.814 61.1401 25.5195 61.1401 25.2267 61.1665C21.9734 61.1665 22.0001 61.6998 21.9201 61.9665C21.6534 62.9265 24.3201 64.1532 24.5868 64.2865C24.9097 64.4195 25.2518 64.5005 25.6001 64.5265C25.9554 64.5596 26.3135 64.5507 26.6667 64.4998C30.1601 64.2065 30.0268 63.2732 30.0268 62.9532C29.9734 62.1532 29.6534 62.1265 26.9601 61.3798Z" fill="black"/>
<path fill-rule="evenodd" clip-rule="evenodd" d="M36.5867 60.7399H35.8934C35.6627 60.7815 35.4386 60.8532 35.2267 60.9533C32.56 62.0199 32.8 62.4733 32.8 62.7133C32.8 63.5933 35.1467 64.0199 35.7067 64.0733C35.9808 64.113 36.2592 64.113 36.5334 64.0733C36.8108 64.008 37.0794 63.9095 37.3334 63.7799C40 62.4199 39.7067 61.6733 39.6267 61.4333C39.3867 60.7933 39.0134 60.7133 36.5867 60.7399Z" fill="black"/>
<path fill-rule="evenodd" clip-rule="evenodd" d="M45.76 58.4999C45.3502 58.5657 44.9481 58.6729 44.56 58.8199C44.56 58.8199 41.76 60.3132 41.8933 61.2199C42.0266 62.1265 45.0133 61.9932 45.0666 61.9932C45.3672 61.9724 45.6634 61.9095 45.9466 61.8065C46.2381 61.721 46.5164 61.5953 46.7733 61.4332C49.2 59.9399 49.1733 59.1932 48.9066 58.7665C48.64 58.3399 48.5866 57.9932 45.76 58.4999Z" fill="black"/>
</g>
<defs>
<clipPath id="clip0_1495_1063">
<rect width="64" height="64" fill="white" transform="translate(0 0.5)"/>
</clipPath>
</defs>
</svg>
