<svg width="64" height="64" viewBox="0 0 64 64" fill="none" xmlns="http://www.w3.org/2000/svg">
<g clip-path="url(#clip0_1702_784)">
<path fill-rule="evenodd" clip-rule="evenodd" d="M41.5995 5.33337C41.8129 6.4267 41.7595 7.41337 42.7995 7.44003C43.8395 7.4667 43.7329 6.6667 44.2929 5.36003C46.2129 5.01337 46.9595 5.17337 46.9595 4.24003C46.9595 3.3067 46.1595 3.0667 44.6395 2.53337C44.1862 0.240033 43.9729 -0.133301 43.3595 -0.133301C42.7462 -0.133301 42.6129 0.266699 41.7062 2.08003C38.8795 2.53337 38.6395 2.8267 38.5595 3.3867C38.4795 3.9467 38.4262 4.53337 41.5995 5.33337Z" fill="#000209"/>
<path fill-rule="evenodd" clip-rule="evenodd" d="M57.4132 37.0666C56.8799 35.7066 56.8532 34.6933 55.8932 34.7999C54.9332 34.9066 55.1999 35.5466 54.7732 37.2266H54.5332C50.6665 38.2933 50.8532 38.7733 50.8799 39.1733C50.9065 39.5733 51.3599 40.1866 54.6932 40.4266C55.5732 44.2133 56.3465 43.9199 56.6932 43.8933C57.0399 43.8666 57.7332 43.4666 57.9465 40.1333V39.9999C60.6132 39.2266 61.2532 39.2533 61.2265 38.2666C61.1999 37.2799 60.8799 37.3333 57.4132 37.0666Z" fill="#000209"/>
<path fill-rule="evenodd" clip-rule="evenodd" d="M13.84 21.3333C13.0297 21.3771 12.2302 21.5388 11.4666 21.8133C11.1167 21.9708 10.8102 22.2107 10.5733 22.5126C10.3364 22.8145 10.1763 23.1693 10.1066 23.5466C9.88361 24.8232 9.77651 26.1174 9.78663 27.4133C9.78663 30.24 9.59996 33.0666 9.62663 35.92C9.62663 37.84 9.62663 39.76 9.86663 41.6533C10.0533 44.32 9.86663 50.72 10.0266 53.4933C9.99466 53.9639 9.99466 54.4361 10.0266 54.9066C10.0499 55.2055 10.154 55.4924 10.3278 55.7367C10.5016 55.9809 10.7386 56.1733 11.0133 56.2933C12.4495 56.6031 13.918 56.7374 15.3866 56.6933C19.9466 56.6933 27.36 56.5333 30.2933 56.4533L38.16 56.08C38.16 56.08 39.7066 56.08 40.2666 55.9466C40.5739 55.9191 40.8626 55.788 41.0855 55.5748C41.3084 55.3616 41.4522 55.079 41.4933 54.7733C41.5406 53.885 41.5406 52.9949 41.4933 52.1066C41.3333 50.0266 40.9866 47.68 40.7733 46.1333C40.76 45.9999 40.7204 45.8705 40.6568 45.7526C40.5931 45.6347 40.5067 45.5305 40.4025 45.4462C40.2984 45.3619 40.1785 45.299 40.0499 45.2614C39.9213 45.2237 39.7865 45.2119 39.6533 45.2266C39.3817 45.2601 39.1342 45.3992 38.9645 45.6138C38.7948 45.8284 38.7165 46.1013 38.7466 46.3733C38.7466 47.68 39.0933 49.6 39.2 51.44V53.44L38.1066 53.68H30.2933C28.0533 53.68 23.3066 53.68 19.1733 53.52C16.7466 53.52 14.56 53.52 13.36 53.36C13.36 50.5066 13.36 44 13.2 41.36C13.04 39.52 12.9866 37.68 12.9333 35.84V27.3866C12.88 23.4933 10.6666 24.5866 18.9333 23.84L35.2533 22.7733C35.4938 22.7556 35.7174 22.6431 35.8749 22.4606C36.0324 22.2781 36.111 22.0404 36.0933 21.8C36.0756 21.5595 35.9631 21.3359 35.7806 21.1784C35.5981 21.0209 35.3604 20.9423 35.12 20.96L18.6666 21.3333H13.84Z" fill="#000209"/>
<path fill-rule="evenodd" clip-rule="evenodd" d="M6.37311 28.7734C6.37311 24.9601 6.69311 21.1734 7.09311 17.3868H7.41311C8.81283 17.1388 10.2316 17.0139 11.6531 17.0134C12.5864 17.0134 13.5464 17.0134 14.5064 16.8534C21.6264 16.0001 18.6664 16.9868 21.0664 13.6801C21.4043 13.1668 21.8283 12.7157 22.3198 12.3468C22.8564 11.8934 23.4708 11.541 24.1331 11.3068C24.5192 11.1347 24.9371 11.0458 25.3598 11.0458C25.7824 11.0458 26.2004 11.1347 26.5864 11.3068C28.2902 12.3255 29.5543 13.9413 30.1331 15.8401C30.1671 15.9703 30.2266 16.0924 30.3083 16.1993C30.39 16.3062 30.4922 16.3958 30.6088 16.4628C30.7255 16.5299 30.8543 16.573 30.9878 16.5897C31.1214 16.6064 31.2569 16.5963 31.3864 16.5601C31.6258 16.4644 31.8212 16.2831 31.9345 16.0515C32.0478 15.82 32.0711 15.5545 31.9998 15.3068C31.8105 13.7342 31.2206 12.2366 30.2868 10.9573C29.353 9.67794 28.1064 8.65972 26.6664 8.00009C25.9383 7.78631 25.1738 7.7257 24.4211 7.82208C23.6684 7.91846 22.9439 8.16975 22.2931 8.56009C21.5256 9.00988 20.8403 9.58701 20.2664 10.2668C19.6802 10.9739 19.2202 11.7768 18.9064 12.6401C18.7185 13.1556 18.5582 13.6808 18.4264 14.2134C17.3413 13.9313 16.2357 13.7351 15.1198 13.6268C14.472 13.5734 13.8209 13.5734 13.1731 13.6268C12.5096 13.6814 11.8505 13.7794 11.1998 13.9201C5.19977 15.3068 4.47977 13.9201 3.19977 30.8534C3.01311 33.0134 2.93311 35.1734 2.93311 37.3334V43.7868C3.22644 48.8001 3.75977 53.7868 4.37311 58.7734C4.38305 58.9091 4.42022 59.0414 4.4824 59.1624C4.54458 59.2835 4.63049 59.3907 4.73501 59.4778C4.83953 59.5649 4.96052 59.6301 5.09076 59.6694C5.22101 59.7087 5.35784 59.7214 5.49311 59.7068C5.75697 59.6737 5.99895 59.5432 6.17161 59.3409C6.34427 59.1387 6.43515 58.8792 6.42644 58.6134C6.15977 52.6668 6.15977 46.7201 6.23977 40.7468V33.6534C6.34644 32.0001 6.34644 30.3468 6.37311 28.7734Z" fill="#000209"/>
<path fill-rule="evenodd" clip-rule="evenodd" d="M46.7729 37.7333C46.7505 37.6158 46.7051 37.5039 46.6393 37.404C46.5735 37.3041 46.4886 37.2182 46.3894 37.1513C46.2903 37.0843 46.1789 37.0377 46.0616 37.014C45.9444 36.9904 45.8236 36.9901 45.7062 37.0133C45.4723 37.0648 45.267 37.2042 45.133 37.4027C44.999 37.6013 44.9464 37.8438 44.9862 38.08C45.2181 40.9808 45.2626 43.8935 45.1196 46.8C45.1196 48.72 45.1196 50.64 44.9862 52.5333C44.9077 54.5964 44.649 56.6487 44.2129 58.6667C44.1358 58.9284 44.1619 59.2097 44.286 59.4528C44.41 59.6958 44.6224 59.8821 44.8796 59.9733C45.1377 60.0494 45.4153 60.0225 45.654 59.8982C45.8927 59.7738 46.0739 59.5618 46.1596 59.3067C47.1588 56.9113 47.8661 54.4044 48.2662 51.84C48.4456 50.7465 48.5436 49.6413 48.5596 48.5333C48.6257 47.4321 48.6257 46.3279 48.5596 45.2267C48.1777 42.6827 47.58 40.1759 46.7729 37.7333Z" fill="#000209"/>
<path fill-rule="evenodd" clip-rule="evenodd" d="M43.0933 59.9199C41.0053 60.3569 38.8797 60.5891 36.7466 60.6132C33.4666 60.6132 30.1066 60.6132 26.96 60.4799C25.3333 60.4799 23.7333 60.4799 22.1333 60.6666C19.7333 60.7999 17.3333 61.0399 14.9333 61.1199H9.81329C9.69409 61.1051 9.57313 61.114 9.45743 61.1463C9.34173 61.1786 9.23359 61.2336 9.13931 61.308C9.04503 61.3824 8.96648 61.4748 8.90822 61.5799C8.84997 61.6849 8.81316 61.8005 8.79996 61.9199C8.78415 62.155 8.85783 62.3873 9.00621 62.5703C9.1546 62.7533 9.3667 62.8735 9.59995 62.9066C12.4947 63.3888 15.4153 63.7005 18.3466 63.8399C19.52 63.8399 20.6666 63.8399 21.84 63.9999H27.0133C30.24 63.8399 33.6266 63.7866 36.9866 63.3866C39.2388 63.1214 41.4616 62.6482 43.6266 61.9732C43.8916 61.8986 44.1162 61.722 44.2512 61.4821C44.3861 61.2421 44.4205 60.9585 44.3466 60.6932C44.3153 60.5601 44.2579 60.4344 44.1779 60.3234C44.0979 60.2125 43.9968 60.1184 43.8804 60.0465C43.764 59.9747 43.6345 59.9265 43.4995 59.9048C43.3644 59.8831 43.2264 59.8882 43.0933 59.9199Z" fill="#000209"/>
<path fill-rule="evenodd" clip-rule="evenodd" d="M51.8397 28.4534C51.9997 28.4534 52.1064 28.8267 52.2931 29.0134C52.5044 29.2343 52.7469 29.423 53.0131 29.5734C53.375 29.7037 53.7711 29.7037 54.1331 29.5734C54.3673 29.5126 54.5859 29.4027 54.7744 29.251C54.9629 29.0993 55.117 28.9092 55.2264 28.6934C55.5369 28.117 55.7188 27.4802 55.7597 26.8267C55.828 25.7612 55.828 24.6923 55.7597 23.6267C55.7597 22.3734 55.7597 21.1201 55.4664 19.8934C55.0931 17.0134 54.4531 14.2134 53.9197 11.3601C53.8454 11.1193 53.684 10.9149 53.467 10.7867C53.2501 10.6585 52.9932 10.6157 52.7464 10.6667C52.5306 10.7012 52.3324 10.8063 52.1828 10.9655C52.0331 11.1248 51.9406 11.3292 51.9197 11.5467C49.4397 12.1334 46.9064 12.3201 44.3731 12.7201C43.1997 12.9334 42.0264 13.2001 40.9064 13.4934C39.7801 13.7911 38.6959 14.2302 37.6797 14.8001C37.1796 15.0679 36.7779 15.4883 36.5331 16.0001C36.455 16.249 36.446 16.5144 36.5071 16.7681C36.5681 17.0217 36.6969 17.254 36.8797 17.4401L37.6797 18.0534L40.3464 20.0801C40.3464 20.0801 40.1331 20.0801 40.0797 20.2934C38.7464 22.3734 37.4131 24.4801 36.0797 26.5334C35.1731 27.8667 34.2397 29.2001 33.2531 30.4534C33.2531 30.4534 32.6397 31.7067 32.0797 32.4801C31.0931 31.8134 30.1331 31.0934 29.1197 30.4267C28.5291 30.0254 27.9147 29.6602 27.2797 29.3334C26.6264 28.9528 25.9495 28.6144 25.2531 28.3201C25.0086 28.2159 24.7455 28.1622 24.4797 28.1622C24.214 28.1622 23.9509 28.2159 23.7064 28.3201C23.117 28.6714 22.6009 29.1332 22.1864 29.6801C21.4664 30.5867 20.8531 31.8134 20.3197 32.5334L14.1597 41.7867C14.0238 41.9819 13.97 42.2226 14.0099 42.4571C14.0498 42.6915 14.1803 42.9009 14.3731 43.0401C14.5724 43.1775 14.8174 43.232 15.0562 43.1922C15.2951 43.1524 15.5091 43.0214 15.6531 42.8267C16.5064 41.689 17.3953 40.569 18.3197 39.4667C19.7864 37.8134 21.3331 36.2134 22.7464 34.6667C23.2531 34.1067 23.8664 33.2001 24.5064 32.4001L24.9597 31.9201C25.3064 32.1601 25.6797 32.5067 25.7597 32.5601L31.2264 36.0801C31.6346 36.2749 32.0968 36.3256 32.5375 36.2239C32.9783 36.1222 33.3715 35.8741 33.6531 35.5201C34.4491 34.5412 35.1881 33.5173 35.8664 32.4534C36.7731 31.0401 37.6531 29.6001 38.5331 28.1067C39.7597 25.9201 40.8531 23.7067 42.0264 21.5201C42.0851 21.3855 42.1155 21.2402 42.1155 21.0934C42.1155 20.9466 42.0851 20.8013 42.0264 20.6667H42.2397C42.4091 20.4968 42.5042 20.2667 42.5042 20.0267C42.5042 19.7868 42.4091 19.5567 42.2397 19.3867L40.2931 17.2001C40.9064 17.0401 41.5197 16.9334 41.8131 16.8801C43.6264 16.3467 45.4931 15.9467 47.3597 15.4401C48.9292 15.0029 50.47 14.4686 51.9731 13.8401L52.3197 23.9734V25.7601C51.9787 25.5596 51.6572 25.3275 51.3597 25.0667C50.7398 24.5807 50.1683 24.0359 49.6531 23.4401C49.589 23.3425 49.5057 23.2591 49.4081 23.1951C49.3106 23.131 49.2009 23.0877 49.086 23.0677C48.971 23.0477 48.8531 23.0515 48.7397 23.0788C48.6263 23.1062 48.5196 23.1565 48.4264 23.2267C48.2589 23.3409 48.1392 23.5126 48.09 23.7093C48.0409 23.906 48.0657 24.1138 48.1597 24.2934C45.7864 27.3334 43.3864 30.4001 40.8797 33.3601C39.2264 35.3067 37.5464 37.2001 35.7331 39.0134C30.8531 43.7601 33.6264 42.4001 28.4531 39.7601C27.8274 39.4473 27.1762 39.1885 26.5064 38.9867C26.2598 38.9233 26.0021 38.9168 25.7526 38.9676C25.5032 39.0184 25.2685 39.1253 25.0664 39.2801C23.4543 40.6101 21.9227 42.0348 20.4797 43.5467C18.3731 45.7867 16.3731 48.1601 14.3197 50.3734C14.1504 50.5433 14.0553 50.7735 14.0553 51.0134C14.0553 51.2533 14.1504 51.4835 14.3197 51.6534C14.4973 51.8183 14.7307 51.91 14.9731 51.91C15.2154 51.91 15.4488 51.8183 15.6264 51.6534C17.8131 49.6267 19.9997 47.4667 22.3197 45.4401C23.5188 44.3697 24.7739 43.3638 26.0797 42.4267C26.3731 42.5601 26.8264 42.6401 26.8797 42.6934C27.9197 43.2801 29.0131 44.2134 30.1064 44.9334C30.7018 45.3289 31.3476 45.6428 32.0264 45.8667C32.4578 46.0192 32.9284 46.0192 33.3597 45.8667C33.8849 45.5512 34.3843 45.1945 34.8531 44.8001L38.2131 41.4134C39.9731 39.4401 41.5997 37.3601 43.1731 35.2534C45.3331 32.2934 47.3597 29.2267 49.4131 26.1867C49.5731 26.3734 49.6797 26.5867 49.8397 26.7734C50.4617 27.3845 51.1304 27.9462 51.8397 28.4534Z" fill="#000209"/>
</g>
<defs>
<clipPath id="clip0_1702_784">
<rect width="64" height="64" fill="white"/>
</clipPath>
</defs>
</svg>
