<svg width="64" height="64" viewBox="0 0 64 64" fill="none" xmlns="http://www.w3.org/2000/svg">
<g clip-path="url(#clip0_1702_775)">
<path fill-rule="evenodd" clip-rule="evenodd" d="M24.7199 35.4667C26.9744 34.2088 29.1476 32.8105 31.2266 31.28C31.3402 31.0567 31.3619 30.7977 31.2871 30.5586C31.2124 30.3194 31.0471 30.119 30.8266 30C29.2533 28.9867 27.7599 27.92 26.1599 26.9067L24.1599 25.68C23.4399 25.28 22.7733 24.9067 22.0533 24.5867C20.4533 23.8133 18.8533 23.2 17.2799 22.5067C17.2799 22.1867 17.5199 21.8933 17.6266 21.5467C17.7333 21.2 17.6266 21.0667 17.6266 20.8533V20.48C19.4708 20.4557 21.3057 20.214 23.0933 19.76C24.8795 19.2967 26.515 18.3779 27.8399 17.0933C28.6146 16.4033 29.2198 15.5438 29.6083 14.5818C29.9968 13.6198 30.1582 12.5812 30.0799 11.5467C29.9781 10.5425 29.6638 9.57142 29.1581 8.6979C28.6524 7.82438 27.9667 7.06837 27.1466 6.48001C25.9611 5.60746 24.6224 4.96523 23.1999 4.58667C21.8156 4.2291 20.3896 4.05869 18.9599 4.08001C18.7053 4.08001 18.4611 4.18115 18.2811 4.36119C18.1011 4.54122 17.9999 4.7854 17.9999 5.04001C18.0067 5.29249 18.11 5.53278 18.2886 5.71137C18.4672 5.88997 18.7074 5.99327 18.9599 6.00001C20.1938 6.03321 21.4159 6.24888 22.5866 6.64001C23.7082 7.00195 24.7558 7.56191 25.6799 8.29334C26.2023 8.70553 26.6332 9.22182 26.9453 9.80942C27.2575 10.397 27.4441 11.0431 27.4933 11.7067C27.4897 12.3422 27.3442 12.9689 27.0673 13.541C26.7905 14.1131 26.3894 14.6161 25.8933 15.0133C24.8473 15.8944 23.6026 16.5076 22.2666 16.8C20.0502 17.2686 17.7824 17.4478 15.5199 17.3333C14.4508 17.3603 13.3811 17.3068 12.3199 17.1733C11.2741 17.0652 10.2393 16.869 9.22659 16.5867C7.78982 16.2623 6.5089 15.4523 5.59993 14.2933C5.20127 13.7523 4.96456 13.1091 4.91734 12.4387C4.87013 11.7683 5.01437 11.0983 5.33326 10.5067L6.21326 8.96001C7.48011 7.76823 9.0037 6.88327 10.6666 6.37334C12.3931 5.80216 14.1853 5.4527 15.9999 5.33334C16.2262 5.33334 16.4433 5.24344 16.6033 5.08341C16.7634 4.92338 16.8533 4.70633 16.8533 4.48001C16.8533 4.25369 16.7634 4.03664 16.6033 3.87661C16.4433 3.71658 16.2262 3.62667 15.9999 3.62667C13.585 3.60201 11.1816 3.96207 8.87993 4.69334C7.25809 5.19501 5.75926 6.03072 4.47993 7.14668C4.22809 7.41363 3.99634 7.69885 3.78659 8.00001C3.49401 8.40465 3.23535 8.83277 3.01326 9.28001C2.4004 10.3026 2.09464 11.4798 2.13247 12.6714C2.17029 13.8629 2.55011 15.0184 3.22659 16C4.51164 17.8258 6.40067 19.1387 8.55993 19.7067C9.73003 20.0472 10.9247 20.2969 12.1333 20.4533C12.9599 20.4533 13.7866 20.4533 14.6399 20.5867V20.88C14.6137 21.1104 14.6137 21.343 14.6399 21.5733C14.7329 21.9771 14.867 22.3702 15.0399 22.7467C13.4933 23.2 11.9466 23.6267 10.4266 24.24C9.67993 24.56 8.90659 24.9333 8.15993 25.3067C7.41326 25.68 6.71993 26.1067 6.02659 26.56C4.34659 27.5733 2.79993 28.6667 1.14659 29.7333C0.760542 30.2457 0.404394 30.7799 0.0799278 31.3333C0.0302585 31.5522 0.0660948 31.7818 0.180106 31.9751C0.294117 32.1684 0.477686 32.3109 0.693261 32.3733C1.21857 32.5959 1.71908 32.873 2.18659 33.2C3.43993 34.0533 4.55993 35.1467 5.75993 35.8667C6.99436 36.5376 8.26773 37.1342 9.57326 37.6533C11.2753 38.2614 13.0116 38.769 14.7733 39.1733C14.7733 39.6533 14.4533 40.1067 14.3466 40.6133C14.3067 40.9053 14.3067 41.2014 14.3466 41.4933C14.3189 41.7949 14.3189 42.0984 14.3466 42.4C14.4623 42.9891 14.6228 43.5686 14.8266 44.1333H4.15993C3.93799 44.126 3.72192 44.2054 3.55761 44.3548C3.3933 44.5042 3.29368 44.7117 3.27993 44.9333C3.28674 45.1514 3.37195 45.3597 3.51993 45.52C2.87993 46.9867 2.29326 48.4267 1.75993 49.9467C1.392 51.0569 1.08926 52.1878 0.853261 53.3333C0.853261 53.8667 0.319928 55.5467 0.186594 56.6667C0.141109 57.1613 0.19552 57.6601 0.346594 58.1333C0.578724 58.5541 0.899084 58.9197 1.28572 59.2051C1.67235 59.4904 2.11611 59.6888 2.58659 59.7867C4.68463 60.2677 6.83486 60.4827 8.98659 60.4267C14.914 60.2574 20.8221 59.6693 26.6666 58.6667C27.9733 58.4533 26.3999 58.6667 28.7199 52.32C28.9599 51.6 29.1999 50.8533 29.4133 50.1067C29.6067 49.4068 29.7493 48.6938 29.8399 47.9733C29.8794 47.3062 29.7606 46.6392 29.4933 46.0267C29.2702 45.5252 28.8581 45.1322 28.3466 44.9333C27.7464 44.7239 27.1156 44.6158 26.4799 44.6133L22.6933 44.16H20.3733L16.9066 44.2933C16.9066 43.7333 17.1999 43.2 17.3066 42.6133C17.3343 42.3118 17.3343 42.0083 17.3066 41.7067C17.3318 41.3961 17.3318 41.0839 17.3066 40.7733C17.1613 40.2993 16.9831 39.8359 16.7733 39.3867L20.9066 37.7067C22.2666 36.8533 23.5199 36.24 24.7199 35.4667ZM22.4533 47.3067L26.3733 47.6C26.613 47.6148 26.8535 47.6148 27.0933 47.6V48C27.0638 48.4837 27.0015 48.9648 26.9066 49.44C26.7618 50.3393 26.5659 51.2296 26.3199 52.1067C25.9199 53.52 25.4399 54.9067 25.0666 56.2933C25.0278 56.4148 25.0278 56.5453 25.0666 56.6667C23.1199 56.6667 19.9199 56.9067 16.4266 56.96H10.4533C8.50659 56.96 6.18659 56.96 4.66659 56.72H3.01326C2.13326 56.72 3.22659 54.0533 3.27993 53.4133C3.42213 52.1823 3.64483 50.9619 3.94659 49.76C4.26659 48.5067 4.61326 47.28 5.01326 46.08C5.02681 45.9916 5.02681 45.9017 5.01326 45.8133L15.2266 46.9333L22.4533 47.3067ZM16.5866 37.1733L15.9999 37.5467L7.19993 33.0933C5.83993 32.56 4.53326 31.7867 3.11993 31.2533C2.97244 31.1903 2.82101 31.1368 2.66659 31.0933C4.26659 30.48 5.86659 29.8667 7.41326 29.1733L9.67993 28.1067C10.3999 27.7333 11.1199 27.36 11.8133 26.9333C13.3333 26 14.7999 24.9867 16.3733 24C17.7599 25.0933 19.0399 26.2133 20.5066 27.2C21.1692 27.6526 21.8545 28.0709 22.5599 28.4533C23.2799 28.8533 23.9999 29.2 24.7199 29.52C25.4399 29.84 26.5866 30.2933 27.3866 30.6667C25.9199 31.3067 24.4533 31.92 23.0133 32.6933C21.5733 33.4667 20.6133 34.1333 19.4133 34.8267C18.2133 35.52 17.5999 36.4533 16.5866 37.1733Z" fill="#000209"/>
<path fill-rule="evenodd" clip-rule="evenodd" d="M2.87988 56.4801C2.87988 56.6134 2.87988 56.6668 3.03988 56.7201C3.19988 56.7734 2.95988 56.3734 2.87988 56.4801Z" fill="#000209"/>
<path d="M51.7329 19.8666V17.68L51.3862 15.2C51.208 14.3846 50.8623 13.6152 50.3712 12.9404C49.88 12.2656 49.254 11.7002 48.5329 11.28C46.5124 10.5047 44.3431 10.1948 42.1862 10.3733C39.7862 10.3733 37.3862 10.6666 34.9596 10.72H31.9196C31.6982 10.6962 31.476 10.7574 31.2978 10.891C31.1197 11.0246 30.9988 11.2208 30.9596 11.44C30.9291 11.6625 30.9875 11.8882 31.1223 12.0679C31.2571 12.2476 31.4574 12.367 31.6796 12.4C33.0707 12.6934 34.4774 12.907 35.8929 13.04C37.9729 13.28 40.0529 13.3866 42.1062 13.6C43.7717 13.4484 45.4505 13.639 47.0396 14.16C47.8525 14.5852 48.4656 15.3132 48.7462 16.1866L49.2262 17.9466C49.2262 18.56 49.2262 19.2 49.3596 19.84V20.16C49.0929 20.8 51.3062 20.9333 51.5996 20.16C51.7062 20 51.7062 19.92 51.7329 19.8666Z" fill="#000209"/>
<path d="M47.9998 42.2667C47.9308 43.2963 47.7972 44.3206 47.5998 45.3334C47.4843 45.9689 47.3148 46.5934 47.0931 47.2001C46.9691 47.6536 46.7506 48.0758 46.4519 48.4388C46.1531 48.8019 45.781 49.0977 45.3598 49.3067C44.3345 49.7999 43.2171 50.0724 42.0798 50.1067C39.5998 50.3734 37.0931 50.4267 34.6131 50.6667C33.5123 50.7432 32.417 50.8857 31.3331 51.0934C31.1118 51.1324 30.9129 51.2523 30.775 51.4296C30.637 51.607 30.5698 51.8293 30.5865 52.0534C30.6195 52.2756 30.7388 52.4758 30.9185 52.6106C31.0983 52.7454 31.3239 52.8039 31.5465 52.7734H34.6665C37.1998 52.7734 39.7065 53.1734 42.2131 53.2267C44.1772 53.2646 46.1081 52.7169 47.7598 51.6534C48.9306 50.7389 49.75 49.4486 50.0798 48.0001C50.3039 47.0359 50.4466 46.0547 50.5065 45.0667C50.5598 44.1341 50.5598 43.1993 50.5065 42.2667V40.0001C50.499 39.7199 50.3892 39.4522 50.1978 39.2475C50.0064 39.0429 49.7467 38.9153 49.4677 38.8891C49.1887 38.8628 48.9097 38.9396 48.6835 39.105C48.4573 39.2704 48.2994 39.5129 48.2398 39.7867L47.9998 42.2667Z" fill="#000209"/>
<path d="M64 28.2667C63.5733 22.0001 62.2133 22.4534 62.1067 22.4534H61.92C58.9919 21.9272 56.0359 21.5711 53.0667 21.3867H46.8267C44.96 21.3867 43.1733 21.5734 41.4933 21.7601C40.2253 21.9029 38.9689 22.1346 37.7333 22.4534C36.7678 23.9693 36.0647 25.6371 35.6533 27.3867C35.5413 28.0036 35.47 28.6272 35.44 29.2534C35.4002 29.875 35.4002 30.4985 35.44 31.1201C35.6271 32.5733 35.9943 33.9976 36.5333 35.3601C36.6023 35.6058 36.7614 35.8164 36.979 35.9499C37.1965 36.0834 37.4564 36.1298 37.7067 36.08C37.835 36.0426 37.9539 35.9779 38.0551 35.8905C38.1563 35.8031 38.2375 35.6949 38.2933 35.5734C38.2942 35.7454 38.3523 35.9121 38.4586 36.0474C38.5648 36.1826 38.7131 36.2785 38.88 36.32C40.1057 36.6976 41.3648 36.9566 42.64 37.0934C44.3733 37.3334 50.08 37.5467 51.1733 37.6534H53.84C56.795 37.5912 59.7432 37.3418 62.6667 36.9067C63.28 36.9067 63.3867 37.3601 63.8667 31.1467C63.9844 30.1915 64.029 29.2287 64 28.2667ZM52.5067 34.6667H48.1333C46.08 34.6667 43.9467 35.0667 41.84 35.0667C40.9482 35.0859 40.0564 35.0324 39.1733 34.9067C38.9899 34.8678 38.7986 34.8945 38.6329 34.9823C38.4672 35.07 38.3376 35.2131 38.2667 35.3867C38.2667 35.3867 38.2667 35.2534 38.2667 35.1467C38.2127 34.4099 38.2127 33.6702 38.2667 32.9334C38.2667 32.1867 38.4 31.4667 38.4533 30.7201C38.5067 29.9734 38.4533 29.2534 38.4533 28.5334V24.3201H40.3733C42.4533 24.3201 44.5067 24.6667 46.6667 24.8267H60.9867C60.9867 25.8934 60.72 26.9334 60.64 28.0001V29.84V31.7067C60.64 32.9601 60.9333 34.1867 61.0933 35.4134C58.3733 35.04 55.4667 34.6667 52.5067 34.6667Z" fill="#000209"/>
</g>
<defs>
<clipPath id="clip0_1702_775">
<rect width="64" height="64" fill="white"/>
</clipPath>
</defs>
</svg>
