<svg width="64" height="66" viewBox="0 0 64 66" fill="none" xmlns="http://www.w3.org/2000/svg">
<path fill-rule="evenodd" clip-rule="evenodd" d="M3.06306 3.10431C3.08942 2.9046 3.04095 2.70219 2.92698 2.53609C2.81301 2.36998 2.64161 2.25193 2.44579 2.20466C2.24997 2.15739 2.04358 2.18426 1.86639 2.28008C1.6892 2.37591 1.55373 2.53391 1.48608 2.72366C-0.607487 11.4786 -0.362784 39.6195 1.43171 47.0421C2.60084 51.6643 16.2227 51.8002 21.1439 51.8274C21.3585 51.7902 21.553 51.6784 21.6933 51.5118C21.8335 51.3452 21.9104 51.1344 21.9104 50.9166C21.9104 50.6988 21.8335 50.488 21.6933 50.3214C21.553 50.1547 21.3585 50.043 21.1439 50.0057C17.2015 49.8154 8.36496 49.2173 4.83036 47.2868C3.79717 46.7158 3.63403 47.8034 3.00868 31.4355C2.76398 25.046 2.54646 20.3695 2.49209 14.6325C2.62803 14.1159 2.7096 5.06193 3.06306 3.10431Z" fill="#000209"/>
<path fill-rule="evenodd" clip-rule="evenodd" d="M51.8409 12.1582C38.8716 12.1582 32.1287 10.6899 5.02104 12.1582C4.85259 12.1793 4.69545 12.2542 4.57298 12.3717C4.45051 12.4893 4.36926 12.6433 4.34131 12.8107V13.1098C4.37414 13.2921 4.47234 13.4562 4.61749 13.5713C4.76264 13.6864 4.94478 13.7447 5.1298 13.7351C13.9663 13.572 16.1958 15.2577 51.8681 13.7351C52.006 13.8069 52.1602 13.8417 52.3156 13.8359C52.471 13.8301 52.6222 13.7841 52.7545 13.7023C52.8867 13.6205 52.9954 13.5057 53.0699 13.3692C53.1444 13.2328 53.1822 13.0793 53.1795 12.9238C53.1768 12.7683 53.1338 12.6162 53.0546 12.4824C52.9754 12.3486 52.8628 12.2376 52.7279 12.1604C52.5929 12.0832 52.4402 12.0424 52.2847 12.042C52.1292 12.0416 51.9763 12.0816 51.8409 12.1582Z" fill="#000209"/>
<path fill-rule="evenodd" clip-rule="evenodd" d="M5.94544 2.56054C13.6128 2.1527 52.5206 3.1587 54.0432 4.4366C55.022 5.25227 55.5114 13.0556 55.7833 15.3123C56.2727 19.4994 56.6534 23.1156 56.8709 27.3571C56.9055 27.5446 57.0047 27.7139 57.1512 27.8358C57.2978 27.9577 57.4824 28.0245 57.673 28.0245C57.8636 28.0245 58.0481 27.9577 58.1947 27.8358C58.3412 27.7139 58.4404 27.5446 58.475 27.3571C58.475 23.4963 58.2303 18.9556 57.9584 15.1492C57.6866 11.3427 57.9584 4.27346 55.9193 2.42459C52.0312 -1.24596 11.9543 0.195074 5.80949 0.738859C5.5948 0.788979 5.40509 0.914177 5.27458 1.09186C5.14408 1.26955 5.08137 1.48803 5.09778 1.70788C5.11419 1.92774 5.20863 2.13449 5.36406 2.29084C5.51949 2.44719 5.72568 2.54284 5.94544 2.56054Z" fill="#000209"/>
<path fill-rule="evenodd" clip-rule="evenodd" d="M8.85377 8.65079C9.04635 8.84893 9.27672 9.00644 9.53124 9.114C9.78576 9.22156 10.0593 9.27697 10.3356 9.27697C10.6119 9.27697 10.8854 9.22156 11.1399 9.114C11.3945 9.00644 11.6248 8.84893 11.8174 8.65079C12.0519 8.24971 12.1315 7.77672 12.0414 7.32097C11.9512 6.86522 11.6975 6.45818 11.328 6.17657C9.47912 5.11619 7.19523 6.99224 8.85377 8.65079Z" fill="#000209"/>
<path fill-rule="evenodd" clip-rule="evenodd" d="M15.2167 7.99871C15.4096 8.20106 15.6417 8.36215 15.8987 8.47221C16.1557 8.58227 16.4325 8.63902 16.7121 8.63902C16.9917 8.63902 17.2684 8.58227 17.5254 8.47221C17.7825 8.36215 18.0145 8.20106 18.2075 7.99871C18.4593 7.58839 18.5487 7.09879 18.4581 6.62596C18.3676 6.15313 18.1036 5.73119 17.7181 5.44292C15.842 4.43692 13.5581 6.31298 15.2167 7.99871Z" fill="#000209"/>
<path fill-rule="evenodd" clip-rule="evenodd" d="M22.1771 7.99871C22.3701 8.20106 22.6021 8.36215 22.8592 8.47221C23.1162 8.58227 23.3929 8.63902 23.6725 8.63902C23.9521 8.63902 24.2288 8.58227 24.4859 8.47221C24.7429 8.36215 24.975 8.20106 25.1679 7.99871C25.4261 7.59018 25.5191 7.09874 25.4282 6.62411C25.3374 6.14948 25.0693 5.72719 24.6785 5.44292C22.8025 4.43692 20.5186 6.31298 22.1771 7.99871Z" fill="#000209"/>
<path fill-rule="evenodd" clip-rule="evenodd" d="M63.6137 59.5494C61.5346 55.825 59.152 52.2784 56.4901 48.9456C65.0547 35.351 47.0826 21.3485 33.5968 31.7076C30.8081 33.7411 28.8614 36.7262 28.1249 40.0981C27.3884 43.47 27.9132 46.9949 29.6 50.006C33.6783 56.6129 41.672 58.1627 41.536 55.906C41.5291 55.8024 41.5018 55.7011 41.4557 55.6081C41.4095 55.515 41.3455 55.432 41.2672 55.3638C41.1888 55.2956 41.0978 55.2435 40.9993 55.2106C40.9008 55.1777 40.7968 55.1645 40.6932 55.1719C36.8867 55.3622 33.1074 51.8548 31.476 48.9184C30.2349 46.391 29.9475 43.5006 30.6668 40.7783C31.3861 38.056 33.0637 35.6847 35.3913 34.1003C43.2218 28.3361 53.8256 31.8435 55.8376 39.5381C57.6049 46.2538 51.8951 52.8064 46.0766 54.8456C45.8495 54.9214 45.6617 55.0842 45.5546 55.2984C45.4476 55.5125 45.4299 55.7604 45.5057 55.9876C45.5814 56.2147 45.7442 56.4025 45.9584 56.5096C46.1725 56.6167 46.4205 56.6343 46.6476 56.5586C47.8064 56.1875 48.9193 55.6858 49.9647 55.0632C50.9707 56.477 53.5537 60.0116 53.7984 60.501C59.3994 68.5218 65.6257 65.2591 63.6137 59.5494ZM60.8948 62.2683C58.8828 63.3015 53.1187 56.2867 51.297 54.2475C52.7624 53.2381 54.0723 52.0199 55.185 50.6313C56.0279 51.8276 62.3086 61.4526 60.9492 62.1595L60.8948 62.2683Z" fill="#000209"/>
<path fill-rule="evenodd" clip-rule="evenodd" d="M32.318 22.5993C34.8195 22.2459 37.7559 24.3938 41.2361 23.3606C43.0935 22.7554 45.0563 22.5425 47.0002 22.7353C46.7827 22.7353 49.4745 22.7353 49.3385 21.838C49.2026 20.9408 46.4021 21.0495 45.3145 20.7776C44.6645 20.6966 44.0069 20.6966 43.3569 20.7776C40.2845 20.7776 40.638 21.7836 37.1034 20.5873C30.3604 18.3306 30.5779 20.7776 28.3212 21.2127C26.0645 21.6477 22.5843 18.7384 20.0285 20.1251C18.6147 20.8864 17.5271 22.844 18.8866 23.1703C20.246 23.4966 19.4575 22.3274 20.7898 21.7836C22.1221 21.2398 26.2277 25.2367 29.8438 23.8228C30.6084 23.3032 31.441 22.8915 32.318 22.5993Z" fill="#000209"/>
<path fill-rule="evenodd" clip-rule="evenodd" d="M26.7451 30.8372C21.1441 31.5985 18.4252 29.3418 13.6943 29.9128C14.1837 29.9128 7.95737 29.7496 7.08731 31.5985C7.01871 31.7148 6.98004 31.8462 6.97475 31.9811C6.96946 32.116 6.99772 32.25 7.05701 32.3713C7.11629 32.4926 7.20474 32.5972 7.31443 32.6759C7.42411 32.7546 7.5516 32.8048 7.68547 32.822C8.33802 32.822 7.16888 32.3598 19.5672 33.3114H21.1985C23.0424 33.4459 24.8941 33.1959 26.6364 32.5773C26.8204 32.5251 26.9836 32.417 27.1036 32.2681C27.2236 32.1191 27.2944 31.9366 27.3064 31.7457C27.3183 31.5549 27.2707 31.365 27.1702 31.2022C27.0697 31.0395 26.9212 30.912 26.7451 30.8372Z" fill="#000209"/>
<path fill-rule="evenodd" clip-rule="evenodd" d="M18.4245 42.0666C18.6625 42.0666 18.8907 41.9721 19.0589 41.8038C19.2272 41.6356 19.3217 41.4073 19.3217 41.1694C19.3217 40.9314 19.2272 40.7032 19.0589 40.5349C18.8907 40.3667 18.6625 40.2721 18.4245 40.2721C14.9947 40.0957 11.5578 40.4348 8.22853 41.2781C7.68475 41.7947 7.73913 42.2026 8.22853 42.4745C8.71794 42.7464 8.41886 42.7192 8.66356 42.7192C11.928 43.1609 15.2479 42.9389 18.4245 42.0666Z" fill="#000209"/>
</svg>
