<svg width="24" height="24" viewBox="0 0 24 24" fill="none" xmlns="http://www.w3.org/2000/svg">
<g clip-path="url(#clip0_1034_4565)">
<path fill-rule="evenodd" clip-rule="evenodd" d="M3.23 8.73C3.23 8.82017 3.26582 8.90665 3.32958 8.97042C3.39334 9.03418 3.47982 9.07 3.57 9.07C3.66017 9.07 3.74665 9.03418 3.81041 8.97042C3.87418 8.90665 3.91 8.82017 3.91 8.73C4.18964 7.13056 4.17269 5.49331 3.86 3.9C8.86 1.9 18.29 2.9 20.08 4.24C20.1086 4.34149 20.1286 4.44518 20.14 4.55C20.43 8.86 20.09 9.37 20.62 9.37C20.6996 9.37 20.7759 9.33839 20.8321 9.28213C20.8884 9.22587 20.92 9.14957 20.92 9.07C21 4.31 21.14 4 20.87 3.7C19.27 2.01 14.55 1.65 12.21 1.7C7.62 1.67 3.42 3 3.27 3.56C3.08475 4.25125 2.99393 4.96439 3 5.68C2.98562 6.70149 3.06259 7.72222 3.23 8.73Z" fill="black"/>
<path fill-rule="evenodd" clip-rule="evenodd" d="M19.28 16.71C19.3367 16.643 19.3652 16.5567 19.3598 16.4692C19.3543 16.3816 19.3152 16.2996 19.2506 16.2402C19.1861 16.1808 19.101 16.1487 19.0133 16.1505C18.9256 16.1523 18.842 16.188 18.78 16.25C17.41 17.66 13.55 20.41 12.18 20.57C11.2765 20.1793 10.4209 19.6861 9.63 19.1C5.43 16.2 5.54 15.67 5.18 16.1C5.12503 16.1561 5.09424 16.2315 5.09424 16.31C5.09424 16.3885 5.12503 16.4639 5.18 16.52C6.38 17.67 10.69 21.97 12.32 21.75C13.4606 21.4032 14.5281 20.8508 15.47 20.12C16.8596 19.1245 18.1371 17.9811 19.28 16.71Z" fill="black"/>
<path fill-rule="evenodd" clip-rule="evenodd" d="M1.77 15.67C2.35 16.59 3.62 15.67 4.14 15.51C6.14 14.95 8.58 13.9 10.65 14.09C11.82 14.2 11.65 14.61 11.84 15.09C12.0984 15.517 12.4746 15.8602 12.9234 16.0784C13.3723 16.2967 13.8746 16.3805 14.37 16.32C15.45 16.32 17.63 15.62 19.67 15.46C20.22 15.46 20.76 15.27 21.3 15.19C22.3 15.04 22.17 15.27 22.73 15.19C23.65 15.19 23.43 13.98 23.43 13.53C23.43 11.77 23.98 9.59001 21.34 9.53001C19.7907 9.63399 18.2504 9.84449 16.73 10.16C15.08 10.58 14.85 10.69 14.6 10.51C14.35 10.33 14.08 9.51001 13.26 9.08001C11.2302 8.25416 8.96878 8.19727 6.9 8.92001C5.45449 9.3076 4.06107 9.86833 2.75 10.59C1.43 11.38 0.749997 11.66 0.919997 12.07C1.00331 13.3086 1.2905 14.525 1.77 15.67ZM12.84 9.93001C13.56 10.3 13.55 11.73 15.13 11.6C15.77 11.6 16.36 11.31 16.94 11.21C23.18 10.31 22.28 10.21 22.27 13.54C22.27 13.6 22.22 13.8 22.2 13.98C21.3144 13.9838 20.4322 14.0878 19.57 14.29C16.11 14.58 14.39 15.75 13.1 14.98C12.6 14.68 12.71 14.38 12.5 13.98C11.09 11.41 2.75 15.34 2.44 15.27C1.97484 14.2367 1.69394 13.1301 1.61 12C1.71 11.94 8.37 7.65001 12.84 9.93001Z" fill="black"/>
<path fill-rule="evenodd" clip-rule="evenodd" d="M6.52 19.17C5.99 19.66 4.43 21.25 3.57 21.3C3.56388 21.2469 3.56388 21.1932 3.57 21.14C4.66 19 4.48 19.5 4.57 19.24C4.61906 19.1281 4.63506 19.0045 4.61612 18.8838C4.59718 18.7631 4.54408 18.6504 4.46311 18.5589C4.38213 18.4674 4.27666 18.401 4.15916 18.3675C4.04165 18.334 3.91703 18.3349 3.8 18.37C3.09734 18.7104 2.33046 18.8979 1.55 18.92C2.47928 18.3263 3.23215 17.494 3.73 16.51C3.76978 16.4411 3.78054 16.3591 3.75991 16.2822C3.73928 16.2053 3.68895 16.1398 3.62 16.1C3.55104 16.0602 3.46911 16.0495 3.39222 16.0701C3.31533 16.0907 3.24978 16.1411 3.21 16.21C2.88716 16.729 2.47792 17.189 2 17.57C1.42332 17.9645 0.8221 18.3219 0.199998 18.64C-0.450002 19.16 0.519998 20.41 2.93 19.89C2.53 20.78 2 22 3 22.25C4.2 22.54 5.23 21.41 6.14 20.58C6.56 20.2 7.42 19.44 7.06 19.09C6.97192 19.0496 6.87399 19.0356 6.77812 19.0498C6.68225 19.064 6.59257 19.1058 6.52 19.17Z" fill="black"/>
<path fill-rule="evenodd" clip-rule="evenodd" d="M23.8 18.72C23.71 18.65 23.36 18.46 23.54 18.58C22.3887 18.1449 21.412 17.3439 20.76 16.3C20.7403 16.2659 20.7141 16.2359 20.6828 16.2119C20.6515 16.1879 20.6159 16.1703 20.5778 16.1601C20.5397 16.1499 20.5 16.1473 20.4609 16.1524C20.4218 16.1575 20.3841 16.1703 20.35 16.19C20.3159 16.2097 20.2859 16.2359 20.2619 16.2672C20.2379 16.2985 20.2203 16.3342 20.2101 16.3722C20.1999 16.4103 20.1973 16.45 20.2024 16.4891C20.2075 16.5282 20.2203 16.5659 20.24 16.6C20.7263 17.5767 21.4652 18.4054 22.38 19C21.6147 18.9771 20.8624 18.7967 20.17 18.47C20.0174 18.4242 19.8531 18.438 19.7102 18.5085C19.5674 18.579 19.4565 18.701 19.4 18.85C19.26 19.29 19.54 19.61 19.74 19.92L20.42 21.23C20.58 21.59 20.08 21.38 19.78 21.23C18.57 20.59 18.18 19.71 17.78 20.17C17.7188 20.2349 17.6848 20.3208 17.6848 20.41C17.6848 20.4992 17.7188 20.5851 17.78 20.65C18.3358 21.2178 18.9568 21.7179 19.63 22.14C20.28 22.46 21.16 22.51 21.42 21.83C21.4686 21.1915 21.3222 20.5534 21 20C23.45 20.54 24.47 19.27 23.8 18.72Z" fill="black"/>
</g>
<defs>
<clipPath id="clip0_1034_4565">
<rect width="24" height="24" fill="white"/>
</clipPath>
</defs>
</svg>
