<svg width="64" height="65" viewBox="0 0 64 65" fill="none" xmlns="http://www.w3.org/2000/svg">
<g clip-path="url(#clip0_1495_840)">
<path fill-rule="evenodd" clip-rule="evenodd" d="M18.9336 7.51329C18.8673 6.29399 18.9119 5.07118 19.0669 3.85996C19.1888 3.6995 19.2479 3.50005 19.2331 3.29908C19.2183 3.09812 19.1306 2.90949 18.9864 2.76865C18.8423 2.62781 18.6517 2.54446 18.4505 2.53426C18.2492 2.52407 18.0512 2.58773 17.8936 2.71329C17.0136 3.51329 17.0136 6.25996 16.8002 7.21996C14.8987 15.4659 14.7987 24.0251 16.5069 32.3133C16.5352 32.5538 16.6579 32.7731 16.8479 32.9232C17.0379 33.0732 17.2798 33.1416 17.5202 33.1133C17.7607 33.085 17.9801 32.9623 18.1301 32.7723C18.2801 32.5823 18.3485 32.3404 18.3202 32.1C18.0236 23.8996 18.2284 15.6887 18.9336 7.51329Z" fill="black"/>
<path fill-rule="evenodd" clip-rule="evenodd" d="M56.3734 10.2865C44.5733 9.49467 32.7335 9.49467 20.9334 10.2865C19.9201 10.2865 19.4667 11.8865 21.3867 12.2598C25.2267 12.2598 29.3867 12.8198 37.3867 12.8465C45.3867 12.8732 51.0134 12.3665 56.5334 12.2065C56.788 12.1853 57.0238 12.0638 57.1888 11.8687C57.3538 11.6737 57.4346 11.4211 57.4134 11.1665C57.3922 10.9119 57.2707 10.6761 57.0756 10.5111C56.8806 10.3461 56.628 10.2653 56.3734 10.2865Z" fill="black"/>
<path fill-rule="evenodd" clip-rule="evenodd" d="M63.3601 11.5399C63.0934 9.0599 63.3601 4.39324 61.3868 2.92657C57.3601 -0.166763 49.2001 0.739904 43.6001 0.499904C36.5601 0.313237 29.3334 0.953237 22.5068 1.2199C22.2663 1.2199 22.0357 1.31543 21.8657 1.48546C21.6956 1.65549 21.6001 1.88611 21.6001 2.12657C21.6001 2.36703 21.6956 2.59765 21.8657 2.76768C22.0357 2.93771 22.2663 3.03324 22.5068 3.03324C29.4134 3.03324 36.4268 2.60657 43.4134 3.03324C48.4801 3.35324 56.5334 3.03324 59.4134 5.27324C60.0801 5.80657 60.8534 20.7399 60.8801 22.2332C60.9017 26.4401 60.5717 30.6414 59.8934 34.7932C56.6668 36.6866 43.4668 37.7799 39.6001 38.0199C39.4096 38.0545 39.2373 38.1549 39.1133 38.3036C38.9893 38.4522 38.9213 38.6396 38.9213 38.8332C38.9213 39.0268 38.9893 39.2143 39.1133 39.3629C39.2373 39.5116 39.4096 39.6119 39.6001 39.6466C44.5601 39.6466 55.9468 38.9532 60.2401 37.3799C61.6801 36.8466 62.2934 36.2066 62.7201 33.9399C64.081 26.5503 64.2969 18.9952 63.3601 11.5399Z" fill="black"/>
<path fill-rule="evenodd" clip-rule="evenodd" d="M24.987 7.37999C25.1706 7.04939 25.2312 6.66445 25.1579 6.29346C25.0847 5.92246 24.8825 5.58939 24.587 5.35333C23.067 4.55333 21.2004 6.09999 22.5337 7.48666C22.6961 7.65167 22.8912 7.78076 23.1066 7.86555C23.322 7.95035 23.5528 7.98897 23.7841 7.97892C24.0154 7.96886 24.2419 7.91035 24.4492 7.80718C24.6564 7.70401 24.8396 7.55847 24.987 7.37999Z" fill="black"/>
<path fill-rule="evenodd" clip-rule="evenodd" d="M30.2135 6.84649C30.3942 6.51293 30.4505 6.12602 30.3723 5.7548C30.2942 5.38359 30.0867 5.05222 29.7869 4.81982C28.2669 4.01982 26.4002 5.56648 27.7602 6.92648C27.9207 7.09308 28.1144 7.22414 28.3288 7.31117C28.5432 7.3982 28.7734 7.43928 29.0046 7.43174C29.2359 7.4242 29.4629 7.36821 29.6712 7.2674C29.8794 7.16658 30.0642 7.02319 30.2135 6.84649Z" fill="black"/>
<path fill-rule="evenodd" clip-rule="evenodd" d="M35.8934 6.84649C36.0825 6.51726 36.1461 6.13077 36.0726 5.75831C35.9991 5.38584 35.7934 5.05252 35.4934 4.81982C33.9734 4.01982 32.1067 5.56648 33.4667 6.92648C33.6249 7.09246 33.8163 7.22313 34.0285 7.30993C34.2407 7.39673 34.4688 7.4377 34.698 7.43014C34.9271 7.42259 35.1521 7.36669 35.3581 7.2661C35.5641 7.16551 35.7465 7.02252 35.8934 6.84649Z" fill="black"/>
<path fill-rule="evenodd" clip-rule="evenodd" d="M50.0268 47.8332C50.1544 46.9733 50.0487 46.0949 49.7207 45.2898C49.3927 44.4847 48.8545 43.7825 48.1623 43.2566C47.4702 42.7306 46.6494 42.4003 45.7859 42.3C44.9224 42.1997 44.0478 42.3332 43.2535 42.6865C40.8633 43.8292 38.7101 45.4124 36.9068 47.3532C35.7868 48.2598 32.0002 51.1665 32.0002 51.1665C29.9257 51.1491 27.876 50.7137 25.9735 49.8865C25.9735 49.6465 26.1335 49.4065 26.4268 49.0065C29.5735 44.6599 33.6268 43.1132 30.7735 38.7132C30.3184 38.092 29.68 37.6292 28.948 37.3901C28.2161 37.1509 27.4276 37.1473 26.6935 37.3798C22.0002 38.2598 17.4402 42.9265 13.0135 44.6332C12.8268 44.6332 12.6135 44.6332 12.5602 44.7665C11.8135 39.7532 7.22684 41.0598 5.28018 41.0332C3.33351 41.0065 -0.533157 40.7398 0.186843 42.4999C0.269256 42.6934 0.424617 42.8468 0.619275 42.9266C0.813932 43.0065 1.03221 43.0064 1.22684 42.9265C2.52008 42.7897 3.82711 42.8708 5.09351 43.1665C10.6402 43.7799 9.97351 40.6599 9.62684 59.8599C9.62684 61.6465 9.62684 62.1265 6.66684 62.3665C4.9654 62.473 3.2574 62.3926 1.57351 62.1265C1.4562 62.1038 1.33555 62.1043 1.21845 62.1282C1.10136 62.1521 0.990108 62.1987 0.891059 62.2656C0.79201 62.3325 0.707099 62.4182 0.641175 62.5178C0.575252 62.6175 0.529605 62.7292 0.506843 62.8465C0.48408 62.9638 0.484647 63.0845 0.508512 63.2016C0.532376 63.3187 0.579071 63.4299 0.645929 63.529C0.712787 63.628 0.7985 63.7129 0.898173 63.7789C0.997846 63.8448 1.10953 63.8904 1.22684 63.9132C3.04021 64.3078 4.89104 64.5045 6.74684 64.4999C9.41351 64.4999 11.0935 64.0999 12.0802 61.8332L18.0535 60.5265C27.4935 62.9532 40.4268 63.4598 48.7202 58.1798C51.8668 56.1532 55.3868 53.5932 53.6535 50.1798C53.3292 49.4885 52.8173 48.902 52.1762 48.4872C51.5351 48.0723 50.7904 47.8457 50.0268 47.8332ZM38.4535 49.5665C41.1202 47.9132 44.4268 44.4199 46.4535 45.2199C47.0197 45.41 47.4934 45.8066 47.78 46.3305C48.0667 46.8544 48.1453 47.4672 48.0002 48.0465C43.0668 49.1132 40.7202 50.1532 36.2935 50.7132C37.0402 50.3399 37.8668 49.9132 38.4535 49.5665ZM46.9602 55.7798C36.2935 63.1132 18.2402 58.6065 17.6268 58.7132C11.7602 60.1532 12.2935 60.2065 12.2935 59.9665C13.0668 52.7398 12.2935 46.6332 12.5602 46.6332C15.4015 45.6353 18.0931 44.2536 20.5602 42.5265C22.1335 41.4865 27.5468 38.3932 28.5602 40.0198C30.2402 42.6865 27.2002 43.3532 24.0802 47.3799C22.4802 49.4599 22.8535 50.8732 23.8135 51.8599C25.2359 52.8582 26.8693 53.5152 28.5868 53.7798C34.6668 55.2998 45.1468 51.8332 46.9335 51.4599C48.7202 51.0865 49.9202 50.2598 50.6935 51.7265C51.4668 53.1932 48.1335 54.9798 46.9602 55.7798Z" fill="black"/>
</g>
<defs>
<clipPath id="clip0_1495_840">
<rect width="64" height="64" fill="white" transform="translate(0 0.5)"/>
</clipPath>
</defs>
</svg>
