<svg width="128" height="128" viewBox="0 0 128 128" fill="none" xmlns="http://www.w3.org/2000/svg">
<g clip-path="url(#clip0_1692_703)">
<path fill-rule="evenodd" clip-rule="evenodd" d="M118.507 67.9465C118.289 67.8054 118.045 67.7111 117.789 67.6696C117.533 67.6281 117.272 67.6404 117.021 67.7056C116.77 67.7708 116.535 67.8876 116.332 68.0484C116.129 68.2093 115.961 68.4107 115.84 68.6398C115.704 68.8562 115.613 69.0975 115.572 69.3495C115.531 69.6016 115.54 69.8593 115.6 70.1076C115.66 70.3559 115.768 70.5899 115.919 70.7957C116.07 71.0016 116.261 71.1752 116.48 71.3065C119.512 72.9723 121.799 75.727 122.878 79.0137C123.957 82.3005 123.748 85.8744 122.293 89.0132C120.931 92.2947 118.9 95.256 116.328 97.708C113.757 100.16 110.703 102.049 107.36 103.253C93.9508 107.589 79.959 109.855 65.8667 109.973C51.855 110.419 37.8806 108.286 24.6401 103.68C20.2114 102.235 16.0096 100.17 12.1601 97.5465C9.78338 95.8574 7.80024 93.6742 6.34674 91.1465C5.09594 88.8729 4.5217 86.2889 4.69181 83.6996C4.86191 81.1102 5.76926 78.6236 7.30674 76.5332C8.85555 74.2828 10.8456 72.3707 13.1559 70.913C15.4663 69.4553 18.0488 68.4823 20.7467 68.0532C21.1993 67.9746 21.6052 67.7271 21.8824 67.3608C22.1595 66.9946 22.2874 66.5367 22.2401 66.0798C22.1739 65.6213 21.9296 65.2074 21.5602 64.9278C21.1908 64.6482 20.726 64.5256 20.2667 64.5865C17.8607 64.9111 15.5208 65.613 13.3334 66.6665C11.2335 63.0352 10.3024 58.8454 10.6667 54.6665C10.7661 52.5233 11.2885 50.4209 12.2039 48.4804C13.1192 46.5399 14.4094 44.7996 16.0001 43.3598C17.8528 41.6488 20.0287 40.3251 22.4001 39.4665C24.7724 38.5008 27.2391 37.7858 29.7601 37.3332C31.9201 36.8505 34.16 36.8505 36.3201 37.3332C39.8018 38.38 43.1355 39.8677 46.2401 41.7598C46.4606 41.9275 46.7139 42.0469 46.9835 42.1102C47.2532 42.1736 47.5332 42.1794 47.8052 42.1274C48.0773 42.0754 48.3354 41.9667 48.5627 41.8083C48.7899 41.65 48.9813 41.4456 49.1244 41.2084C49.2675 40.9712 49.359 40.7065 49.393 40.4316C49.4271 40.1567 49.4028 39.8777 49.3219 39.6128C49.241 39.3479 49.1053 39.103 48.9235 38.894C48.7417 38.685 48.5179 38.5166 48.2667 38.3998L44.1067 35.6798C44.2506 35.4738 44.3422 35.2358 44.3734 34.9865C44.577 32.1901 45.5119 29.4962 47.0845 27.1749C48.657 24.8535 50.8119 22.9861 53.3334 21.7598C57.9805 18.8115 63.4856 17.5151 68.9601 18.0798C71.5922 18.402 74.1031 19.3733 76.2667 20.9065C78.5005 22.4493 80.4193 24.4043 81.9201 26.6665C84.3061 29.807 85.9309 33.4583 86.6667 37.3332C86.919 38.4416 86.9305 39.5913 86.7005 40.7046C86.4705 41.8178 86.0043 42.8688 85.3334 43.7865C84.9686 44.1558 84.7641 44.6541 84.7641 45.1732C84.7641 45.6923 84.9686 46.1905 85.3334 46.5598C85.7118 46.928 86.2188 47.134 86.7467 47.134C87.2746 47.134 87.7817 46.928 88.1601 46.5598C89.3414 45.2874 90.2378 43.7778 90.7896 42.1316C91.3414 40.4854 91.5359 38.7405 91.3601 37.0132C93.9456 36.5396 96.572 36.3252 99.2001 36.3732C101.798 36.4722 104.344 37.1269 106.667 38.2932C109.287 39.6281 111.638 41.4363 113.6 43.6265C115.692 45.757 117.486 48.1611 118.933 50.7732C122.012 56.0136 123.002 62.2218 121.707 68.1598C121.597 68.6392 121.671 69.1422 121.912 69.5703C122.154 69.9984 122.547 70.3207 123.014 70.4742C123.482 70.6277 123.989 70.6013 124.438 70.4001C124.887 70.1989 125.244 69.8374 125.44 69.3865C127.968 62.4348 127.642 54.7654 124.533 48.0532C123.058 44.683 120.979 41.6105 118.4 38.9865C115.731 36.3383 112.532 34.2845 109.013 32.9598C106.494 32.0814 103.841 31.6483 101.173 31.6798C97.5389 31.7975 93.9428 32.4628 90.5067 33.6532C89.717 30.2097 88.4609 26.8902 86.7734 23.7865C85.0906 20.6213 82.787 17.8279 80.0001 15.5732C76.8721 13.2903 73.188 11.8904 69.3334 11.5198C65.7459 11.1325 62.1171 11.4772 58.6667 12.5332C55.405 13.6083 52.342 15.2118 49.6001 17.2798C46.9391 19.1652 44.7668 21.6588 43.264 24.553C41.7612 27.4473 40.9713 30.6587 40.9601 33.9198C39.9129 33.3293 38.8258 32.8125 37.7067 32.3732C34.9144 31.4194 31.9503 31.0739 29.0134 31.3598C25.1497 31.713 21.3585 32.6293 17.7601 34.0798C15.2325 35.1719 12.9205 36.7072 10.9334 38.6132C8.94184 40.7568 7.39732 43.2757 6.39004 46.0228C5.38275 48.77 4.9329 51.6903 5.06674 54.6132C5.3936 59.6377 7.25526 64.4408 10.4001 68.3732C7.8768 69.8511 5.66652 71.8078 3.89341 74.1332C1.77504 76.8366 0.465464 80.0846 0.116242 83.5013C-0.232981 86.918 0.392421 90.3638 1.92008 93.4398C3.5879 96.7065 5.95516 99.5654 8.85341 101.813C13.0079 104.951 17.5869 107.483 22.4534 109.333C36.3565 114.54 51.1322 117.021 65.9734 116.64C80.737 116.271 95.3437 113.516 109.227 108.48C114.06 106.603 118.327 103.512 121.616 99.5034C124.905 95.4953 127.104 90.7064 128 85.5998C128.441 82.0365 127.764 78.4241 126.064 75.2618C124.363 72.0995 121.723 69.5434 118.507 67.9465Z" fill="#EBEFFF"/>
<path fill-rule="evenodd" clip-rule="evenodd" d="M33.3334 72.8529L40.1068 62.1863C40.2504 62.0112 40.358 61.8095 40.4237 61.5928C40.4893 61.3761 40.5116 61.1486 40.4894 60.9232C40.4671 60.6979 40.4006 60.4792 40.2938 60.2795C40.187 60.0798 40.0419 59.9032 39.8668 59.7596C39.6917 59.616 39.49 59.5083 39.2733 59.4427C39.0566 59.3771 38.8291 59.3547 38.6037 59.377C38.3784 59.3993 38.1597 59.4658 37.96 59.5726C37.7604 59.6794 37.5837 59.8245 37.4401 59.9996L28.5334 69.3329C27.6268 70.3996 26.5601 71.3063 25.8134 72.2129C24.8119 73.3131 24.1619 74.6875 23.9468 76.1596C23.9468 78.1863 24.3201 80.5863 27.9468 82.7196L31.9468 84.2663L36.0534 85.0129H36.6401V90.3463C36.6106 90.8753 36.7895 91.3948 37.1384 91.7936C37.4873 92.1923 37.9785 92.4386 38.5068 92.4796C38.7703 92.509 39.037 92.485 39.2911 92.409C39.5451 92.3331 39.7812 92.2067 39.9853 92.0374C40.1894 91.8682 40.3573 91.6595 40.479 91.4239C40.6006 91.1884 40.6736 90.9307 40.6934 90.6663C41.0668 88.7463 41.5468 86.7729 41.9734 84.7996H45.7601C46.2754 84.8444 46.7877 84.685 47.1867 84.3558C47.5857 84.0267 47.8395 83.554 47.8934 83.0396C47.9229 82.7831 47.9003 82.5233 47.827 82.2757C47.7538 82.0281 47.6313 81.7979 47.467 81.5987C47.3027 81.3996 47.0999 81.2356 46.8708 81.1166C46.6416 80.9976 46.3909 80.9261 46.1334 80.9063L42.9334 79.9996C42.9334 79.0929 43.3068 78.2396 43.4134 77.3329C43.5201 76.4263 43.7334 74.6663 43.7868 73.3329V63.8929C43.8467 63.6533 43.8555 63.4037 43.8125 63.1604C43.7696 62.9171 43.676 62.6856 43.5377 62.4809C43.3994 62.2762 43.2196 62.1029 43.0099 61.9723C42.8002 61.8417 42.5654 61.7567 42.3207 61.7228C42.076 61.6889 41.8269 61.7069 41.5896 61.7756C41.3523 61.8444 41.1322 61.9623 40.9435 62.1217C40.7548 62.2811 40.6018 62.4785 40.4944 62.701C40.387 62.9234 40.3276 63.166 40.3201 63.4129C39.4134 66.4529 38.2934 69.3329 37.5468 72.4796C37.2334 73.7794 37.0019 75.0975 36.8534 76.4263V79.0929L34.1334 78.1863C29.2268 75.7863 30.0268 77.7596 33.3334 72.8529Z" fill="#EBEFFF"/>
<path fill-rule="evenodd" clip-rule="evenodd" d="M87.68 73.333L93.0133 61.653C93.1379 61.4585 93.2217 61.2407 93.2596 61.0128C93.2975 60.7849 93.2888 60.5517 93.234 60.3273C93.1791 60.103 93.0793 59.892 92.9405 59.7074C92.8017 59.5227 92.6269 59.3681 92.4267 59.253C92.0265 59.0293 91.5566 58.9655 91.1113 59.0743C90.666 59.1832 90.2785 59.4566 90.0267 59.8396L82.5067 70.5063C81.7067 71.6263 80.8 72.693 80.16 73.7063C79.3293 74.9182 78.8663 76.3442 78.8267 77.813C78.8267 79.893 79.7867 82.1863 83.68 83.8396L87.8933 84.853H92.0533H92.5867C92.5867 86.613 93.12 88.4263 93.44 90.1863C93.481 90.7004 93.7216 91.1781 94.1103 91.517C94.4991 91.8559 95.0051 92.0292 95.52 91.9996C95.7793 91.986 96.0333 91.9213 96.2675 91.8094C96.5018 91.6974 96.7116 91.5403 96.885 91.347C97.0584 91.1538 97.192 90.9283 97.2781 90.6833C97.3641 90.4384 97.4011 90.1789 97.3867 89.9196C97.3867 87.893 97.7067 85.9196 97.8667 83.893L101.6 83.3063C102.123 83.3063 102.625 83.0984 102.995 82.7283C103.365 82.3583 103.573 81.8563 103.573 81.333C103.573 80.8096 103.365 80.3077 102.995 79.9376C102.625 79.5676 102.123 79.3596 101.6 79.3596H98.4V76.6396V72.693C98.4 69.493 97.4933 66.453 97.0667 63.3063C97.1112 63.0532 97.0998 62.7935 97.0333 62.5453C96.9667 62.2971 96.8466 62.0665 96.6814 61.8696C96.5162 61.6728 96.3099 61.5145 96.077 61.406C95.8441 61.2974 95.5903 61.2411 95.3333 61.2411C95.0764 61.2411 94.8225 61.2974 94.5896 61.406C94.3567 61.5145 94.1504 61.6728 93.9852 61.8696C93.82 62.0665 93.6999 62.2971 93.6334 62.5453C93.5668 62.7935 93.5554 63.0532 93.6 63.3063C93.0667 66.3996 92.3733 69.4396 92.0533 72.6396V76.693V79.3063L89.28 78.773C83.84 76.7463 85.0133 78.7196 87.68 73.333Z" fill="#EBEFFF"/>
<path fill-rule="evenodd" clip-rule="evenodd" d="M70.6134 67.1996C66.6134 64.3729 64.1067 64.9063 59.52 67.1996C57.8057 68.1519 56.2859 69.4184 55.04 70.9329C53.3048 72.9822 52.1678 75.4701 51.7538 78.1233C51.3398 80.7764 51.6649 83.4924 52.6934 85.9729C53.5979 87.8133 55.0288 89.3433 56.8045 90.3689C58.5802 91.3944 60.6206 91.8692 62.6667 91.7329C64.8907 91.5919 67.0408 90.8797 68.9093 89.6652C70.7778 88.4506 72.3015 86.7748 73.3334 84.7996C74.3533 82.9828 74.9969 80.9794 75.226 78.9085C75.4551 76.8377 75.2649 74.742 74.6667 72.7463C73.8688 70.5504 72.4631 68.6268 70.6134 67.1996ZM68.0534 81.4929C67.5148 82.4715 66.7494 83.3067 65.8214 83.9284C64.8934 84.5502 63.8299 84.9404 62.72 85.0663C61.6382 85.1695 60.5544 84.8897 59.6577 84.2756C58.761 83.6616 58.1083 82.7523 57.8134 81.7063C57.406 80.3771 57.2857 78.9765 57.4603 77.5974C57.635 76.2182 58.1008 74.8919 58.8267 73.7063C59.4578 72.6632 60.2295 71.7121 61.12 70.8796C62.0784 70.0814 63.2861 69.6443 64.5334 69.6443C65.7806 69.6443 66.9884 70.0814 67.9467 70.8796C68.9679 71.7914 69.7079 72.9755 70.08 74.2929C70.3641 76.865 69.6374 79.4467 68.0534 81.4929Z" fill="#EBEFFF"/>
</g>
<defs>
<clipPath id="clip0_1692_703">
<rect width="128" height="128" fill="white"/>
</clipPath>
</defs>
</svg>
