<svg width="126" height="126" viewBox="0 0 126 126" fill="none" xmlns="http://www.w3.org/2000/svg">
<g clip-path="url(#clip0_1495_1056)">
<path fill-rule="evenodd" clip-rule="evenodd" d="M39.771 74.3541C41.3587 75.4564 42.7202 76.8532 43.7814 78.4687C45.7085 81.177 47.2189 84.2499 48.9897 86.9062C49.2877 87.3526 49.7465 87.6668 50.2705 87.7832C50.7945 87.8997 51.3432 87.8094 51.8022 87.5312C52.2537 87.251 52.5774 86.8051 52.704 86.2891C52.8305 85.7731 52.7499 85.228 52.4793 84.7708C50.6043 81.4374 49.0939 77.5312 46.9064 74.3541C45.8506 72.7242 44.5508 71.2663 43.0522 70.0312C41.7395 68.7761 40.087 67.9343 38.2999 67.6102C36.5129 67.2861 34.67 67.4941 33.0001 68.2083C29.0747 70.5096 25.8929 73.8902 23.8335 77.9479C21.8022 81.5937 19.6668 85.3437 17.6356 89.1979C15.6043 93.052 13.6772 96.5937 11.4376 100.187C8.54153 104.927 5.03979 109.27 1.02097 113.104C0.702346 113.442 0.524902 113.889 0.524902 114.354C0.524902 114.819 0.702346 115.266 1.02097 115.604C1.35289 115.935 1.80238 116.121 2.27097 116.121C2.73956 116.121 3.18905 115.935 3.52097 115.604C8.24106 111.995 12.4772 107.794 16.1251 103.104C18.8026 99.6489 21.289 96.0498 23.5731 92.3229C25.8647 88.6249 27.896 84.7708 29.9793 81.1249C31.0554 78.086 32.9694 75.4137 35.5001 73.4166C36.2264 73.1428 37.0165 73.0857 37.7746 73.2521C38.5326 73.4185 39.2262 73.8013 39.771 74.3541Z" fill="#DBE2FF"/>
<path fill-rule="evenodd" clip-rule="evenodd" d="M79.7709 44.5101C78.5324 45.0823 77.3763 45.818 76.3334 46.6976C70.5503 52.8917 65.7229 59.9133 62.0104 67.5309C62.0104 68.0518 61.75 68.6247 61.5938 69.1455C61.543 69.3508 61.543 69.5653 61.5938 69.7705C60.0769 76.0826 58.2165 82.3071 56.0209 88.4163C54.3396 92.5308 52.264 96.4728 49.8229 100.187C46.1471 105.881 42.1475 111.358 37.8438 116.593C37.6735 116.754 37.5379 116.948 37.4452 117.163C37.3525 117.378 37.3047 117.609 37.3047 117.843C37.3047 118.078 37.3525 118.309 37.4452 118.524C37.5379 118.739 37.6735 118.933 37.8438 119.093C38.182 119.412 38.6291 119.589 39.0938 119.589C39.5584 119.589 40.0056 119.412 40.3438 119.093C44.9886 113.946 49.3359 108.538 53.3646 102.896C56.1493 99.0655 58.5728 94.9855 60.6042 90.708C62.6476 85.9977 64.3873 81.1615 65.8125 76.2288C66.8873 77.3587 68.0938 78.3554 69.4063 79.1976C70.7766 80.0277 72.3126 80.5465 73.9056 80.7175C75.4986 80.8885 77.1097 80.7075 78.625 80.1872C79.6061 79.8264 80.5345 79.3359 81.3854 78.7288C82.2378 78.1188 83.0234 77.4205 83.7292 76.6455L85.8646 77.8955C88.7206 79.0631 91.7913 79.6134 94.875 79.5101C97.1317 79.3382 99.338 78.7557 101.385 77.7913C103.885 83.9893 106.594 90.2393 109.25 96.2809C112.661 103.887 116.999 111.042 122.167 117.583C122.518 117.914 122.976 118.108 123.458 118.132C123.941 118.156 124.415 118.007 124.798 117.712C125.18 117.417 125.445 116.996 125.545 116.524C125.645 116.052 125.574 115.559 125.344 115.135C120.662 108.683 116.78 101.688 113.781 94.3018C108.99 83.1038 105.396 71.2288 100.76 60.0309C99.6146 57.3747 98.4167 54.8226 97.0625 52.1663C94.5154 49.0143 91.5139 46.2585 88.1563 43.9893C87.3833 43.4205 86.4588 43.0942 85.5 43.0518H84.6667C82.9996 43.4109 81.3628 43.8985 79.7709 44.5101ZM94.7188 74.3018C92.4549 74.0244 90.2733 73.2794 88.3125 72.1143C87.3003 71.4213 86.3267 70.6736 85.3959 69.8747C84.8663 69.576 84.3079 69.3317 83.7292 69.1455C83.1409 68.9806 82.5201 68.9707 81.9268 69.1167C81.3336 69.2628 80.7883 69.5597 80.3438 69.9788C79.878 70.4356 79.443 70.9228 79.0417 71.4372C78.5705 72.0385 78.0284 72.5806 77.4271 73.0518C76.9838 73.5031 76.4518 73.8578 75.8646 74.0934C75.0287 74.4455 74.1217 74.5959 73.2169 74.5326C72.3122 74.4692 71.435 74.1939 70.6563 73.7288C69.5428 73.1692 68.4947 72.488 67.5313 71.6976C67.5313 71.0726 67.9479 70.3955 68.2084 69.7184C72.751 62.4473 78.174 55.7648 84.3542 49.8226C84.3542 50.708 93.7813 60.2393 94.7709 62.5309C96.4896 66.2288 98 70.0309 99.5104 73.833C97.9565 74.287 96.3313 74.446 94.7188 74.3018Z" fill="#DBE2FF"/>
<path fill-rule="evenodd" clip-rule="evenodd" d="M77.9482 32.8436C78.2086 34.2498 78.469 36.2811 78.7815 38.0519C80.0836 40.3956 83.3648 42.2706 84.3544 37.1144V36.4373C87.1866 36.2898 89.9963 35.8535 92.7398 35.1352C94.1681 34.7478 95.5618 34.2426 96.9065 33.6248C98.2302 32.9665 99.5168 32.2362 100.761 31.4373C103.625 29.4793 106.247 27.189 108.573 24.6144C115.084 18.7811 114.615 21.3331 100.448 13.7811C98.1056 12.4147 95.6887 11.1802 93.2086 10.0831C88.858 8.2004 84.2645 6.93807 79.5628 6.33313C79.3404 6.27065 79.1078 6.25362 78.8787 6.28306C78.6496 6.31251 78.4288 6.38781 78.2295 6.50449C78.0302 6.62116 77.8564 6.77681 77.7186 6.96214C77.5808 7.14747 77.4817 7.35867 77.4273 7.58314C77.3406 7.93644 77.3756 8.30869 77.5269 8.63956C77.6781 8.97043 77.9367 9.24052 78.2607 9.40605C77.8523 9.50177 77.4895 9.73535 77.2334 10.0674C76.9772 10.3995 76.8434 10.8097 76.8544 11.229C76.8544 15.8123 76.4898 20.2915 76.8544 24.8748C77.0628 27.5311 77.5315 30.1873 77.9482 32.8436ZM89.0419 15.3956C91.3737 16.7663 93.792 17.9841 96.2815 19.0415C99.1939 20.2622 102.209 21.2209 105.292 21.9061C103.961 22.7401 102.587 23.505 101.177 24.1977C99.6148 25.0311 97.9482 25.604 96.3336 26.3331C94.719 27.0623 93.1044 27.7394 91.5419 28.5206C89.1114 29.7359 86.6634 30.8817 84.1982 31.9581C84.1544 30.4252 84.0327 28.8954 83.8336 27.3748C83.6833 25.624 83.4223 23.8844 83.0523 22.1665C82.2711 18.2602 81.1773 14.5623 80.2919 10.7081V10.2915C83.2607 11.9061 86.1253 13.729 89.0419 15.3956Z" fill="#DBE2FF"/>
</g>
<defs>
<clipPath id="clip0_1495_1056">
<rect width="125" height="125" fill="white" transform="translate(0.5 0.5)"/>
</clipPath>
</defs>
</svg>
