<svg width="128" height="128" viewBox="0 0 128 128" fill="none" xmlns="http://www.w3.org/2000/svg">
<g clip-path="url(#clip0_1681_721)">
<path d="M55.1466 66.5596C54.3466 65.9729 53.7066 66.0263 50.9333 67.3596C48.1599 68.6929 44.3199 70.9329 36.5866 74.9863C36.3586 75.094 36.1547 75.2468 35.9873 75.4354C35.82 75.6241 35.6926 75.8447 35.6128 76.0839C35.5331 76.3232 35.5026 76.5761 35.5233 76.8274C35.544 77.0788 35.6154 77.3233 35.7333 77.5463C35.8354 77.7725 35.983 77.9754 36.1667 78.1423C36.3505 78.3092 36.5665 78.4366 36.8015 78.5166C37.0365 78.5966 37.2854 78.6275 37.5329 78.6073C37.7803 78.5872 38.0209 78.5165 38.2399 78.3996C43.5733 75.9463 47.6799 74.0796 50.2399 73.0663C49.2799 76.2129 47.6799 80.7463 45.8666 85.1729C44.4274 88.8329 42.7527 92.3959 40.8533 95.8396C40.3311 96.9712 39.5876 97.9867 38.6666 98.8263C38.6666 98.8263 38.2399 98.8263 37.9733 98.8263L35.9466 98.5063C34.0266 98.0263 32.1066 97.3329 31.0399 97.0129L8.90659 90.0796L15.9999 87.0396C16.4239 86.8835 16.7686 86.5656 16.9585 86.1557C17.1485 85.7458 17.1682 85.2773 17.0133 84.8529C16.9363 84.6498 16.8201 84.4637 16.6712 84.3055C16.5223 84.1473 16.3437 84.02 16.1456 83.9308C15.9474 83.8416 15.7337 83.7924 15.5165 83.7859C15.2993 83.7794 15.083 83.8158 14.8799 83.8929C11.4666 85.0663 1.43993 88.7996 1.33326 88.8529C0.921885 89.0093 0.586805 89.3185 0.397984 89.716C0.209163 90.1135 0.181198 90.5686 0.319927 90.9863C1.30821 94.0419 2.09216 97.1599 2.66659 100.32C3.62659 105.173 4.31993 110.026 5.11993 114.88C5.31062 117.224 5.63112 119.557 6.07993 121.866C6.40064 123.462 7.26834 124.895 8.53326 125.92C9.7915 126.707 11.2651 127.08 12.7466 126.986C15.0565 126.705 17.3281 126.168 19.5199 125.386C23.1466 124.32 26.7733 123.146 30.1866 121.92C33.5999 120.693 37.2799 119.36 40.8533 118.026C46.1866 116 49.9733 114.453 54.1866 112.693C56.8533 111.52 59.5199 110.24 62.8799 108.64C65.5189 107.47 67.9088 105.804 69.9199 103.733C71.0869 102.413 71.6984 100.693 71.6266 98.9329C70.2632 92.9778 68.0541 87.2486 65.0666 81.9196C62.5328 76.3399 59.1902 71.1643 55.1466 66.5596ZM64.3199 101.013C63.0544 101.89 61.6949 102.624 60.2666 103.2L38.3466 112L17.4933 119.733C16.4266 120.106 14.9333 120.8 13.4933 121.173C12.0533 121.546 11.1999 122.666 10.6666 118.773C10.2399 116.853 10.0266 114.826 9.86659 113.92C8.69326 109.12 7.73326 104.266 6.45326 99.4663C5.97276 97.4454 5.38526 95.4515 4.69326 93.4929C7.73326 94.7196 13.0666 96.9063 18.3999 98.8263C22.5066 100.373 26.5066 101.866 29.3866 102.826C31.8887 103.788 34.4788 104.502 37.1199 104.96C38.9424 105.33 40.8374 105.027 42.4533 104.106C46.0808 100.309 48.7502 95.7018 50.2399 90.6663C52.4151 85.0183 54.1971 79.2267 55.5733 73.3329C57.1733 76.0529 59.0933 79.9996 60.9066 83.9996C63.3841 88.8305 65.179 93.9819 66.2399 99.3063C66.0266 99.9996 65.1199 100.48 64.3199 101.013Z" fill="#072377"/>
<path d="M82.7734 10.1331C83.9443 12.0474 84.3446 14.3349 83.8934 16.5331C83.8934 17.1731 81.5467 20.2131 81.0134 21.5998C80.8044 22.0416 80.6961 22.5243 80.6961 23.0131C80.6961 23.5019 80.8044 23.9846 81.0134 24.4264C81.4548 25.2343 82.0979 25.9141 82.88 26.3998C83.84 27.0398 85.12 27.3598 85.92 27.8931C87.5041 28.9538 88.8486 30.3346 89.8667 31.9464C90.342 32.5366 90.6558 33.2402 90.7773 33.9881C90.8989 34.7361 90.824 35.5028 90.56 36.2131C90.2203 36.8566 89.7688 37.4345 89.2267 37.9198C88.6181 38.4179 87.9563 38.8471 87.2534 39.1998C86.4572 39.4607 85.689 39.8002 84.96 40.2131C84.6617 40.3807 84.4026 40.6102 84.2003 40.8862C83.9979 41.1621 83.8569 41.4782 83.7867 41.8131C83.7444 42.3536 83.8124 42.8971 83.9866 43.4105C84.1608 43.9239 84.4375 44.3966 84.8 44.7998C85.92 46.1864 88.2134 47.9464 88.64 49.0664C88.9465 49.8166 89.0536 50.6333 88.9507 51.437C88.8479 52.2408 88.5388 53.0043 88.0534 53.6531C85.9084 55.9404 83.3112 57.7567 80.4267 58.9864C80.2291 59.0828 80.0527 59.2176 79.9078 59.383C79.7629 59.5484 79.6525 59.741 79.5829 59.9496C79.5134 60.1582 79.4862 60.3786 79.5029 60.5978C79.5195 60.817 79.5798 61.0308 79.68 61.2264C79.8854 61.6293 80.2422 61.9342 80.6722 62.0742C81.1022 62.2142 81.5702 62.1779 81.9734 61.9731C85.345 60.65 88.4118 58.6538 90.9867 56.1064C91.911 54.9965 92.5219 53.6598 92.7564 52.2345C92.9908 50.8093 92.8401 49.3473 92.32 47.9998C91.7564 46.0872 90.8727 44.2839 89.7067 42.6664C90.5454 42.2635 91.3331 41.7622 92.0534 41.1731C93.0602 40.3917 93.8953 39.4114 94.5067 38.2931C95.0869 37.1627 95.3896 35.9104 95.3896 34.6398C95.3896 33.3692 95.0869 32.1168 94.5067 30.9864C93.2034 28.0169 91.1209 25.4553 88.48 23.5731L86.9334 22.7198C87.7989 21.2889 88.4629 19.7454 88.9067 18.1331C89.4888 15.9713 89.5996 13.7096 89.2315 11.5012C88.8634 9.29281 88.0251 7.1893 86.7734 5.3331C85.817 3.93083 84.5133 2.80058 82.9896 2.05276C81.4659 1.30493 79.7743 0.965087 78.08 1.06643C76.0287 1.13515 74.0318 1.74317 72.2903 2.82928C70.5487 3.91539 69.1242 5.44122 68.16 7.2531C66.3902 11.7803 65.1899 16.5099 64.5867 21.3331C63.5784 25.947 62.0206 30.4234 59.9467 34.6664C57.9737 38.8005 55.2419 42.5273 51.8934 45.6531C50.9334 46.5064 48.7467 48.6398 46.56 50.5598C45.5348 51.4371 44.4475 52.2392 43.3067 52.9598C40.9953 50.5446 38.4191 48.3977 35.6267 46.5598C36.32 41.5347 36.32 36.4382 35.6267 31.4131C35.0149 27.5758 33.5376 23.928 31.3067 20.7464C29.6534 18.5064 25.9734 15.6798 23.84 12.5331C23.3191 12.0083 22.9312 11.3667 22.7086 10.6616C22.4859 9.95656 22.435 9.2085 22.56 8.47976C22.6747 8.2245 22.8523 8.00252 23.0762 7.83462C23.3 7.66671 23.5629 7.55838 23.84 7.51976C24.9587 7.15885 26.132 6.9964 27.3067 7.03976C29.8647 7.02802 32.3945 7.57403 34.72 8.63976C35.4134 9.06643 35.52 9.86643 35.7867 10.4531C36.0729 11.2066 36.449 11.9229 36.9067 12.5864C37.1712 12.9575 37.4956 13.2819 37.8667 13.5464C38.5015 14.0297 39.259 14.3254 40.0534 14.3998C41.4644 14.4139 42.874 14.3069 44.2667 14.0798C45.3986 14.0908 46.5191 14.3077 47.5734 14.7198C48.5969 15.1516 49.5223 15.7867 50.2934 16.5864C50.7217 17.1071 51.0475 17.7044 51.2534 18.3464C51.4893 19.0136 51.5978 19.7192 51.5734 20.4264C51.5734 20.7998 50.9867 22.2398 50.9334 23.1464C50.8678 23.528 50.8813 23.919 50.973 24.2951C51.0647 24.6713 51.2328 25.0246 51.4667 25.3331C51.6405 25.5105 51.8479 25.6514 52.0769 25.7476C52.3058 25.8438 52.5517 25.8934 52.8 25.8934C53.0484 25.8934 53.2942 25.8438 53.5232 25.7476C53.7521 25.6514 53.9596 25.5105 54.1334 25.3331C54.1334 25.3331 55.0934 24.9064 55.6267 20.5331C55.73 19.3324 55.6217 18.123 55.3067 16.9598C54.8382 15.8829 54.1684 14.9054 53.3334 14.0798C52.2824 12.6475 50.9131 11.479 49.3334 10.6664C46.665 9.48577 43.7707 8.90325 40.8534 8.95976C40.6078 8.07274 40.2681 7.21453 39.84 6.39976C39.3547 5.42451 38.6183 4.59611 37.7067 3.99976C33.8572 1.83755 29.4768 0.80253 25.0667 1.0131C23.1355 0.902407 21.2188 1.40502 19.5904 2.44909C17.962 3.49317 16.7054 5.02527 16 6.82643C15.5996 8.14417 15.4924 9.53356 15.6859 10.8971C15.8793 12.2607 16.3688 13.5654 17.12 14.7198C20.0286 18.2299 23.2216 21.4943 26.6667 24.4798C28.6447 26.8228 30.0831 29.5722 30.88 32.5331C31.8216 36.6586 32.1984 40.8929 32 45.1198C31.4615 44.9449 30.9081 44.8199 30.3467 44.7464C27.2959 44.3893 24.204 44.7735 21.3334 45.8664C18.6031 46.7705 16.2076 48.4744 14.4577 50.7568C12.7078 53.0393 11.6843 55.7951 11.52 58.6664C11.5591 61.2015 12.1806 63.6936 13.3366 65.9501C14.4926 68.2066 16.1521 70.167 18.1867 71.6798C18.1601 72.0704 18.1601 72.4624 18.1867 72.8531C18.2558 74.0052 18.4343 75.1482 18.72 76.2664L19.4667 79.3064C19.7973 81.0683 20.7423 82.6558 22.1334 83.7864C23.3067 84.3731 24.96 84.5864 26.72 82.2931L27.84 80.5864L32 74.6664C32.2281 74.2666 32.305 73.7981 32.2166 73.3464C32.1282 72.8946 31.8805 72.4897 31.5185 72.2053C31.1566 71.9209 30.7045 71.776 30.2447 71.797C29.7848 71.818 29.3479 72.0035 29.0134 72.3198L24.5334 78.6664L24.1067 79.3064C23.9326 79.0391 23.7895 78.7528 23.68 78.4531L23.04 75.5198C23.04 74.7731 23.04 73.9731 22.72 73.1731C22.6136 72.5375 22.6136 71.8887 22.72 71.2531C22.7519 70.8922 22.6957 70.529 22.5564 70.1946C22.4171 69.8602 22.1987 69.5646 21.92 69.3331C20.2982 68.2059 18.9684 66.7084 18.0409 64.9647C17.1134 63.221 16.6149 61.2813 16.5867 59.3064C16.6984 57.4572 17.3707 55.6859 18.514 54.2282C19.6573 52.7705 21.2174 51.6956 22.9867 51.1464C25.0833 50.3805 27.3363 50.1424 29.5467 50.4531C31.6147 50.906 33.4835 52.0087 34.88 53.5998C35.6267 54.3998 37.4934 56.9064 38.9334 58.1864C39.7219 59.0006 40.7494 59.5423 41.8667 59.7331C44.1192 59.5849 46.2667 58.7259 48 57.2798C50.8932 55.1353 53.6705 52.8388 56.32 50.3998C60.236 46.6793 63.4041 42.244 65.6534 37.3331C68.0269 32.6632 69.818 27.7195 70.9867 22.6131C71.411 18.3351 72.3603 14.1257 73.8134 10.0798C74.2862 9.1621 74.995 8.38692 75.8667 7.8339C76.7384 7.28087 77.7417 6.96995 78.7734 6.9331C80.48 6.9331 81.8667 8.42643 82.7734 10.1331Z" fill="#F5F7FF"/>
<path d="M128 81.0133C127.265 75.5257 125.85 70.151 123.786 65.0133C123.193 63.351 122.268 61.8267 121.066 60.5333C119.884 59.5564 118.434 58.9613 116.906 58.8267C114.328 58.8411 111.763 59.1998 109.28 59.8933C105.587 60.9337 101.827 61.7178 98.0264 62.24C95.7055 62.433 93.3738 62.029 91.2531 61.0667C90.8042 60.9152 90.3152 60.9349 89.88 61.1222C89.4448 61.3095 89.0943 61.6511 88.8958 62.0812C88.6972 62.5114 88.6647 62.9997 88.8045 63.4524C88.9443 63.9051 89.2466 64.29 89.6531 64.5333C92.276 65.8741 95.1876 66.5516 98.1331 66.5067C102.168 66.2153 106.177 65.645 110.133 64.8C111.664 64.4718 113.213 64.2403 114.773 64.1067C117.866 64.1067 117.653 65.2267 118.026 66.1867C119.181 69.5016 120.125 72.8861 120.853 76.32C123.466 86.9867 120.853 87.84 116.16 87.4667C110.026 86.9867 103.52 83.52 97.8131 84.2133C96.7137 84.3385 95.6752 84.7836 94.8264 85.4933C93.862 86.6075 92.9712 87.7833 92.1597 89.0133C90.8837 90.4222 89.5115 91.7409 88.0531 92.96C86.6423 94.1867 85.1047 95.2594 83.4664 96.16L77.5464 98.7733C77.3385 98.845 77.1469 98.9574 76.9829 99.104C76.819 99.2506 76.6859 99.4284 76.5916 99.6271C76.4972 99.8258 76.4434 100.041 76.4334 100.261C76.4233 100.481 76.4572 100.7 76.5331 100.907C76.6675 101.324 76.9622 101.671 77.3522 101.871C77.7423 102.071 78.1958 102.108 78.6131 101.973L85.1197 99.5733C87.0033 98.6726 88.7903 97.5826 90.4531 96.32C92.1755 95.0994 93.7984 93.7441 95.3064 92.2667C96.0363 91.4954 96.7134 90.6757 97.3331 89.8133C97.5033 89.5796 97.7477 89.4104 98.0264 89.3333C100.747 89.4422 103.424 90.0572 105.92 91.1467C108.967 92.3443 112.131 93.2201 115.36 93.76C118.672 94.1602 122.024 93.4673 124.906 91.7867C125.607 91.3262 126.208 90.7305 126.675 90.0345C127.142 89.3384 127.466 88.5561 127.626 87.7333C128.115 85.5285 128.241 83.2587 128 81.0133Z" fill="#F5F7FF"/>
</g>
<defs>
<clipPath id="clip0_1681_721">
<rect width="128" height="128" fill="white"/>
</clipPath>
</defs>
</svg>
