<svg width="118" height="31" viewBox="0 0 118 31" fill="none" xmlns="http://www.w3.org/2000/svg">
<path d="M0.368 9.632C0.368 7.52 1.34933 6.464 3.312 6.464V6.336H0.368V3.584H8.144C9.872 3.584 11.376 3.82933 12.656 4.32C13.936 4.78933 14.992 5.472 15.824 6.368C16.6773 7.264 17.3067 8.352 17.712 9.632C18.1173 10.8907 18.32 12.3093 18.32 13.888C18.32 17.1947 17.4773 19.712 15.792 21.44C14.128 23.1467 11.5787 24 8.144 24H0.368V9.632ZM3.728 21.216H8.176C10.544 21.216 12.2613 20.576 13.328 19.296C14.3947 17.9947 14.928 16.192 14.928 13.888C14.928 12.7573 14.8 11.7333 14.544 10.816C14.3093 9.89867 13.9253 9.10933 13.392 8.448C12.8587 7.76533 12.1547 7.24267 11.28 6.88C10.4267 6.51733 9.392 6.336 8.176 6.336H3.728V21.216ZM21.0643 2.976C21.0643 2.22933 21.2883 1.62133 21.7363 1.152C22.2056 0.682665 22.8136 0.447998 23.5603 0.447998C24.3069 0.447998 24.9043 0.682665 25.3523 1.152C25.8003 1.62133 26.0243 2.22933 26.0243 2.976C26.0243 3.744 25.8003 4.37333 25.3523 4.864C24.9043 5.33333 24.3069 5.568 23.5603 5.568C22.8136 5.568 22.2056 5.33333 21.7363 4.864C21.2883 4.37333 21.0643 3.744 21.0643 2.976ZM21.9283 8.48H25.1603V24H21.9283V8.48ZM37.3575 11.072C38.1042 11.2 38.8188 11.3813 39.5015 11.616C40.2055 11.8507 40.8242 12.192 41.3575 12.64C41.8908 13.0667 42.3068 13.6107 42.6055 14.272C42.9255 14.9333 43.0855 15.744 43.0855 16.704C43.0855 17.6853 42.9255 18.592 42.6055 19.424C42.3068 20.2347 41.8588 20.9387 41.2615 21.536C40.6642 22.1333 39.9175 22.6027 39.0215 22.944C38.1468 23.264 37.1335 23.424 35.9815 23.424C35.8535 23.424 35.7255 23.424 35.5975 23.424C35.4695 23.424 35.3522 23.4133 35.2455 23.392C34.1575 23.648 33.3895 24 32.9415 24.448C32.5148 24.896 32.3015 25.344 32.3015 25.792C32.3015 26.1973 32.4722 26.5067 32.8135 26.72C33.1548 26.9547 33.7202 27.072 34.5095 27.072H44.5575V29.92H33.2935C32.4188 29.92 31.6828 29.856 31.0855 29.728C30.5095 29.6213 30.0402 29.44 29.6775 29.184C29.3362 28.9493 29.0908 28.6613 28.9415 28.32C28.7922 27.9787 28.7175 27.584 28.7175 27.136C28.7175 26.624 28.8135 26.1653 29.0055 25.76C29.2188 25.3547 29.5495 25.0027 29.9975 24.704C30.4668 24.4053 31.0642 24.1387 31.7895 23.904C32.5362 23.6693 33.4428 23.4773 34.5095 23.328C32.7388 23.0507 31.3415 22.2933 30.3175 21.056C29.2935 19.8187 28.7815 18.1013 28.7815 15.904C28.7815 14.688 28.9522 13.6213 29.2935 12.704C29.6348 11.7867 30.1148 11.0187 30.7335 10.4C31.3735 9.76 32.1308 9.28 33.0055 8.96C33.8802 8.64 34.8615 8.48 35.9495 8.48H44.5575V11.072H37.3575ZM31.7255 15.712C31.7255 17.2907 32.1095 18.4853 32.8775 19.296C33.6455 20.1067 34.7015 20.512 36.0455 20.512C37.3682 20.512 38.4028 20.0853 39.1495 19.232C39.8962 18.3787 40.2695 17.1733 40.2695 15.616C40.2695 14.8267 40.1522 14.1547 39.9175 13.6C39.7042 13.024 39.4055 12.5547 39.0215 12.192C38.6375 11.808 38.1895 11.5307 37.6775 11.36C37.1655 11.1893 36.6215 11.104 36.0455 11.104C34.7015 11.104 33.6455 11.4987 32.8775 12.288C32.1095 13.056 31.7255 14.1973 31.7255 15.712ZM46.658 2.976C46.658 2.22933 46.882 1.62133 47.33 1.152C47.7993 0.682665 48.4073 0.447998 49.154 0.447998C49.9007 0.447998 50.498 0.682665 50.946 1.152C51.394 1.62133 51.618 2.22933 51.618 2.976C51.618 3.744 51.394 4.37333 50.946 4.864C50.498 5.33333 49.9007 5.568 49.154 5.568C48.4073 5.568 47.7993 5.33333 47.33 4.864C46.882 4.37333 46.658 3.744 46.658 2.976ZM47.522 8.48H50.754V24H47.522V8.48ZM57.3193 11.04H53.5433V8.48H54.6633C55.6233 8.48 56.3913 8.14933 56.9673 7.488C57.5433 6.80533 57.8313 5.632 57.8313 3.968V2.528H61.0633V4.832C61.0633 6.048 60.7326 6.944 60.0713 7.52C59.4099 8.096 58.3433 8.416 56.8713 8.48H66.3753V11.04H60.5513V18.88C60.5513 19.8613 60.7433 20.5547 61.1273 20.96C61.5113 21.344 62.1939 21.536 63.1753 21.536H66.2473V23.776C65.8419 23.9467 65.2979 24.0747 64.6153 24.16C63.9539 24.2453 63.2179 24.288 62.4073 24.288C61.7459 24.288 61.1059 24.2027 60.4873 24.032C59.8899 23.8827 59.3566 23.6267 58.8873 23.264C58.4179 22.9013 58.0339 22.432 57.7352 21.856C57.4579 21.2587 57.3193 20.5227 57.3193 19.648V11.04ZM87.4725 14.304C87.4725 12.1707 86.1818 11.104 83.6005 11.104C82.5978 11.104 81.6485 11.1573 80.7525 11.264C79.8778 11.3493 79.0992 11.488 78.4165 11.68L78.0645 9.12C78.8752 8.88533 79.8565 8.69333 81.0085 8.544C82.1605 8.39467 83.3018 8.32 84.4325 8.32C86.4378 8.32 87.9845 8.8 89.0725 9.76C90.1818 10.6987 90.7365 12.0853 90.7365 13.92V24.032H87.9205L87.5365 19.52C87.3018 20.096 86.9605 20.672 86.5125 21.248C86.0858 21.8027 85.5845 22.304 85.0085 22.752C84.4325 23.2 83.7925 23.5627 83.0885 23.84C82.4058 24.1173 81.6805 24.256 80.9125 24.256C79.5472 24.256 78.4698 23.872 77.6805 23.104C76.9125 22.336 76.5285 21.1733 76.5285 19.616C76.5285 18.6773 76.6778 17.8773 76.9765 17.216C77.2752 16.5547 77.6805 16.0107 78.1925 15.584C78.7258 15.136 79.3552 14.816 80.0805 14.624C80.8272 14.4107 81.6378 14.304 82.5125 14.304H87.4725ZM87.5045 16.128H83.4085C82.0858 16.128 81.1578 16.3413 80.6245 16.768C80.1125 17.1733 79.8565 17.8133 79.8565 18.688C79.8565 20.416 80.9125 21.28 83.0245 21.28C83.5792 21.28 84.0805 21.2267 84.5285 21.12C84.9765 21.0133 85.3712 20.8747 85.7125 20.704C86.0752 20.512 86.3952 20.2987 86.6725 20.064C86.9712 19.808 87.2485 19.552 87.5045 19.296V16.128ZM94.8293 1.6H98.0613V24H94.8293V1.6ZM104.958 8.48L105.374 13.248C105.651 12.5227 106.003 11.8507 106.43 11.232C106.856 10.6133 107.336 10.08 107.87 9.632C108.424 9.184 109.022 8.84267 109.662 8.608C110.302 8.352 110.984 8.224 111.71 8.224C112.52 8.224 113.267 8.39467 113.95 8.736C114.654 9.07733 115.251 9.58933 115.742 10.272C116.254 10.9547 116.648 11.808 116.926 12.832C117.224 13.8347 117.374 15.008 117.374 16.352C117.374 17.8027 117.224 19.0293 116.926 20.032C116.627 21.0347 116.222 21.856 115.71 22.496C115.198 23.1147 114.6 23.5627 113.918 23.84C113.256 24.1173 112.552 24.256 111.806 24.256C111.059 24.256 110.344 24.128 109.662 23.872C109 23.5947 108.392 23.2213 107.838 22.752C107.283 22.2827 106.792 21.728 106.366 21.088C105.939 20.448 105.608 19.7547 105.374 19.008V30.208H102.142V8.48H104.958ZM105.374 18.784C105.8 19.5947 106.451 20.2773 107.326 20.832C108.2 21.3867 109.171 21.664 110.238 21.664C111.368 21.664 112.275 21.2587 112.958 20.448C113.64 19.616 113.982 18.2613 113.982 16.384C113.982 14.5707 113.608 13.2267 112.862 12.352C112.136 11.4773 111.134 11.04 109.854 11.04C108.894 11.04 108.008 11.2747 107.198 11.744C106.408 12.192 105.8 12.7573 105.374 13.44V18.784Z" fill="#00050A"/>
</svg>
