<svg width="64" height="58" viewBox="0 0 64 58" fill="none" xmlns="http://www.w3.org/2000/svg">
<path fill-rule="evenodd" clip-rule="evenodd" d="M42.6668 29.1601C42.6668 28.1201 41.9735 27.7467 41.6802 27.2134C41.0402 25.9867 39.6268 24.8401 40.0268 23.9067C40.6668 22.4934 42.6935 22.2001 44.2135 22.5734C45.2799 23.0661 46.3752 23.4935 47.4935 23.8534C48.4801 24.0134 49.2535 23.0267 50.1601 21.9334C51.4186 20.5319 52.3802 18.89 52.9868 17.1067C53.0085 16.7984 52.934 16.4909 52.7735 16.2267C51.1339 14.503 49.2573 13.0215 47.2002 11.8267C47.2002 11.8267 46.8268 11.4534 46.5601 11.2667C47.3171 9.8386 47.7023 8.24289 47.6801 6.62672C47.5554 5.45083 47.1046 4.33318 46.3786 3.3998C45.6526 2.46641 44.6803 1.75441 43.5713 1.34408C42.4623 0.933745 41.2607 0.841397 40.102 1.07745C38.9433 1.3135 37.8736 1.86857 37.0135 2.68005C35.6535 4.20005 37.9202 5.00005 38.1068 3.69339L38.9601 3.02672C39.697 2.63053 40.5265 2.43853 41.3625 2.47059C42.1985 2.50265 43.0108 2.75762 43.7152 3.20908C44.4196 3.66054 44.9905 4.29209 45.3688 5.03833C45.7471 5.78457 45.919 6.61837 45.8668 7.45339C45.6464 8.66657 45.213 9.83119 44.5868 10.8934C43.5468 13.0267 45.8935 12.6534 50.7202 17.1867C49.9019 18.6869 48.8485 20.0464 47.6002 21.2134L44.9335 20.0934C43.5877 19.6159 42.1179 19.6209 40.7754 20.1073C39.4329 20.5937 38.3011 21.5314 37.5735 22.7601C36.3468 25.4267 38.3202 26.8401 39.2268 28.5734C39.8135 29.7467 40.1602 28.9467 39.2268 30.7601C38.5064 32.1819 37.6105 33.5078 36.5602 34.7067C33.8935 33.8534 19.2268 26.0934 17.4668 23.1334C17.9874 21.1942 18.8945 19.3801 20.1335 17.8001C23.1468 19.4001 24.9602 20.7601 27.7068 19.1867C33.3068 15.9334 31.4935 9.53339 25.1735 8.52005C25.8824 6.89336 26.7772 5.35422 27.8401 3.93339C28.5068 3.21339 31.2002 4.54672 32.0002 4.94672C32.2053 5.04927 32.4427 5.06614 32.6602 4.99363C32.8778 4.92112 33.0576 4.76515 33.1602 4.56005C33.2627 4.35495 33.2796 4.11751 33.2071 3.89997C33.1345 3.68243 32.9786 3.5026 32.7735 3.40005C26.8268 0.200053 26.6668 1.90672 23.3868 7.66672C22.9602 8.41339 22.4268 9.24005 23.0402 9.98672C23.6535 10.7334 25.4935 10.5467 26.1868 10.7867C28.0535 11.4534 29.6001 13.2934 28.6401 15.0267C28.0001 16.1467 26.4268 17.5334 25.1202 17.3467C19.7868 15.0801 20.0801 13.3467 17.6535 16.8934C16.2131 18.7223 15.2919 20.9054 14.9868 23.2134C14.9868 27.9867 35.6535 37.5867 36.9868 37.6401C39.3335 37.7734 42.6668 30.6534 42.6668 29.1601Z" fill="#000209"/>
<path fill-rule="evenodd" clip-rule="evenodd" d="M23.2267 49.1867C22.3733 45.4801 23.92 35.6401 19.5467 35.7201C15.6533 35.7201 16.4 38.8934 15.0133 42.6534C14.64 43.6934 14.6933 43.8001 12.3467 41.6401C11.8958 41.1854 11.4936 40.6849 11.1467 40.1467C11.36 39.1067 10.9333 39.8801 11.7333 33.2134C12.0267 30.8401 11.92 28.0667 9.81333 26.9467C9.15418 26.5822 8.39422 26.4423 7.64845 26.5481C6.90269 26.654 6.21169 26.9998 5.68 27.5334C5.36574 27.0849 4.93117 26.7343 4.42636 26.522C3.92154 26.3097 3.36702 26.2443 2.82667 26.3334C0 26.6534 0 29.9067 0 32.6534C0.16 39.9601 5.86667 47.8001 11.3067 52.6801L12.96 56.8934C13.2 57.6134 14.7467 56.7601 14.48 56.0401L13.3333 51.5867C13.3333 51.2401 2.05333 42.3067 2.16 32.6267C2.16 31.5334 2.16 28.5734 3.17333 28.4667C4.72 28.3067 4.42667 29.6934 6.56 35.2667C7.32545 37.3591 8.29923 39.3692 9.46667 41.2667C10.6551 43.0074 12.2964 44.3905 14.2133 45.2667C17.5467 45.8801 17.0933 40.4134 18.1067 38.8667C18.3467 38.4667 18.8 38.2801 19.5467 38.2534C22.2133 38.2534 20.1333 49.8801 21.8933 50.6534C22.5067 50.9467 23.7333 50.0934 23.3333 49.5601C23.3867 49.5067 23.2533 49.3467 23.2267 49.1867ZM6.42667 28.7867C6.7401 28.4351 7.17334 28.213 7.64178 28.1637C8.11022 28.1144 8.58023 28.2414 8.96 28.5201C10.0267 29.2401 9.78667 31.8534 9.68 33.3201C9.55643 34.7515 9.60118 36.1924 9.81333 37.6134C8.5271 34.734 7.39658 31.7875 6.42667 28.7867Z" fill="#000209"/>
<path fill-rule="evenodd" clip-rule="evenodd" d="M40.6665 49.56C40.2665 50.0933 41.4931 50.9467 42.1065 50.6534C43.8665 49.88 41.8665 38.1467 44.4531 38.2534C45.1998 38.2534 45.6531 38.4667 45.8931 38.8667C46.9065 40.4134 46.4531 45.88 49.7865 45.2667C51.7034 44.3905 53.3447 43.0074 54.5331 41.2667C55.7374 39.3735 56.747 37.3632 57.5465 35.2667C59.6798 29.6934 59.3865 28.3067 60.9331 28.4667C62.0265 28.4667 61.9465 31.5334 61.9465 32.6267C61.9465 42.3067 50.9065 51.2933 50.7731 51.5867L49.5198 56.04C49.2531 56.76 50.7998 57.6133 51.0398 56.8933L52.6931 52.68C58.0265 47.8 63.8398 39.96 63.9998 32.6534C63.9998 29.9867 63.9998 26.6534 61.1731 26.3334C60.6205 26.2281 60.0492 26.2854 59.5285 26.4984C59.0078 26.7114 58.5602 27.0709 58.2398 27.5334C57.7081 26.9998 57.0171 26.6539 56.2713 26.5481C55.5256 26.4422 54.7656 26.5821 54.1065 26.9467C51.9998 28.0667 51.8931 30.84 52.1865 33.2134C53.0131 40.1467 52.5598 39.16 52.7731 40.1467C52.4262 40.6849 52.024 41.1854 51.5731 41.64C49.3065 43.8 49.3598 43.6934 48.9065 42.6534C47.5198 38.8934 48.2665 35.7734 44.3731 35.72C39.9731 35.72 41.5465 45.48 40.6931 49.1867C40.7465 49.3467 40.6131 49.5067 40.6665 49.56ZM54.1865 37.6134C54.3986 36.1924 54.4434 34.7514 54.3198 33.32C54.3198 31.8534 53.9731 29.24 55.0398 28.52C55.4196 28.2414 55.8896 28.1143 56.358 28.1636C56.8265 28.2129 57.2597 28.4351 57.5731 28.7867C56.6032 31.7875 55.4727 34.7339 54.1865 37.6134Z" fill="#000209"/>
</svg>
