<svg width="64" height="64" viewBox="0 0 64 64" fill="none" xmlns="http://www.w3.org/2000/svg">
<g clip-path="url(#clip0_1698_708)">
<path fill-rule="evenodd" clip-rule="evenodd" d="M29.9465 47.3867C29.837 47.3282 29.7167 47.2929 29.593 47.2828C29.4693 47.2727 29.3448 47.2882 29.2273 47.3282C29.1098 47.3682 29.0018 47.4319 28.9099 47.5153C28.818 47.5988 28.7443 47.7002 28.6932 47.8133C28.0265 49.1467 31.0398 50.2667 24.9598 56.4533C22.2637 59.1579 18.6718 60.7835 14.8605 61.0242C11.0493 61.2648 7.28145 60.1039 4.26651 57.76C5.20108 57.7858 6.12989 57.6057 6.98706 57.2324C7.84424 56.8591 8.60879 56.3018 9.22651 55.6C14.5598 50.6133 12.4265 40.9067 20.8532 41.3333C24.7998 41.5467 24.6132 43.3333 25.9465 44.56C27.9198 46.3733 28.6132 43.7867 27.3598 43.5467C26.1065 43.3067 26.6665 40 21.0132 39.3067C10.7998 38.1867 11.7065 49.1467 7.11984 53.3333C5.09317 55.2 3.62651 54.6933 2.13317 55.44C0.639842 56.1867 -0.0268249 58.1067 2.13317 60.0533C4.25199 61.6892 6.70266 62.8424 9.31373 63.4321C11.9248 64.0219 14.6332 64.0339 17.2494 63.4675C19.8657 62.9011 22.3265 61.7698 24.4598 60.1529C26.5932 58.536 28.3474 56.4725 29.5998 54.1067C30.6398 52.2667 31.8398 48.2933 29.9465 47.3867Z" fill="#000209"/>
<path fill-rule="evenodd" clip-rule="evenodd" d="M52.5067 0.559911C46.56 2.29324 42.5067 6.87991 39.1733 12.2132C33.1467 22.4799 33.36 21.5999 29.0133 28.8266C22.8533 39.1999 24.4533 35.5732 23.6 37.0666C23.5045 37.1796 23.44 37.3156 23.4129 37.4611C23.3858 37.6066 23.397 37.7566 23.4454 37.8965C23.4938 38.0364 23.5778 38.1612 23.689 38.2589C23.8003 38.3565 23.935 38.4234 24.08 38.4532C25.5467 38.9332 30.0267 31.0399 30.8 29.8932C32 28.0266 33.3067 26.1866 34.5867 24.3466C40.8533 14.7466 43.1467 10.7199 46.72 7.43991C51.8667 2.74658 60.5067 0.666578 60.0533 7.43991C59.6533 17.5999 46.5333 25.6799 40 32.5332C38.56 34.0266 37.3333 35.7599 35.92 37.3866C32.5867 41.3066 29.7333 42.2666 30.2133 43.5466C30.96 45.4932 33.7867 42.2132 35.5467 40.8799C37.84 38.8799 39.5467 36.3199 41.6533 34.2666C48.4 27.7066 57.84 22.5866 61.9733 13.4932C66.1067 4.39991 60.8533 -1.84009 52.5067 0.559911Z" fill="#000209"/>
<path fill-rule="evenodd" clip-rule="evenodd" d="M49.3596 13.3333C52.2183 11.2801 54.7685 8.82862 56.9329 6.05325C56.9635 5.83773 56.9079 5.61884 56.7781 5.4441C56.6483 5.26936 56.4548 5.15287 56.2396 5.11992C55.5617 5.00801 54.8666 5.06909 54.2186 5.29752C53.5706 5.52594 52.9908 5.91431 52.5329 6.42659C50.6888 8.3406 49.0365 10.4306 47.5996 12.6666C47.6388 12.8496 47.7233 13.0199 47.8453 13.1619C47.9673 13.3039 48.123 13.413 48.298 13.4793C48.4731 13.5456 48.662 13.567 48.8474 13.5415C49.0329 13.516 49.209 13.4444 49.3596 13.3333Z" fill="#000209"/>
</g>
<defs>
<clipPath id="clip0_1698_708">
<rect width="64" height="64" fill="white"/>
</clipPath>
</defs>
</svg>
