<svg width="64" height="64" viewBox="0 0 64 64" fill="none" xmlns="http://www.w3.org/2000/svg">
<g clip-path="url(#clip0_1698_699)">
<path fill-rule="evenodd" clip-rule="evenodd" d="M59.7867 34.6666C59.7867 33.4666 59.7867 32.5866 59.6534 32.16C59.6247 31.7089 59.4378 31.2825 59.1256 30.9556C58.8135 30.6288 58.396 30.4226 57.9467 30.3733C56.2401 30.3733 54.2134 30.2133 52.6134 30.3733C51.588 30.4258 50.5947 30.7478 49.7334 31.3066C49.5374 31.4418 49.3753 31.6205 49.2596 31.8286C49.144 32.0368 49.078 32.2688 49.0667 32.5066V37.5733C46.9001 37.9471 44.6911 38.01 42.5067 37.76L41.8667 37.6266C41.6781 34.7141 41.6781 31.7925 41.8667 28.88C41.8876 28.3363 41.8061 27.7936 41.6267 27.28C41.5002 27.0441 41.3116 26.8474 41.0813 26.7111C40.8509 26.5747 40.5877 26.504 40.3201 26.5066C39.6096 26.4646 38.8972 26.4646 38.1867 26.5066H17.5467C17.4079 26.4995 17.2691 26.5202 17.1385 26.5676C17.0079 26.6149 16.888 26.688 16.7861 26.7825C16.6842 26.8769 16.6023 26.9909 16.5451 27.1175C16.488 27.2442 16.4568 27.381 16.4534 27.52V30.7733V34.7466C15.2001 34.7466 12.9334 35.04 10.7467 35.12C9.30844 35.2194 7.86501 35.2194 6.42673 35.12C6.29247 35.1068 6.15695 35.1213 6.02852 35.1626C5.9001 35.2039 5.7815 35.2711 5.68006 35.36C5.57471 35.4448 5.48741 35.5498 5.42329 35.6689C5.35917 35.788 5.31954 35.9187 5.30673 36.0533C5.12006 38.32 5.01339 40.96 4.93339 43.4933C4.74673 48.8266 4.77339 53.6266 4.77339 54.64C4.77339 55.0133 4.58673 57.9466 4.77339 59.68C4.76209 60.245 4.86175 60.8067 5.06673 61.3333C5.31048 61.6193 5.62227 61.8394 5.97339 61.9733C7.14096 62.3071 8.33734 62.5303 9.54673 62.64C20.5459 63.8066 31.609 64.2609 42.6667 64C47.6064 64.0621 52.5289 63.4063 57.2801 62.0533C57.7762 61.8787 58.2261 61.5935 58.5957 61.2193C58.9654 60.845 59.245 60.3916 59.4134 59.8933C60.3734 56.1333 60.0534 40.96 59.7867 34.6666ZM53.8401 59.4666C48.4124 60.294 42.9304 60.713 37.4401 60.72C28.0646 60.987 18.6815 60.7377 9.33339 59.9733C8.48006 59.9733 7.68006 59.52 7.22673 59.4666V54.4C7.22673 53.4133 7.06673 48.5066 7.22673 43.3333C7.22673 41.1733 7.22673 38.96 7.38673 36.9866H10.9601C20.2134 36.4533 18.6134 37.8133 18.6134 28.6133C25.4401 28.7466 34.0801 28.9066 38.1067 29.04H39.2534V29.3333C39.2534 30.8266 38.9601 33.12 38.9601 35.4133C38.9566 36.5643 39.0368 37.714 39.2001 38.8533C39.2886 39.2049 39.4724 39.5253 39.7311 39.7793C39.9898 40.0334 40.3136 40.2112 40.6667 40.2933C42.6714 40.7281 44.7244 40.8984 46.7734 40.8C48.3404 40.8571 49.8974 40.5274 51.3067 39.84C51.5481 39.655 51.7436 39.4168 51.8777 39.1439C52.0119 38.871 52.0811 38.5707 52.0801 38.2666L52.2134 33.6C52.6835 33.5573 53.1566 33.5573 53.6267 33.6H56.5867V34.8C57.4401 64 56.3467 58.9066 53.8401 59.44V59.4666Z" fill="#000209"/>
<path fill-rule="evenodd" clip-rule="evenodd" d="M34.8803 19.2267C34.902 19.3972 34.9748 19.5572 35.089 19.6857C35.2031 19.8141 35.3535 19.9051 35.5203 19.9467C35.5203 19.9467 35.3069 20.1867 35.3069 20.3734C35.276 20.6061 35.3365 20.8417 35.4758 21.0307C35.615 21.2197 35.8222 21.3474 36.0536 21.3867C36.9809 21.825 37.9445 22.1819 38.9336 22.4534C39.3609 22.5605 39.7998 22.6142 40.2403 22.6134C40.6754 22.6407 41.1118 22.6407 41.5469 22.6134C42.4565 22.4709 43.3498 22.2386 44.2136 21.9201C44.3048 22.0225 44.4154 22.1058 44.539 22.1653C44.6625 22.2248 44.7967 22.2593 44.9336 22.2667C45.0654 22.2776 45.198 22.2619 45.3235 22.2206C45.4491 22.1792 45.5651 22.113 45.6646 22.026C45.7641 21.9389 45.8451 21.8327 45.9027 21.7138C45.9604 21.5948 45.9936 21.4654 46.0003 21.3334L46.3469 17.0667C46.3566 16.9514 46.3566 16.8354 46.3469 16.7201C46.7736 16.7201 47.2536 16.9067 47.7603 17.0134C48.8001 17.2599 49.865 17.3852 50.9336 17.3867C51.7741 17.3459 52.5747 17.0163 53.2003 16.4534C53.4779 16.1745 53.6719 15.8235 53.7603 15.4401C53.8393 14.6242 53.8393 13.8026 53.7603 12.9867C53.7972 11.7107 53.6535 10.4359 53.3336 9.20006C53.2351 8.72941 53.0301 8.28759 52.7342 7.90853C52.4384 7.52947 52.0596 7.22325 51.6269 7.0134C51.0444 6.77106 50.4177 6.65299 49.7869 6.66673C48.8922 6.70042 48.001 6.79845 47.1203 6.96006H46.1603C45.8403 6.96006 45.8936 6.16006 45.8669 6.08006C45.6803 4.98673 45.8669 3.4134 45.7336 2.16006C45.3336 -0.0266037 45.4403 -0.506604 39.1203 0.160063C37.8619 0.272608 36.6649 0.755094 35.6803 1.54673C35.284 1.88722 34.9888 2.32998 34.8269 2.82673C34.6168 3.51218 34.4827 4.21864 34.4269 4.9334C34.2531 6.0907 34.1462 7.25709 34.1069 8.42673V11.8667L34.2403 14.8801L34.8803 19.2267ZM36.9069 14.9601L37.3336 12.1067L37.9203 5.3334V3.86673C38.3954 3.35073 39.0202 2.99639 39.7069 2.8534C41.0623 2.6166 42.4423 2.55387 43.8136 2.66673C43.8136 3.9734 43.4136 5.3334 43.4936 6.56006V8.40006C43.52 8.65677 43.6125 8.90224 43.7621 9.11255C43.9116 9.32286 44.1131 9.49082 44.3469 9.60006C44.87 9.83934 45.4283 9.99243 46.0003 10.0534C47.0392 10.1202 48.0813 10.1202 49.1203 10.0534C51.1736 10.0534 50.2136 10.3734 50.2136 12.9067C50.2136 13.0667 50.4536 13.7601 50.4803 14.2401C50.1026 14.3232 49.7113 14.3232 49.3336 14.2401C48.4003 14.2401 47.3603 14.0267 46.4803 14.0267C45.82 13.982 45.1575 14.0727 44.5336 14.2934C44.2879 14.4055 44.0795 14.5856 43.933 14.8125C43.7865 15.0393 43.708 15.3034 43.7069 15.5734V16.9334V19.6001C42.9069 19.6001 42.1069 19.3601 41.2803 19.2534C40.6498 19.2137 40.0174 19.2137 39.3869 19.2534C38.3203 19.2534 37.3603 19.5467 36.3203 19.6534C36.4281 19.5274 36.4852 19.3658 36.4803 19.2001L36.9069 14.9601Z" fill="#000209"/>
<path fill-rule="evenodd" clip-rule="evenodd" d="M18.6666 51.4667C18 51.0134 17.2266 50.6134 16.5066 50.1334L16 49.6534C16.6133 49.2267 17.3066 48.8534 17.8133 48.5334L25.8133 43.92C25.9219 43.8641 26.018 43.7868 26.096 43.6928C26.1739 43.5988 26.2321 43.49 26.267 43.3729C26.3018 43.2559 26.3127 43.133 26.2989 43.0116C26.2851 42.8903 26.2469 42.7729 26.1866 42.6667C26.0834 42.4587 25.9021 42.3 25.6824 42.225C25.4626 42.1501 25.2221 42.1651 25.0133 42.2667C22.96 43.0134 20.88 43.6 18.8533 44.3734C17.9404 44.7177 17.0498 45.1185 16.1866 45.5734C15.4479 45.9521 14.7352 46.3797 14.0533 46.8534C13.4816 47.2517 12.985 47.7483 12.5866 48.3201C12.323 48.6914 12.2088 49.1483 12.2666 49.6C12.503 50.2558 12.8453 50.8684 13.28 51.4134C13.6756 51.811 14.1243 52.1521 14.6133 52.4267C15.4933 52.9334 16.5066 53.2534 17.28 53.68L20.6666 55.52C20.9177 55.6191 21.1978 55.6143 21.4454 55.5068C21.6929 55.3992 21.8876 55.1978 21.9866 54.9467C22.0857 54.6956 22.0809 54.4155 21.9734 54.168C21.8658 53.9204 21.6644 53.7257 21.4133 53.6267L18.6666 51.4667Z" fill="#000209"/>
<path fill-rule="evenodd" clip-rule="evenodd" d="M34.88 39.3868C34.9952 39.1779 35.0235 38.9319 34.9586 38.7023C34.8937 38.4726 34.7409 38.2778 34.5333 38.1601C34.4319 38.1037 34.3202 38.0678 34.2049 38.0547C34.0895 38.0416 33.9727 38.0514 33.8611 38.0836C33.7496 38.1159 33.6455 38.1698 33.5549 38.2425C33.4644 38.3151 33.389 38.4049 33.3333 38.5068L30.0533 44.4001C29.3333 45.9735 28.4533 47.4935 27.7333 49.0935C26.7067 51.5582 25.8164 54.0776 25.0666 56.6401C25.0159 56.7644 24.9901 56.8976 24.9907 57.0318C24.9914 57.1661 25.0185 57.299 25.0705 57.4228C25.1225 57.5466 25.1984 57.6589 25.2938 57.7534C25.3892 57.8479 25.5023 57.9227 25.6266 57.9735C25.751 58.0242 25.8841 58.05 26.0184 58.0494C26.1526 58.0487 26.2855 58.0216 26.4093 57.9696C26.5331 57.9176 26.6455 57.8417 26.7399 57.7463C26.8344 57.6509 26.9092 57.5378 26.96 57.4135C28.32 54.7468 30.0533 52.0801 31.4666 49.4135C32.08 48.2135 32.56 46.9601 33.0933 45.7068C33.6266 44.4535 33.8666 42.6935 34.3466 41.1735C34.4765 40.5646 34.6549 39.9672 34.88 39.3868Z" fill="#000209"/>
<path fill-rule="evenodd" clip-rule="evenodd" d="M43.947 48.1333L38.4537 44.7733C38.3559 44.7093 38.2464 44.6654 38.1315 44.6441C38.0166 44.6228 37.8986 44.6247 37.7844 44.6495C37.6702 44.6743 37.5621 44.7216 37.4664 44.7887C37.3707 44.8557 37.2893 44.9412 37.227 45.04C37.1046 45.2394 37.064 45.4783 37.1137 45.7069C37.1634 45.9356 37.2995 46.1361 37.4937 46.2667L41.867 50.5067L40.747 51.2267C39.2537 52.1867 37.6803 53.0667 36.187 54.08C35.5129 54.542 34.8714 55.0499 34.267 55.6C34.1619 55.6823 34.0741 55.7845 34.0086 55.9007C33.943 56.0169 33.901 56.145 33.8849 56.2774C33.8688 56.4099 33.8789 56.5443 33.9147 56.6728C33.9506 56.8014 34.0114 56.9216 34.0937 57.0267C34.176 57.1317 34.2781 57.2195 34.3944 57.2851C34.5106 57.3507 34.6386 57.3927 34.7711 57.4088C34.9036 57.4249 35.0379 57.4147 35.1665 57.3789C35.295 57.3431 35.4153 57.2823 35.5203 57.2C36.1244 56.8063 36.7573 56.4586 37.4137 56.16C39.0137 55.4133 40.747 54.8267 42.347 54.1333C43.2116 53.7322 44.0412 53.2594 44.827 52.72C45.3198 52.3435 45.721 51.8603 46.0003 51.3067C46.164 50.9385 46.2004 50.5264 46.1039 50.1353C46.0073 49.7441 45.7832 49.3963 45.467 49.1467C44.9818 48.7777 44.4742 48.4393 43.947 48.1333Z" fill="#000209"/>
<path fill-rule="evenodd" clip-rule="evenodd" d="M9.54683 23.0134C10.3632 23.0801 11.1837 23.0801 12.0002 23.0134C13.2268 23.0134 14.4002 22.6668 15.6002 22.5868C15.8321 22.5933 16.0592 22.5201 16.2437 22.3794C16.4281 22.2386 16.5586 22.0389 16.6135 21.8134C16.6135 21.8134 16.6135 21.9468 16.8535 21.9468C16.9852 21.9654 17.1194 21.9572 17.2479 21.9226C17.3764 21.888 17.4966 21.8278 17.6012 21.7456C17.7058 21.6634 17.7927 21.5609 17.8567 21.4442C17.9207 21.3276 17.9604 21.1992 17.9735 21.0668C18.3127 19.1613 18.5441 17.2383 18.6668 15.3068C18.8007 13.9679 18.8007 12.619 18.6668 11.2801C18.5815 10.3194 18.357 9.37617 18.0002 8.4801C17.6755 7.74469 17.1821 7.09607 16.5602 6.58676C16.1694 6.30372 15.7247 6.10403 15.2535 6.0001C14.2402 5.7601 12.5868 5.70676 12.1602 5.62676C10.5694 5.26355 8.92975 5.16445 7.30683 5.33343C6.77748 5.39623 6.26701 5.56854 5.8079 5.83942C5.34879 6.11029 4.95111 6.47379 4.64016 6.90676C4.34478 7.43875 4.13765 8.01512 4.02683 8.61343C3.96371 9.61688 3.96371 10.6233 4.02683 11.6268L4.16016 21.3334C4.16016 21.3334 3.36016 22.2134 9.54683 23.0134ZM6.88016 11.7334C6.88016 11.2001 6.88016 10.4801 7.06683 9.78676C7.09718 9.38839 7.22542 9.00367 7.44016 8.66676C7.44016 8.66676 7.62683 8.66676 7.7335 8.66676C8.0796 8.63878 8.4274 8.63878 8.7735 8.66676C9.84016 8.66676 10.9335 9.01343 11.6002 9.1201C13.3335 9.3601 14.8002 7.5201 15.8135 11.7868C16.0549 12.9453 16.1888 14.1236 16.2135 15.3068C16.2135 17.1201 16.2135 18.9334 16.0268 20.6401H15.8135C14.5868 20.2668 13.3335 19.9734 12.1868 19.7868L10.6668 19.6534C10.1699 19.6134 9.67047 19.6134 9.1735 19.6534C8.08016 19.6534 7.0935 19.9468 6.02683 20.0001C6.02683 18.8268 6.02683 17.6534 6.26683 16.4534C6.50683 15.2534 6.58683 13.3334 6.82683 11.7334H6.88016Z" fill="#000209"/>
</g>
<defs>
<clipPath id="clip0_1698_699">
<rect width="64" height="64" fill="white"/>
</clipPath>
</defs>
</svg>
