<svg width="64" height="64" viewBox="0 0 64 64" fill="none" xmlns="http://www.w3.org/2000/svg">
<path fill-rule="evenodd" clip-rule="evenodd" d="M64 56.5067C63.6266 53.84 60.2133 50.96 58.5333 49.7867L56.7466 48.5333C54.9333 47.1733 55.6 46.56 54.5333 46.56C54.5333 43.8933 54.88 41.4133 54.88 39.0933V35.8933C54.88 34.8533 54.6666 33.76 54.5066 32.6933C54.1333 30.3733 53.6266 28.0267 52.9866 25.3067C52.947 25.0347 52.8014 24.7895 52.5815 24.6246C52.3617 24.4597 52.0855 24.3886 51.8133 24.4267C51.6795 24.4461 51.551 24.4921 51.4352 24.562C51.3195 24.6318 51.2189 24.7242 51.1393 24.8335C51.0598 24.9428 51.003 25.067 50.9722 25.1986C50.9414 25.3303 50.9372 25.4667 50.96 25.6C51.1466 28.4267 51.1466 30.9333 51.2533 33.2C51.2533 34.9067 51.2533 36.56 51.5466 38.24C51.84 40.9067 52.3466 43.5733 52.8266 46.6133H47.68C44.48 46.48 41.2533 46.1333 38.0533 45.92C35.8666 45.7867 33.7066 45.7067 31.5466 45.6533C28.88 45.6533 26.3466 45.6533 23.76 45.9467C19.8933 46.24 16.08 46.7467 12.2133 47.2267C11.9728 47.2267 11.7422 47.3222 11.5722 47.4922C11.4022 47.6623 11.3066 47.8929 11.3066 48.1333C11.3066 48.3738 11.4022 48.6044 11.5722 48.7745C11.7422 48.9445 11.9728 49.04 12.2133 49.04H19.8933C23.7066 49.04 27.4933 49.04 31.3333 49.2533C33.6266 49.2533 35.92 49.3867 38.24 49.44C40.56 49.4933 42.88 49.44 45.2 49.44C47.8666 49.44 50.6933 49.2267 53.3866 48.96L55.3866 50.5333L57.1733 51.92C58.1402 52.6188 59.0337 53.414 59.84 54.2933L48.8266 53.3333H37.9466C32.6133 53.3333 27.0933 53.6533 21.68 53.6533C17.2 53.8133 12.6666 54.4267 8.15998 54.5867H3.35998C3.84907 53.3676 4.51388 52.2266 5.33331 51.2L7.14664 49.5733L9.81331 47.8133C10.0255 47.7002 10.184 47.5074 10.254 47.2773C10.324 47.0473 10.2998 46.7988 10.1866 46.5867C10.087 46.4296 9.94143 46.3069 9.7697 46.2353C9.59796 46.1638 9.40837 46.1468 9.22664 46.1867L9.59998 41.28C9.78664 38.8533 10.08 36.4533 10.2666 34C10.4533 31.5467 10.6666 29.1467 10.6666 26.6667C10.3733 20.4267 10.1333 23.36 13.3333 22.8267L19.6533 21.68C19.9009 21.6034 20.111 21.4371 20.2424 21.2137C20.3737 20.9903 20.417 20.7259 20.3636 20.4722C20.3102 20.2186 20.164 19.9941 19.9537 19.8426C19.7434 19.6911 19.4841 19.6236 19.2266 19.6533L13.0666 20.1867C12.5866 20.1867 10.4 20 9.33331 20.1867C9.05612 20.2184 8.78814 20.3056 8.54534 20.443C8.30253 20.5805 8.08986 20.7654 7.91998 20.9867C7.62689 21.4841 7.44495 22.039 7.38664 22.6133C7.19998 23.8933 7.38664 25.8933 7.38664 26.6133C7.38664 29.0667 7.11998 31.52 7.09331 33.9467C7.06664 36.3733 7.09331 38.8533 7.27998 41.3067L7.51998 47.2533L6.21331 48.0533L4.05331 49.8133C2.2807 51.5257 0.961196 53.6516 0.213309 56C-0.124647 56.9508 -0.143472 57.9858 0.159687 58.9482C0.462846 59.9106 1.07146 60.7479 1.89331 61.3333C2.78638 61.9233 3.79586 62.3144 4.85331 62.48C6.2135 62.6693 7.5875 62.7406 8.95998 62.6933L17.7066 63.0667C25.3333 63.0667 32.96 63.52 40.56 63.5467C43.8666 63.5467 47.1733 63.5467 50.48 63.2L56 62.3467L59.4133 61.4667L61.68 60.5067C62.4687 60.2098 63.1305 59.6494 63.5534 58.9204C63.9762 58.1914 64.134 57.3387 64 56.5067ZM60.48 58.1333L58.6133 58.8267L55.4933 59.52L50.3733 60H43.8933C35.1733 60 26.4533 59.4667 17.7333 59.5467H8.93331C7.70897 59.6535 6.47765 59.6535 5.25331 59.5467C4.5893 59.4628 3.94701 59.2548 3.35998 58.9333C2.94901 58.6412 2.64721 58.2203 2.50231 57.7373C2.35742 57.2543 2.37771 56.7368 2.55998 56.2667C2.55998 56.2667 2.55998 56.1333 2.55998 56.08C4.39802 56.3472 6.25002 56.5075 8.10664 56.56C12.5866 56.72 17.1466 56.56 21.6 56.56H32.5333C37.8666 56.4267 43.3866 56.0533 48.8 55.8667H60.9866H61.1466C61.2978 56.0489 61.4007 56.2662 61.4459 56.4986C61.4912 56.731 61.4773 56.971 61.4056 57.1966C61.334 57.4223 61.2068 57.6263 61.0357 57.79C60.8647 57.9536 60.6552 58.0717 60.4266 58.1333H60.48Z" fill="#000209"/>
<path fill-rule="evenodd" clip-rule="evenodd" d="M25.0931 18.6667C26.0211 19.5267 27.0302 20.2948 28.1064 20.96C28.2093 21.0523 28.3295 21.1231 28.4601 21.1683C28.5906 21.2136 28.7289 21.2324 28.8667 21.2236C29.0046 21.2148 29.1394 21.1787 29.2631 21.1172C29.3869 21.0558 29.4972 20.9703 29.5875 20.8658C29.6779 20.7613 29.7465 20.6398 29.7894 20.5085C29.8322 20.3771 29.8485 20.2386 29.8372 20.1009C29.826 19.9632 29.7874 19.8291 29.7237 19.7065C29.6601 19.5839 29.5726 19.4751 29.4665 19.3867C28.7471 18.746 28.0784 18.0506 27.4665 17.3067C27.2095 16.9828 27.0438 16.5961 26.9864 16.1867L27.4398 15.4934C27.9218 14.7574 28.5704 14.1453 29.3331 13.7067C30.2173 13.1813 31.1809 12.803 32.1864 12.5867L33.3331 12.4C33.3331 12.4 33.1198 12.6667 33.0398 12.8267C31.8265 14.8861 30.9277 17.1151 30.3731 19.44C30.1308 20.3357 30.1263 21.2791 30.3601 22.177C30.594 23.075 31.058 23.8963 31.7065 24.56L33.7598 26.6667C34.4383 27.3615 35.2936 27.8579 36.2335 28.1022C37.1734 28.3466 38.1621 28.3297 39.0931 28.0534C41.4371 27.4281 43.6749 26.4574 45.7331 25.1734C45.9465 25.1734 46.1331 24.88 46.3464 24.7734L46.1065 26.1334C45.8901 27.1389 45.5119 28.1025 44.9865 28.9867C44.5381 29.7882 43.9079 30.4732 43.1465 30.9867L42.4531 31.44C42.0437 31.3827 41.657 31.217 41.3331 30.96C40.5954 30.3411 39.9005 29.6729 39.2531 28.96C39.0712 28.7571 38.8168 28.6337 38.5448 28.6164C38.2728 28.5991 38.0049 28.6893 37.7987 28.8675C37.5925 29.0458 37.4645 29.2978 37.4422 29.5695C37.42 29.8411 37.5053 30.1106 37.6798 30.32C38.345 31.3962 39.1131 32.4054 39.9731 33.3334C40.4969 33.8387 41.1385 34.2053 41.8398 34.4C42.3318 34.5068 42.8411 34.5068 43.3331 34.4C43.9362 34.2779 44.5136 34.0524 45.0398 33.7334C46.2892 32.9903 47.3125 31.9209 47.9998 30.64C48.4633 29.3682 48.6805 28.0198 48.6398 26.6667L48.4265 24C48.4133 23.8403 48.4133 23.6798 48.4265 23.52C50.1863 22.2882 51.7815 20.8365 53.1731 19.2C55.3264 16.5621 56.7841 13.4266 57.4131 10.08C57.6152 8.6114 57.6152 7.12201 57.4131 5.65337C57.3727 4.318 56.8736 3.03728 55.9998 2.02671C55.0573 1.21236 53.881 0.717573 52.6398 0.613374C51.1777 0.509275 49.7084 0.58991 48.2665 0.853374C44.9572 1.58827 41.8799 3.12692 39.3064 5.33337C37.6596 6.7623 36.1992 8.3929 34.9598 10.1867H34.6664L31.9998 9.86671C30.574 9.85754 29.1604 10.1294 27.8398 10.6667C26.4995 11.3464 25.3872 12.4031 24.6398 13.7067C24.3357 14.2183 24.1194 14.7771 23.9998 15.36C23.8927 15.8431 23.8927 16.3437 23.9998 16.8267C24.2159 17.5169 24.5903 18.147 25.0931 18.6667ZM41.0931 7.57337C43.3591 5.83068 46.0118 4.65984 48.8264 4.16004C49.7595 3.99901 50.707 3.93644 51.6531 3.97337C52.308 3.91876 52.9629 4.07782 53.5198 4.42671C53.8934 5.00349 54.0624 5.68903 53.9998 6.37338C54.0637 7.34421 54.019 8.31914 53.8665 9.28004C53.4723 12.1036 52.3716 14.7819 50.6665 17.0667C48.8953 19.4033 46.7074 21.3923 44.2131 22.9334C42.4245 24.1624 40.4661 25.1236 38.3998 25.7867C37.8641 25.982 37.2865 26.033 36.7249 25.9347C36.1633 25.8364 35.6373 25.5923 35.1998 25.2267L33.0398 23.1734C32.6559 22.714 32.3996 22.1617 32.2967 21.5719C32.1937 20.9822 32.2477 20.3757 32.4531 19.8134C33.1219 17.7478 34.1021 15.7965 35.3598 14.0267C36.9011 11.5643 38.8698 9.39697 41.1731 7.62671L41.0931 7.57337Z" fill="#000209"/>
<path fill-rule="evenodd" clip-rule="evenodd" d="M21.76 29.0135C22.0123 29.1969 22.291 29.3408 22.5867 29.4401L22.3734 29.7335C21.3247 31.0014 20.4296 32.3888 19.7067 33.8668C19.3368 34.809 19.2624 35.8413 19.4934 36.8268C19.5823 37.1007 19.7381 37.3482 19.9467 37.5468C20.148 37.7521 20.3946 37.9073 20.6667 38.0001C21.7571 38.3482 22.9341 38.3105 24 37.8935C25.47 37.1709 26.8486 36.2757 28.1067 35.2268L28.4 35.0135C28.5043 35.3153 28.6478 35.6022 28.8267 35.8668C29.1034 36.4256 29.5846 36.8565 30.1705 37.07C30.7564 37.2835 31.402 37.2632 31.9734 37.0135C33.1035 36.4233 33.963 35.4206 34.3734 34.2135C34.6635 33.3563 34.7725 32.4483 34.6934 31.5468C34.5976 30.3906 34.4283 29.2416 34.1867 28.1068C34.1709 27.9714 34.1272 27.8407 34.0584 27.7231C33.9897 27.6054 33.8972 27.5032 33.787 27.4231C33.6767 27.3429 33.5511 27.2864 33.4179 27.2572C33.2848 27.228 33.147 27.2268 33.0134 27.2535C32.8798 27.2699 32.7509 27.3127 32.634 27.3795C32.5172 27.4462 32.4149 27.5356 32.333 27.6423C32.251 27.749 32.1912 27.871 32.1569 28.0011C32.1227 28.1313 32.1146 28.2669 32.1334 28.4001C32.2825 29.4515 32.3627 30.5116 32.3734 31.5735C32.3778 32.1663 32.2692 32.7546 32.0534 33.3068C32.0534 33.5468 31.4667 33.7601 31.2 34.0001L31.0667 32.2401C30.9426 31.8054 30.651 31.4377 30.256 31.2177C29.8611 30.9977 29.395 30.9435 28.96 31.0668L28.2134 31.3335L26.2667 32.4535C25.6267 32.8535 24.6934 33.5201 23.6 34.0535H23.4667C23.9563 33.1336 24.4995 32.2431 25.0934 31.3868L26.1867 29.3868C26.2948 29.1544 26.3839 28.9136 26.4534 28.6668C26.4658 28.5873 26.4658 28.5063 26.4534 28.4268C26.5083 28.2211 26.5186 28.006 26.4836 27.7959C26.4486 27.5859 26.3691 27.3858 26.2504 27.209C26.1317 27.0322 25.9766 26.8828 25.7954 26.7709C25.6142 26.659 25.4112 26.5871 25.2 26.5601L23.28 26.6668C23.28 26.6668 23.28 26.5335 23.12 26.6668C22.96 26.8001 23.12 26.9335 23.12 26.9068C23.12 26.8801 23.84 26.0268 24.24 25.8668C24.7981 25.6331 25.3951 25.5065 26 25.4935C27.0613 25.4954 28.1213 25.5667 29.1733 25.7068C29.2926 25.7257 29.4144 25.7205 29.5316 25.6917C29.6488 25.6628 29.7591 25.6109 29.856 25.5388C29.9528 25.4668 30.0343 25.3761 30.0957 25.2722C30.1571 25.1682 30.1971 25.0531 30.2134 24.9335C30.245 24.7988 30.2464 24.6588 30.2173 24.5235C30.1882 24.3883 30.1295 24.2612 30.0453 24.1515C29.961 24.0417 29.8535 23.9521 29.7303 23.889C29.6072 23.8259 29.4716 23.791 29.3334 23.7868C28.2058 23.5489 27.0664 23.3709 25.92 23.2535C25.0206 23.1814 24.1156 23.2809 23.2534 23.5468C22.1117 23.9837 21.1652 24.8166 20.5867 25.8935C20.3468 26.465 20.3347 27.1066 20.5529 27.6868C20.7711 28.267 21.203 28.7416 21.76 29.0135Z" fill="#000209"/>
</svg>
